<?xml version="1.0" encoding="utf-8" standalone="no"?>
<!DOCTYPE svg PUBLIC "-//W3C//DTD SVG 1.1//EN"
  "http://www.w3.org/Graphics/SVG/1.1/DTD/svg11.dtd">
<svg xmlns:xlink="http://www.w3.org/1999/xlink" width="720pt" height="432pt" viewBox="0 0 720 432" xmlns="http://www.w3.org/2000/svg" version="1.1">
 <metadata>
  <rdf:RDF xmlns:dc="http://purl.org/dc/elements/1.1/" xmlns:cc="http://creativecommons.org/ns#" xmlns:rdf="http://www.w3.org/1999/02/22-rdf-syntax-ns#">
   <cc:Work>
    <dc:type rdf:resource="http://purl.org/dc/dcmitype/StillImage"/>
    <dc:date>2024-07-04T10:55:09.597876</dc:date>
    <dc:format>image/svg+xml</dc:format>
    <dc:creator>
     <cc:Agent>
      <dc:title>Matplotlib v3.9.0, https://matplotlib.org/</dc:title>
     </cc:Agent>
    </dc:creator>
   </cc:Work>
  </rdf:RDF>
 </metadata>
 <defs>
  <style type="text/css">*{stroke-linejoin: round; stroke-linecap: butt}</style>
 </defs>
 <g id="figure_1">
  <g id="patch_1">
   <path d="M 0 432 
L 720 432 
L 720 0 
L 0 0 
z
" style="fill: #ffffff"/>
  </g>
  <g id="axes_1">
   <g id="patch_2">
    <path d="M 369.00002 66.96 
C 331.217569 66.96 294.774034 81.121832 266.905378 106.633625 
C 239.036722 132.145418 221.718136 167.199024 218.388273 204.834454 
C 215.058409 242.469884 225.953272 280.019726 248.909657 310.028358 
C 271.866042 340.03699 305.256914 360.377548 342.452427 367.011361 
L 369.00002 218.160104 
z
" style="fill: #ee6352"/>
   </g>
   <g id="patch_3">
    <path d="M 342.452421 367.011359 
C 367.096416 371.406614 392.450474 369.613703 416.230698 361.794135 
C 440.010923 353.974567 461.481192 340.370374 478.707337 322.207093 
C 495.933482 304.043811 508.382289 281.883724 514.932368 257.722985 
C 521.482456 233.562248 521.931012 208.148834 516.237681 183.771988 
L 369.00002 218.160104 
z
" style="fill: #e4b7e5"/>
   </g>
   <g id="patch_4">
    <path d="M 516.237681 183.771988 
C 510.133167 157.634617 497.177548 133.588117 478.707301 114.11307 
C 460.237054 94.638023 436.90991 80.427955 411.132238 72.948716 
L 369.00002 218.160104 
z
" style="fill: #58a4b0"/>
   </g>
   <g id="patch_5">
    <path d="M 411.132238 72.948716 
C 404.295025 70.964935 397.326193 69.466517 390.277848 68.464664 
C 383.229504 67.46281 376.119231 66.96 369.000041 66.96 
L 369.00002 218.160104 
z
" style="fill: #484d6d"/>
   </g>
   <g id="matplotlib.axis_1"/>
   <g id="matplotlib.axis_2"/>
   <g id="text_1">
    <g id="patch_6">
     <path d="M 128.208972 211.75565 
L 203.327097 211.75565 
Q 205.727097 211.75565 205.727097 209.35565 
L 205.727097 197.64815 
Q 205.727097 195.24815 203.327097 195.24815 
L 128.208972 195.24815 
Q 125.808972 195.24815 125.808972 197.64815 
L 125.808972 209.35565 
Q 125.808972 211.75565 128.208972 211.75565 
z
" style="fill: #ee6352; opacity: 0.5; stroke: #ee6352; stroke-linejoin: miter"/>
    </g>
    <!-- Very unfair -->
    <g style="fill: #ffffff" transform="translate(128.208972 206.766275) scale(0.12 -0.12)">
     <defs>
      <path id="DejaVuSans-Bold-56" d="M 31 4666 
L 1241 4666 
L 2478 1222 
L 3713 4666 
L 4922 4666 
L 3194 0 
L 1759 0 
L 31 4666 
z
" transform="scale(0.015625)"/>
      <path id="DejaVuSans-Bold-65" d="M 4031 1759 
L 4031 1441 
L 1416 1441 
Q 1456 1047 1700 850 
Q 1944 653 2381 653 
Q 2734 653 3104 758 
Q 3475 863 3866 1075 
L 3866 213 
Q 3469 63 3072 -14 
Q 2675 -91 2278 -91 
Q 1328 -91 801 392 
Q 275 875 275 1747 
Q 275 2603 792 3093 
Q 1309 3584 2216 3584 
Q 3041 3584 3536 3087 
Q 4031 2591 4031 1759 
z
M 2881 2131 
Q 2881 2450 2695 2645 
Q 2509 2841 2209 2841 
Q 1884 2841 1681 2658 
Q 1478 2475 1428 2131 
L 2881 2131 
z
" transform="scale(0.015625)"/>
      <path id="DejaVuSans-Bold-72" d="M 3138 2547 
Q 2991 2616 2845 2648 
Q 2700 2681 2553 2681 
Q 2122 2681 1889 2404 
Q 1656 2128 1656 1613 
L 1656 0 
L 538 0 
L 538 3500 
L 1656 3500 
L 1656 2925 
Q 1872 3269 2151 3426 
Q 2431 3584 2822 3584 
Q 2878 3584 2943 3579 
Q 3009 3575 3134 3559 
L 3138 2547 
z
" transform="scale(0.015625)"/>
      <path id="DejaVuSans-Bold-79" d="M 78 3500 
L 1197 3500 
L 2138 1125 
L 2938 3500 
L 4056 3500 
L 2584 -331 
Q 2363 -916 2067 -1148 
Q 1772 -1381 1288 -1381 
L 641 -1381 
L 641 -647 
L 991 -647 
Q 1275 -647 1404 -556 
Q 1534 -466 1606 -231 
L 1638 -134 
L 78 3500 
z
" transform="scale(0.015625)"/>
      <path id="DejaVuSans-Bold-20" transform="scale(0.015625)"/>
      <path id="DejaVuSans-Bold-75" d="M 500 1363 
L 500 3500 
L 1625 3500 
L 1625 3150 
Q 1625 2866 1622 2436 
Q 1619 2006 1619 1863 
Q 1619 1441 1641 1255 
Q 1663 1069 1716 984 
Q 1784 875 1895 815 
Q 2006 756 2150 756 
Q 2500 756 2700 1025 
Q 2900 1294 2900 1772 
L 2900 3500 
L 4019 3500 
L 4019 0 
L 2900 0 
L 2900 506 
Q 2647 200 2364 54 
Q 2081 -91 1741 -91 
Q 1134 -91 817 281 
Q 500 653 500 1363 
z
" transform="scale(0.015625)"/>
      <path id="DejaVuSans-Bold-6e" d="M 4056 2131 
L 4056 0 
L 2931 0 
L 2931 347 
L 2931 1631 
Q 2931 2084 2911 2256 
Q 2891 2428 2841 2509 
Q 2775 2619 2662 2680 
Q 2550 2741 2406 2741 
Q 2056 2741 1856 2470 
Q 1656 2200 1656 1722 
L 1656 0 
L 538 0 
L 538 3500 
L 1656 3500 
L 1656 2988 
Q 1909 3294 2193 3439 
Q 2478 3584 2822 3584 
Q 3428 3584 3742 3212 
Q 4056 2841 4056 2131 
z
" transform="scale(0.015625)"/>
      <path id="DejaVuSans-Bold-66" d="M 2841 4863 
L 2841 4128 
L 2222 4128 
Q 1984 4128 1890 4042 
Q 1797 3956 1797 3744 
L 1797 3500 
L 2753 3500 
L 2753 2700 
L 1797 2700 
L 1797 0 
L 678 0 
L 678 2700 
L 122 2700 
L 122 3500 
L 678 3500 
L 678 3744 
Q 678 4316 997 4589 
Q 1316 4863 1984 4863 
L 2841 4863 
z
" transform="scale(0.015625)"/>
      <path id="DejaVuSans-Bold-61" d="M 2106 1575 
Q 1756 1575 1579 1456 
Q 1403 1338 1403 1106 
Q 1403 894 1545 773 
Q 1688 653 1941 653 
Q 2256 653 2472 879 
Q 2688 1106 2688 1447 
L 2688 1575 
L 2106 1575 
z
M 3816 1997 
L 3816 0 
L 2688 0 
L 2688 519 
Q 2463 200 2181 54 
Q 1900 -91 1497 -91 
Q 953 -91 614 226 
Q 275 544 275 1050 
Q 275 1666 698 1953 
Q 1122 2241 2028 2241 
L 2688 2241 
L 2688 2328 
Q 2688 2594 2478 2717 
Q 2269 2841 1825 2841 
Q 1466 2841 1156 2769 
Q 847 2697 581 2553 
L 581 3406 
Q 941 3494 1303 3539 
Q 1666 3584 2028 3584 
Q 2975 3584 3395 3211 
Q 3816 2838 3816 1997 
z
" transform="scale(0.015625)"/>
      <path id="DejaVuSans-Bold-69" d="M 538 3500 
L 1656 3500 
L 1656 0 
L 538 0 
L 538 3500 
z
M 538 4863 
L 1656 4863 
L 1656 3950 
L 538 3950 
L 538 4863 
z
" transform="scale(0.015625)"/>
     </defs>
     <use xlink:href="#DejaVuSans-Bold-56"/>
     <use xlink:href="#DejaVuSans-Bold-65" x="71.892578"/>
     <use xlink:href="#DejaVuSans-Bold-72" x="139.714844"/>
     <use xlink:href="#DejaVuSans-Bold-79" x="189.03125"/>
     <use xlink:href="#DejaVuSans-Bold-20" x="254.216797"/>
     <use xlink:href="#DejaVuSans-Bold-75" x="289.03125"/>
     <use xlink:href="#DejaVuSans-Bold-6e" x="360.222656"/>
     <use xlink:href="#DejaVuSans-Bold-66" x="431.414062"/>
     <use xlink:href="#DejaVuSans-Bold-61" x="474.919922"/>
     <use xlink:href="#DejaVuSans-Bold-69" x="542.400391"/>
     <use xlink:href="#DejaVuSans-Bold-72" x="576.677734"/>
    </g>
   </g>
   <g id="text_2">
    <g id="patch_7">
     <path d="M 257.817658 218.371595 
L 299.448283 218.371595 
Q 301.848283 218.371595 301.848283 215.971595 
L 301.848283 204.357845 
Q 301.848283 201.957845 299.448283 201.957845 
L 257.817658 201.957845 
Q 255.417658 201.957845 255.417658 204.357845 
L 255.417658 215.971595 
Q 255.417658 218.371595 257.817658 218.371595 
z
" style="opacity: 0.5; stroke: #000000; stroke-linejoin: miter"/>
    </g>
    <!-- 47.2% -->
    <g style="fill: #ffffff" transform="translate(257.817658 213.47597) scale(0.12 -0.12)">
     <defs>
      <path id="DejaVuSans-Bold-34" d="M 2356 3675 
L 1038 1722 
L 2356 1722 
L 2356 3675 
z
M 2156 4666 
L 3494 4666 
L 3494 1722 
L 4159 1722 
L 4159 850 
L 3494 850 
L 3494 0 
L 2356 0 
L 2356 850 
L 288 850 
L 288 1881 
L 2156 4666 
z
" transform="scale(0.015625)"/>
      <path id="DejaVuSans-Bold-37" d="M 428 4666 
L 3944 4666 
L 3944 3988 
L 2125 0 
L 953 0 
L 2675 3781 
L 428 3781 
L 428 4666 
z
" transform="scale(0.015625)"/>
      <path id="DejaVuSans-Bold-2e" d="M 653 1209 
L 1778 1209 
L 1778 0 
L 653 0 
L 653 1209 
z
" transform="scale(0.015625)"/>
      <path id="DejaVuSans-Bold-32" d="M 1844 884 
L 3897 884 
L 3897 0 
L 506 0 
L 506 884 
L 2209 2388 
Q 2438 2594 2547 2791 
Q 2656 2988 2656 3200 
Q 2656 3528 2436 3728 
Q 2216 3928 1850 3928 
Q 1569 3928 1234 3808 
Q 900 3688 519 3450 
L 519 4475 
Q 925 4609 1322 4679 
Q 1719 4750 2100 4750 
Q 2938 4750 3402 4381 
Q 3866 4013 3866 3353 
Q 3866 2972 3669 2642 
Q 3472 2313 2841 1759 
L 1844 884 
z
" transform="scale(0.015625)"/>
      <path id="DejaVuSans-Bold-25" d="M 4959 1925 
Q 4738 1925 4616 1733 
Q 4494 1541 4494 1184 
Q 4494 825 4614 633 
Q 4734 441 4959 441 
Q 5184 441 5303 633 
Q 5422 825 5422 1184 
Q 5422 1541 5301 1733 
Q 5181 1925 4959 1925 
z
M 4959 2450 
Q 5541 2450 5875 2112 
Q 6209 1775 6209 1184 
Q 6209 594 5875 251 
Q 5541 -91 4959 -91 
Q 4378 -91 4042 251 
Q 3706 594 3706 1184 
Q 3706 1772 4042 2111 
Q 4378 2450 4959 2450 
z
M 2094 -91 
L 1403 -91 
L 4319 4750 
L 5013 4750 
L 2094 -91 
z
M 1453 4750 
Q 2034 4750 2367 4411 
Q 2700 4072 2700 3481 
Q 2700 2891 2367 2550 
Q 2034 2209 1453 2209 
Q 872 2209 539 2550 
Q 206 2891 206 3481 
Q 206 4072 539 4411 
Q 872 4750 1453 4750 
z
M 1453 4225 
Q 1228 4225 1106 4031 
Q 984 3838 984 3481 
Q 984 3122 1106 2926 
Q 1228 2731 1453 2731 
Q 1678 2731 1798 2926 
Q 1919 3122 1919 3481 
Q 1919 3838 1797 4031 
Q 1675 4225 1453 4225 
z
" transform="scale(0.015625)"/>
     </defs>
     <use xlink:href="#DejaVuSans-Bold-34"/>
     <use xlink:href="#DejaVuSans-Bold-37" x="69.580078"/>
     <use xlink:href="#DejaVuSans-Bold-2e" x="139.160156"/>
     <use xlink:href="#DejaVuSans-Bold-32" x="177.148438"/>
     <use xlink:href="#DejaVuSans-Bold-25" x="246.728516"/>
    </g>
   </g>
   <g id="text_3">
    <g id="patch_8">
     <path d="M 489.678067 340.818669 
L 531.314317 340.818669 
Q 533.714317 340.818669 533.714317 338.418669 
L 533.714317 326.804919 
Q 533.714317 324.404919 531.314317 324.404919 
L 489.678067 324.404919 
Q 487.278067 324.404919 487.278067 326.804919 
L 487.278067 338.418669 
Q 487.278067 340.818669 489.678067 340.818669 
z
" style="fill: #e4b7e5; opacity: 0.5; stroke: #e4b7e5; stroke-linejoin: miter"/>
    </g>
    <!-- Unfair -->
    <g style="fill: #ffffff" transform="translate(489.678067 335.923044) scale(0.12 -0.12)">
     <defs>
      <path id="DejaVuSans-Bold-55" d="M 588 4666 
L 1791 4666 
L 1791 1869 
Q 1791 1291 1980 1042 
Q 2169 794 2597 794 
Q 3028 794 3217 1042 
Q 3406 1291 3406 1869 
L 3406 4666 
L 4609 4666 
L 4609 1869 
Q 4609 878 4112 393 
Q 3616 -91 2597 -91 
Q 1581 -91 1084 393 
Q 588 878 588 1869 
L 588 4666 
z
" transform="scale(0.015625)"/>
     </defs>
     <use xlink:href="#DejaVuSans-Bold-55"/>
     <use xlink:href="#DejaVuSans-Bold-6e" x="81.201172"/>
     <use xlink:href="#DejaVuSans-Bold-66" x="152.392578"/>
     <use xlink:href="#DejaVuSans-Bold-61" x="195.898438"/>
     <use xlink:href="#DejaVuSans-Bold-69" x="263.378906"/>
     <use xlink:href="#DejaVuSans-Bold-72" x="297.65625"/>
    </g>
   </g>
   <g id="text_4">
    <g id="patch_9">
     <path d="M 414.009097 288.795173 
L 455.639722 288.795173 
Q 458.039722 288.795173 458.039722 286.395173 
L 458.039722 274.781423 
Q 458.039722 272.381423 455.639722 272.381423 
L 414.009097 272.381423 
Q 411.609097 272.381423 411.609097 274.781423 
L 411.609097 286.395173 
Q 411.609097 288.795173 414.009097 288.795173 
z
" style="opacity: 0.5; stroke: #000000; stroke-linejoin: miter"/>
    </g>
    <!-- 31.5% -->
    <g style="fill: #ffffff" transform="translate(414.009097 283.899548) scale(0.12 -0.12)">
     <defs>
      <path id="DejaVuSans-Bold-33" d="M 2981 2516 
Q 3453 2394 3698 2092 
Q 3944 1791 3944 1325 
Q 3944 631 3412 270 
Q 2881 -91 1863 -91 
Q 1503 -91 1142 -33 
Q 781 25 428 141 
L 428 1069 
Q 766 900 1098 814 
Q 1431 728 1753 728 
Q 2231 728 2486 893 
Q 2741 1059 2741 1369 
Q 2741 1688 2480 1852 
Q 2219 2016 1709 2016 
L 1228 2016 
L 1228 2791 
L 1734 2791 
Q 2188 2791 2409 2933 
Q 2631 3075 2631 3366 
Q 2631 3634 2415 3781 
Q 2200 3928 1806 3928 
Q 1516 3928 1219 3862 
Q 922 3797 628 3669 
L 628 4550 
Q 984 4650 1334 4700 
Q 1684 4750 2022 4750 
Q 2931 4750 3382 4451 
Q 3834 4153 3834 3553 
Q 3834 3144 3618 2883 
Q 3403 2622 2981 2516 
z
" transform="scale(0.015625)"/>
      <path id="DejaVuSans-Bold-31" d="M 750 831 
L 1813 831 
L 1813 3847 
L 722 3622 
L 722 4441 
L 1806 4666 
L 2950 4666 
L 2950 831 
L 4013 831 
L 4013 0 
L 750 0 
L 750 831 
z
" transform="scale(0.015625)"/>
      <path id="DejaVuSans-Bold-35" d="M 678 4666 
L 3669 4666 
L 3669 3781 
L 1638 3781 
L 1638 3059 
Q 1775 3097 1914 3117 
Q 2053 3138 2203 3138 
Q 3056 3138 3531 2711 
Q 4006 2284 4006 1522 
Q 4006 766 3489 337 
Q 2972 -91 2053 -91 
Q 1656 -91 1267 -14 
Q 878 63 494 219 
L 494 1166 
Q 875 947 1217 837 
Q 1559 728 1863 728 
Q 2300 728 2551 942 
Q 2803 1156 2803 1522 
Q 2803 1891 2551 2103 
Q 2300 2316 1863 2316 
Q 1603 2316 1309 2248 
Q 1016 2181 678 2041 
L 678 4666 
z
" transform="scale(0.015625)"/>
     </defs>
     <use xlink:href="#DejaVuSans-Bold-33"/>
     <use xlink:href="#DejaVuSans-Bold-31" x="69.580078"/>
     <use xlink:href="#DejaVuSans-Bold-2e" x="139.160156"/>
     <use xlink:href="#DejaVuSans-Bold-35" x="177.148438"/>
     <use xlink:href="#DejaVuSans-Bold-25" x="246.728516"/>
    </g>
   </g>
   <g id="text_5">
    <g id="patch_10">
     <path d="M 489.677972 111.915189 
L 515.299847 111.915189 
Q 517.699847 111.915189 517.699847 109.515189 
L 517.699847 97.901439 
Q 517.699847 95.501439 515.299847 95.501439 
L 489.677972 95.501439 
Q 487.277972 95.501439 487.277972 97.901439 
L 487.277972 109.515189 
Q 487.277972 111.915189 489.677972 111.915189 
z
" style="fill: #58a4b0; opacity: 0.5; stroke: #58a4b0; stroke-linejoin: miter"/>
    </g>
    <!-- Fair -->
    <g style="fill: #ffffff" transform="translate(489.677972 107.019564) scale(0.12 -0.12)">
     <defs>
      <path id="DejaVuSans-Bold-46" d="M 588 4666 
L 3834 4666 
L 3834 3756 
L 1791 3756 
L 1791 2888 
L 3713 2888 
L 3713 1978 
L 1791 1978 
L 1791 0 
L 588 0 
L 588 4666 
z
" transform="scale(0.015625)"/>
     </defs>
     <use xlink:href="#DejaVuSans-Bold-46"/>
     <use xlink:href="#DejaVuSans-Bold-61" x="62.435547"/>
     <use xlink:href="#DejaVuSans-Bold-69" x="129.916016"/>
     <use xlink:href="#DejaVuSans-Bold-72" x="164.193359"/>
    </g>
   </g>
   <g id="text_6">
    <g id="patch_11">
     <path d="M 414.009045 163.93873 
L 455.63967 163.93873 
Q 458.03967 163.93873 458.03967 161.53873 
L 458.03967 149.92498 
Q 458.03967 147.52498 455.63967 147.52498 
L 414.009045 147.52498 
Q 411.609045 147.52498 411.609045 149.92498 
L 411.609045 161.53873 
Q 411.609045 163.93873 414.009045 163.93873 
z
" style="opacity: 0.5; stroke: #000000; stroke-linejoin: miter"/>
    </g>
    <!-- 16.9% -->
    <g style="fill: #ffffff" transform="translate(414.009045 159.043105) scale(0.12 -0.12)">
     <defs>
      <path id="DejaVuSans-Bold-36" d="M 2316 2303 
Q 2000 2303 1842 2098 
Q 1684 1894 1684 1484 
Q 1684 1075 1842 870 
Q 2000 666 2316 666 
Q 2634 666 2792 870 
Q 2950 1075 2950 1484 
Q 2950 1894 2792 2098 
Q 2634 2303 2316 2303 
z
M 3803 4544 
L 3803 3681 
Q 3506 3822 3243 3889 
Q 2981 3956 2731 3956 
Q 2194 3956 1894 3657 
Q 1594 3359 1544 2772 
Q 1750 2925 1990 3001 
Q 2231 3078 2516 3078 
Q 3231 3078 3670 2659 
Q 4109 2241 4109 1563 
Q 4109 813 3618 361 
Q 3128 -91 2303 -91 
Q 1394 -91 895 523 
Q 397 1138 397 2266 
Q 397 3422 980 4083 
Q 1563 4744 2578 4744 
Q 2900 4744 3203 4694 
Q 3506 4644 3803 4544 
z
" transform="scale(0.015625)"/>
      <path id="DejaVuSans-Bold-39" d="M 641 103 
L 641 966 
Q 928 831 1190 764 
Q 1453 697 1709 697 
Q 2247 697 2547 995 
Q 2847 1294 2900 1881 
Q 2688 1725 2447 1647 
Q 2206 1569 1925 1569 
Q 1209 1569 770 1986 
Q 331 2403 331 3084 
Q 331 3838 820 4291 
Q 1309 4744 2131 4744 
Q 3044 4744 3544 4128 
Q 4044 3513 4044 2388 
Q 4044 1231 3459 570 
Q 2875 -91 1856 -91 
Q 1528 -91 1228 -42 
Q 928 6 641 103 
z
M 2125 2350 
Q 2441 2350 2600 2554 
Q 2759 2759 2759 3169 
Q 2759 3575 2600 3781 
Q 2441 3988 2125 3988 
Q 1809 3988 1650 3781 
Q 1491 3575 1491 3169 
Q 1491 2759 1650 2554 
Q 1809 2350 2125 2350 
z
" transform="scale(0.015625)"/>
     </defs>
     <use xlink:href="#DejaVuSans-Bold-31"/>
     <use xlink:href="#DejaVuSans-Bold-36" x="69.580078"/>
     <use xlink:href="#DejaVuSans-Bold-2e" x="139.160156"/>
     <use xlink:href="#DejaVuSans-Bold-39" x="177.148438"/>
     <use xlink:href="#DejaVuSans-Bold-25" x="246.728516"/>
    </g>
   </g>
   <g id="text_7">
    <g id="patch_12">
     <path d="M 392.405631 61.748867 
L 450.438756 61.748867 
Q 452.838756 61.748867 452.838756 59.348867 
L 452.838756 47.641367 
Q 452.838756 45.241367 450.438756 45.241367 
L 392.405631 45.241367 
Q 390.005631 45.241367 390.005631 47.641367 
L 390.005631 59.348867 
Q 390.005631 61.748867 392.405631 61.748867 
z
" style="fill: #484d6d; opacity: 0.5; stroke: #484d6d; stroke-linejoin: miter"/>
    </g>
    <!-- Very fair -->
    <g style="fill: #ffffff" transform="translate(392.405631 56.759492) scale(0.12 -0.12)">
     <use xlink:href="#DejaVuSans-Bold-56"/>
     <use xlink:href="#DejaVuSans-Bold-65" x="71.892578"/>
     <use xlink:href="#DejaVuSans-Bold-72" x="139.714844"/>
     <use xlink:href="#DejaVuSans-Bold-79" x="189.03125"/>
     <use xlink:href="#DejaVuSans-Bold-20" x="254.216797"/>
     <use xlink:href="#DejaVuSans-Bold-66" x="289.03125"/>
     <use xlink:href="#DejaVuSans-Bold-61" x="332.537109"/>
     <use xlink:href="#DejaVuSans-Bold-69" x="400.017578"/>
     <use xlink:href="#DejaVuSans-Bold-72" x="434.294922"/>
    </g>
   </g>
   <g id="text_8">
    <g id="patch_13">
     <path d="M 365.126092 136.549713 
L 398.407342 136.549713 
Q 400.807342 136.549713 400.807342 134.149713 
L 400.807342 122.535963 
Q 400.807342 120.135963 398.407342 120.135963 
L 365.126092 120.135963 
Q 362.726092 120.135963 362.726092 122.535963 
L 362.726092 134.149713 
Q 362.726092 136.549713 365.126092 136.549713 
z
" style="opacity: 0.5; stroke: #000000; stroke-linejoin: miter"/>
    </g>
    <!-- 4.5% -->
    <g style="fill: #ffffff" transform="translate(365.126092 131.654088) scale(0.12 -0.12)">
     <use xlink:href="#DejaVuSans-Bold-34"/>
     <use xlink:href="#DejaVuSans-Bold-2e" x="69.580078"/>
     <use xlink:href="#DejaVuSans-Bold-35" x="107.568359"/>
     <use xlink:href="#DejaVuSans-Bold-25" x="177.148438"/>
    </g>
   </g>
   <g id="text_9">
    <!-- How fair do you find it that everyone pays the fee, even if they do not use the ticket? -->
    <g transform="translate(112.543125 45.84) scale(0.12 -0.12)">
     <defs>
      <path id="DejaVuSans-48" d="M 628 4666 
L 1259 4666 
L 1259 2753 
L 3553 2753 
L 3553 4666 
L 4184 4666 
L 4184 0 
L 3553 0 
L 3553 2222 
L 1259 2222 
L 1259 0 
L 628 0 
L 628 4666 
z
" transform="scale(0.015625)"/>
      <path id="DejaVuSans-6f" d="M 1959 3097 
Q 1497 3097 1228 2736 
Q 959 2375 959 1747 
Q 959 1119 1226 758 
Q 1494 397 1959 397 
Q 2419 397 2687 759 
Q 2956 1122 2956 1747 
Q 2956 2369 2687 2733 
Q 2419 3097 1959 3097 
z
M 1959 3584 
Q 2709 3584 3137 3096 
Q 3566 2609 3566 1747 
Q 3566 888 3137 398 
Q 2709 -91 1959 -91 
Q 1206 -91 779 398 
Q 353 888 353 1747 
Q 353 2609 779 3096 
Q 1206 3584 1959 3584 
z
" transform="scale(0.015625)"/>
      <path id="DejaVuSans-77" d="M 269 3500 
L 844 3500 
L 1563 769 
L 2278 3500 
L 2956 3500 
L 3675 769 
L 4391 3500 
L 4966 3500 
L 4050 0 
L 3372 0 
L 2619 2869 
L 1863 0 
L 1184 0 
L 269 3500 
z
" transform="scale(0.015625)"/>
      <path id="DejaVuSans-20" transform="scale(0.015625)"/>
      <path id="DejaVuSans-66" d="M 2375 4863 
L 2375 4384 
L 1825 4384 
Q 1516 4384 1395 4259 
Q 1275 4134 1275 3809 
L 1275 3500 
L 2222 3500 
L 2222 3053 
L 1275 3053 
L 1275 0 
L 697 0 
L 697 3053 
L 147 3053 
L 147 3500 
L 697 3500 
L 697 3744 
Q 697 4328 969 4595 
Q 1241 4863 1831 4863 
L 2375 4863 
z
" transform="scale(0.015625)"/>
      <path id="DejaVuSans-61" d="M 2194 1759 
Q 1497 1759 1228 1600 
Q 959 1441 959 1056 
Q 959 750 1161 570 
Q 1363 391 1709 391 
Q 2188 391 2477 730 
Q 2766 1069 2766 1631 
L 2766 1759 
L 2194 1759 
z
M 3341 1997 
L 3341 0 
L 2766 0 
L 2766 531 
Q 2569 213 2275 61 
Q 1981 -91 1556 -91 
Q 1019 -91 701 211 
Q 384 513 384 1019 
Q 384 1609 779 1909 
Q 1175 2209 1959 2209 
L 2766 2209 
L 2766 2266 
Q 2766 2663 2505 2880 
Q 2244 3097 1772 3097 
Q 1472 3097 1187 3025 
Q 903 2953 641 2809 
L 641 3341 
Q 956 3463 1253 3523 
Q 1550 3584 1831 3584 
Q 2591 3584 2966 3190 
Q 3341 2797 3341 1997 
z
" transform="scale(0.015625)"/>
      <path id="DejaVuSans-69" d="M 603 3500 
L 1178 3500 
L 1178 0 
L 603 0 
L 603 3500 
z
M 603 4863 
L 1178 4863 
L 1178 4134 
L 603 4134 
L 603 4863 
z
" transform="scale(0.015625)"/>
      <path id="DejaVuSans-72" d="M 2631 2963 
Q 2534 3019 2420 3045 
Q 2306 3072 2169 3072 
Q 1681 3072 1420 2755 
Q 1159 2438 1159 1844 
L 1159 0 
L 581 0 
L 581 3500 
L 1159 3500 
L 1159 2956 
Q 1341 3275 1631 3429 
Q 1922 3584 2338 3584 
Q 2397 3584 2469 3576 
Q 2541 3569 2628 3553 
L 2631 2963 
z
" transform="scale(0.015625)"/>
      <path id="DejaVuSans-64" d="M 2906 2969 
L 2906 4863 
L 3481 4863 
L 3481 0 
L 2906 0 
L 2906 525 
Q 2725 213 2448 61 
Q 2172 -91 1784 -91 
Q 1150 -91 751 415 
Q 353 922 353 1747 
Q 353 2572 751 3078 
Q 1150 3584 1784 3584 
Q 2172 3584 2448 3432 
Q 2725 3281 2906 2969 
z
M 947 1747 
Q 947 1113 1208 752 
Q 1469 391 1925 391 
Q 2381 391 2643 752 
Q 2906 1113 2906 1747 
Q 2906 2381 2643 2742 
Q 2381 3103 1925 3103 
Q 1469 3103 1208 2742 
Q 947 2381 947 1747 
z
" transform="scale(0.015625)"/>
      <path id="DejaVuSans-79" d="M 2059 -325 
Q 1816 -950 1584 -1140 
Q 1353 -1331 966 -1331 
L 506 -1331 
L 506 -850 
L 844 -850 
Q 1081 -850 1212 -737 
Q 1344 -625 1503 -206 
L 1606 56 
L 191 3500 
L 800 3500 
L 1894 763 
L 2988 3500 
L 3597 3500 
L 2059 -325 
z
" transform="scale(0.015625)"/>
      <path id="DejaVuSans-75" d="M 544 1381 
L 544 3500 
L 1119 3500 
L 1119 1403 
Q 1119 906 1312 657 
Q 1506 409 1894 409 
Q 2359 409 2629 706 
Q 2900 1003 2900 1516 
L 2900 3500 
L 3475 3500 
L 3475 0 
L 2900 0 
L 2900 538 
Q 2691 219 2414 64 
Q 2138 -91 1772 -91 
Q 1169 -91 856 284 
Q 544 659 544 1381 
z
M 1991 3584 
L 1991 3584 
z
" transform="scale(0.015625)"/>
      <path id="DejaVuSans-6e" d="M 3513 2113 
L 3513 0 
L 2938 0 
L 2938 2094 
Q 2938 2591 2744 2837 
Q 2550 3084 2163 3084 
Q 1697 3084 1428 2787 
Q 1159 2491 1159 1978 
L 1159 0 
L 581 0 
L 581 3500 
L 1159 3500 
L 1159 2956 
Q 1366 3272 1645 3428 
Q 1925 3584 2291 3584 
Q 2894 3584 3203 3211 
Q 3513 2838 3513 2113 
z
" transform="scale(0.015625)"/>
      <path id="DejaVuSans-74" d="M 1172 4494 
L 1172 3500 
L 2356 3500 
L 2356 3053 
L 1172 3053 
L 1172 1153 
Q 1172 725 1289 603 
Q 1406 481 1766 481 
L 2356 481 
L 2356 0 
L 1766 0 
Q 1100 0 847 248 
Q 594 497 594 1153 
L 594 3053 
L 172 3053 
L 172 3500 
L 594 3500 
L 594 4494 
L 1172 4494 
z
" transform="scale(0.015625)"/>
      <path id="DejaVuSans-68" d="M 3513 2113 
L 3513 0 
L 2938 0 
L 2938 2094 
Q 2938 2591 2744 2837 
Q 2550 3084 2163 3084 
Q 1697 3084 1428 2787 
Q 1159 2491 1159 1978 
L 1159 0 
L 581 0 
L 581 4863 
L 1159 4863 
L 1159 2956 
Q 1366 3272 1645 3428 
Q 1925 3584 2291 3584 
Q 2894 3584 3203 3211 
Q 3513 2838 3513 2113 
z
" transform="scale(0.015625)"/>
      <path id="DejaVuSans-65" d="M 3597 1894 
L 3597 1613 
L 953 1613 
Q 991 1019 1311 708 
Q 1631 397 2203 397 
Q 2534 397 2845 478 
Q 3156 559 3463 722 
L 3463 178 
Q 3153 47 2828 -22 
Q 2503 -91 2169 -91 
Q 1331 -91 842 396 
Q 353 884 353 1716 
Q 353 2575 817 3079 
Q 1281 3584 2069 3584 
Q 2775 3584 3186 3129 
Q 3597 2675 3597 1894 
z
M 3022 2063 
Q 3016 2534 2758 2815 
Q 2500 3097 2075 3097 
Q 1594 3097 1305 2825 
Q 1016 2553 972 2059 
L 3022 2063 
z
" transform="scale(0.015625)"/>
      <path id="DejaVuSans-76" d="M 191 3500 
L 800 3500 
L 1894 563 
L 2988 3500 
L 3597 3500 
L 2284 0 
L 1503 0 
L 191 3500 
z
" transform="scale(0.015625)"/>
      <path id="DejaVuSans-70" d="M 1159 525 
L 1159 -1331 
L 581 -1331 
L 581 3500 
L 1159 3500 
L 1159 2969 
Q 1341 3281 1617 3432 
Q 1894 3584 2278 3584 
Q 2916 3584 3314 3078 
Q 3713 2572 3713 1747 
Q 3713 922 3314 415 
Q 2916 -91 2278 -91 
Q 1894 -91 1617 61 
Q 1341 213 1159 525 
z
M 3116 1747 
Q 3116 2381 2855 2742 
Q 2594 3103 2138 3103 
Q 1681 3103 1420 2742 
Q 1159 2381 1159 1747 
Q 1159 1113 1420 752 
Q 1681 391 2138 391 
Q 2594 391 2855 752 
Q 3116 1113 3116 1747 
z
" transform="scale(0.015625)"/>
      <path id="DejaVuSans-73" d="M 2834 3397 
L 2834 2853 
Q 2591 2978 2328 3040 
Q 2066 3103 1784 3103 
Q 1356 3103 1142 2972 
Q 928 2841 928 2578 
Q 928 2378 1081 2264 
Q 1234 2150 1697 2047 
L 1894 2003 
Q 2506 1872 2764 1633 
Q 3022 1394 3022 966 
Q 3022 478 2636 193 
Q 2250 -91 1575 -91 
Q 1294 -91 989 -36 
Q 684 19 347 128 
L 347 722 
Q 666 556 975 473 
Q 1284 391 1588 391 
Q 1994 391 2212 530 
Q 2431 669 2431 922 
Q 2431 1156 2273 1281 
Q 2116 1406 1581 1522 
L 1381 1569 
Q 847 1681 609 1914 
Q 372 2147 372 2553 
Q 372 3047 722 3315 
Q 1072 3584 1716 3584 
Q 2034 3584 2315 3537 
Q 2597 3491 2834 3397 
z
" transform="scale(0.015625)"/>
      <path id="DejaVuSans-2c" d="M 750 794 
L 1409 794 
L 1409 256 
L 897 -744 
L 494 -744 
L 750 256 
L 750 794 
z
" transform="scale(0.015625)"/>
      <path id="DejaVuSans-63" d="M 3122 3366 
L 3122 2828 
Q 2878 2963 2633 3030 
Q 2388 3097 2138 3097 
Q 1578 3097 1268 2742 
Q 959 2388 959 1747 
Q 959 1106 1268 751 
Q 1578 397 2138 397 
Q 2388 397 2633 464 
Q 2878 531 3122 666 
L 3122 134 
Q 2881 22 2623 -34 
Q 2366 -91 2075 -91 
Q 1284 -91 818 406 
Q 353 903 353 1747 
Q 353 2603 823 3093 
Q 1294 3584 2113 3584 
Q 2378 3584 2631 3529 
Q 2884 3475 3122 3366 
z
" transform="scale(0.015625)"/>
      <path id="DejaVuSans-6b" d="M 581 4863 
L 1159 4863 
L 1159 1991 
L 2875 3500 
L 3609 3500 
L 1753 1863 
L 3688 0 
L 2938 0 
L 1159 1709 
L 1159 0 
L 581 0 
L 581 4863 
z
" transform="scale(0.015625)"/>
      <path id="DejaVuSans-3f" d="M 1222 794 
L 1856 794 
L 1856 0 
L 1222 0 
L 1222 794 
z
M 1838 1253 
L 1241 1253 
L 1241 1734 
Q 1241 2050 1328 2253 
Q 1416 2456 1697 2725 
L 1978 3003 
Q 2156 3169 2236 3316 
Q 2316 3463 2316 3616 
Q 2316 3894 2111 4066 
Q 1906 4238 1569 4238 
Q 1322 4238 1042 4128 
Q 763 4019 459 3809 
L 459 4397 
Q 753 4575 1054 4662 
Q 1356 4750 1678 4750 
Q 2253 4750 2601 4447 
Q 2950 4144 2950 3647 
Q 2950 3409 2837 3195 
Q 2725 2981 2444 2713 
L 2169 2444 
Q 2022 2297 1961 2214 
Q 1900 2131 1875 2053 
Q 1856 1988 1847 1894 
Q 1838 1800 1838 1638 
L 1838 1253 
z
" transform="scale(0.015625)"/>
     </defs>
     <use xlink:href="#DejaVuSans-48"/>
     <use xlink:href="#DejaVuSans-6f" x="75.195312"/>
     <use xlink:href="#DejaVuSans-77" x="136.376953"/>
     <use xlink:href="#DejaVuSans-20" x="218.164062"/>
     <use xlink:href="#DejaVuSans-66" x="249.951172"/>
     <use xlink:href="#DejaVuSans-61" x="285.15625"/>
     <use xlink:href="#DejaVuSans-69" x="346.435547"/>
     <use xlink:href="#DejaVuSans-72" x="374.21875"/>
     <use xlink:href="#DejaVuSans-20" x="415.332031"/>
     <use xlink:href="#DejaVuSans-64" x="447.119141"/>
     <use xlink:href="#DejaVuSans-6f" x="510.595703"/>
     <use xlink:href="#DejaVuSans-20" x="571.777344"/>
     <use xlink:href="#DejaVuSans-79" x="603.564453"/>
     <use xlink:href="#DejaVuSans-6f" x="662.744141"/>
     <use xlink:href="#DejaVuSans-75" x="723.925781"/>
     <use xlink:href="#DejaVuSans-20" x="787.304688"/>
     <use xlink:href="#DejaVuSans-66" x="819.091797"/>
     <use xlink:href="#DejaVuSans-69" x="854.296875"/>
     <use xlink:href="#DejaVuSans-6e" x="882.080078"/>
     <use xlink:href="#DejaVuSans-64" x="945.458984"/>
     <use xlink:href="#DejaVuSans-20" x="1008.935547"/>
     <use xlink:href="#DejaVuSans-69" x="1040.722656"/>
     <use xlink:href="#DejaVuSans-74" x="1068.505859"/>
     <use xlink:href="#DejaVuSans-20" x="1107.714844"/>
     <use xlink:href="#DejaVuSans-74" x="1139.501953"/>
     <use xlink:href="#DejaVuSans-68" x="1178.710938"/>
     <use xlink:href="#DejaVuSans-61" x="1242.089844"/>
     <use xlink:href="#DejaVuSans-74" x="1303.369141"/>
     <use xlink:href="#DejaVuSans-20" x="1342.578125"/>
     <use xlink:href="#DejaVuSans-65" x="1374.365234"/>
     <use xlink:href="#DejaVuSans-76" x="1435.888672"/>
     <use xlink:href="#DejaVuSans-65" x="1495.068359"/>
     <use xlink:href="#DejaVuSans-72" x="1556.591797"/>
     <use xlink:href="#DejaVuSans-79" x="1597.705078"/>
     <use xlink:href="#DejaVuSans-6f" x="1656.884766"/>
     <use xlink:href="#DejaVuSans-6e" x="1718.066406"/>
     <use xlink:href="#DejaVuSans-65" x="1781.445312"/>
     <use xlink:href="#DejaVuSans-20" x="1842.96875"/>
     <use xlink:href="#DejaVuSans-70" x="1874.755859"/>
     <use xlink:href="#DejaVuSans-61" x="1938.232422"/>
     <use xlink:href="#DejaVuSans-79" x="1999.511719"/>
     <use xlink:href="#DejaVuSans-73" x="2058.691406"/>
     <use xlink:href="#DejaVuSans-20" x="2110.791016"/>
     <use xlink:href="#DejaVuSans-74" x="2142.578125"/>
     <use xlink:href="#DejaVuSans-68" x="2181.787109"/>
     <use xlink:href="#DejaVuSans-65" x="2245.166016"/>
     <use xlink:href="#DejaVuSans-20" x="2306.689453"/>
     <use xlink:href="#DejaVuSans-66" x="2338.476562"/>
     <use xlink:href="#DejaVuSans-65" x="2373.681641"/>
     <use xlink:href="#DejaVuSans-65" x="2435.205078"/>
     <use xlink:href="#DejaVuSans-2c" x="2496.728516"/>
     <use xlink:href="#DejaVuSans-20" x="2528.515625"/>
     <use xlink:href="#DejaVuSans-65" x="2560.302734"/>
     <use xlink:href="#DejaVuSans-76" x="2621.826172"/>
     <use xlink:href="#DejaVuSans-65" x="2681.005859"/>
     <use xlink:href="#DejaVuSans-6e" x="2742.529297"/>
     <use xlink:href="#DejaVuSans-20" x="2805.908203"/>
     <use xlink:href="#DejaVuSans-69" x="2837.695312"/>
     <use xlink:href="#DejaVuSans-66" x="2865.478516"/>
     <use xlink:href="#DejaVuSans-20" x="2900.683594"/>
     <use xlink:href="#DejaVuSans-74" x="2932.470703"/>
     <use xlink:href="#DejaVuSans-68" x="2971.679688"/>
     <use xlink:href="#DejaVuSans-65" x="3035.058594"/>
     <use xlink:href="#DejaVuSans-79" x="3096.582031"/>
     <use xlink:href="#DejaVuSans-20" x="3155.761719"/>
     <use xlink:href="#DejaVuSans-64" x="3187.548828"/>
     <use xlink:href="#DejaVuSans-6f" x="3251.025391"/>
     <use xlink:href="#DejaVuSans-20" x="3312.207031"/>
     <use xlink:href="#DejaVuSans-6e" x="3343.994141"/>
     <use xlink:href="#DejaVuSans-6f" x="3407.373047"/>
     <use xlink:href="#DejaVuSans-74" x="3468.554688"/>
     <use xlink:href="#DejaVuSans-20" x="3507.763672"/>
     <use xlink:href="#DejaVuSans-75" x="3539.550781"/>
     <use xlink:href="#DejaVuSans-73" x="3602.929688"/>
     <use xlink:href="#DejaVuSans-65" x="3655.029297"/>
     <use xlink:href="#DejaVuSans-20" x="3716.552734"/>
     <use xlink:href="#DejaVuSans-74" x="3748.339844"/>
     <use xlink:href="#DejaVuSans-68" x="3787.548828"/>
     <use xlink:href="#DejaVuSans-65" x="3850.927734"/>
     <use xlink:href="#DejaVuSans-20" x="3912.451172"/>
     <use xlink:href="#DejaVuSans-74" x="3944.238281"/>
     <use xlink:href="#DejaVuSans-69" x="3983.447266"/>
     <use xlink:href="#DejaVuSans-63" x="4011.230469"/>
     <use xlink:href="#DejaVuSans-6b" x="4066.210938"/>
     <use xlink:href="#DejaVuSans-65" x="4120.496094"/>
     <use xlink:href="#DejaVuSans-74" x="4182.019531"/>
     <use xlink:href="#DejaVuSans-3f" x="4221.228516"/>
    </g>
   </g>
  </g>
 </g>
</svg>
