<?xml version="1.0" encoding="utf-8" standalone="no"?>
<!DOCTYPE svg PUBLIC "-//W3C//DTD SVG 1.1//EN"
  "http://www.w3.org/Graphics/SVG/1.1/DTD/svg11.dtd">
<svg xmlns:xlink="http://www.w3.org/1999/xlink" width="720pt" height="432pt" viewBox="0 0 720 432" xmlns="http://www.w3.org/2000/svg" version="1.1">
 <metadata>
  <rdf:RDF xmlns:dc="http://purl.org/dc/elements/1.1/" xmlns:cc="http://creativecommons.org/ns#" xmlns:rdf="http://www.w3.org/1999/02/22-rdf-syntax-ns#">
   <cc:Work>
    <dc:type rdf:resource="http://purl.org/dc/dcmitype/StillImage"/>
    <dc:date>2024-07-04T10:55:09.414829</dc:date>
    <dc:format>image/svg+xml</dc:format>
    <dc:creator>
     <cc:Agent>
      <dc:title>Matplotlib v3.9.0, https://matplotlib.org/</dc:title>
     </cc:Agent>
    </dc:creator>
   </cc:Work>
  </rdf:RDF>
 </metadata>
 <defs>
  <style type="text/css">*{stroke-linejoin: round; stroke-linecap: butt}</style>
 </defs>
 <g id="figure_1">
  <g id="patch_1">
   <path d="M 0 432 
L 720 432 
L 720 0 
L 0 0 
z
" style="fill: #ffffff"/>
  </g>
  <g id="axes_1">
   <g id="patch_2">
    <path d="M 368.999958 66.96 
C 352.350115 66.96 335.814032 69.710171 320.06047 75.099289 
C 304.306909 80.488407 289.551142 88.442829 276.389931 98.640859 
L 368.999958 218.160035 
z
" style="fill: #ee6352"/>
   </g>
   <g id="patch_3">
    <path d="M 276.389935 98.640862 
C 266.116757 106.601089 256.912626 115.852723 249.005418 126.166763 
C 241.098209 136.480803 234.553694 147.771435 229.533885 159.759136 
L 368.999958 218.160035 
z
" style="fill: #e4b7e5"/>
   </g>
   <g id="patch_4">
    <path d="M 229.533885 159.759136 
C 219.453036 183.833022 215.775111 210.111881 218.859446 236.028332 
C 221.943772 261.944782 231.686527 286.62643 247.135868 307.661958 
C 262.585208 328.69749 283.221093 345.378793 307.027434 356.076159 
C 330.833774 366.773525 357.009222 371.126862 382.996498 368.710847 
L 368.999958 218.160035 
z
" style="fill: #58a4b0"/>
   </g>
   <g id="patch_5">
    <path d="M 382.996498 368.710847 
C 421.704235 365.112229 457.571216 346.720605 483.083679 317.388833 
C 508.596141 288.057058 521.838848 249.987156 520.037602 211.154251 
C 518.236365 172.321347 501.526412 135.640774 473.408263 108.79662 
C 445.290114 81.952466 407.874639 66.960009 368.999979 66.96 
L 368.999958 218.160035 
z
" style="fill: #484d6d"/>
   </g>
   <g id="matplotlib.axis_1"/>
   <g id="matplotlib.axis_2"/>
   <g id="text_1">
    <g id="patch_6">
     <path d="M 195.843404 69.046962 
L 315.166529 69.046962 
Q 317.566529 69.046962 317.566529 66.646962 
L 317.566529 54.939462 
Q 317.566529 52.539462 315.166529 52.539462 
L 195.843404 52.539462 
Q 193.443404 52.539462 193.443404 54.939462 
L 193.443404 66.646962 
Q 193.443404 69.046962 195.843404 69.046962 
z
" style="fill: #ee6352; opacity: 0.5; stroke: #ee6352; stroke-linejoin: miter"/>
    </g>
    <!-- Strongly opposed -->
    <g style="fill: #ffffff" transform="translate(195.843404 64.057587) scale(0.12 -0.12)">
     <defs>
      <path id="DejaVuSans-Bold-53" d="M 3834 4519 
L 3834 3531 
Q 3450 3703 3084 3790 
Q 2719 3878 2394 3878 
Q 1963 3878 1756 3759 
Q 1550 3641 1550 3391 
Q 1550 3203 1689 3098 
Q 1828 2994 2194 2919 
L 2706 2816 
Q 3484 2659 3812 2340 
Q 4141 2022 4141 1434 
Q 4141 663 3683 286 
Q 3225 -91 2284 -91 
Q 1841 -91 1394 -6 
Q 947 78 500 244 
L 500 1259 
Q 947 1022 1364 901 
Q 1781 781 2169 781 
Q 2563 781 2772 912 
Q 2981 1044 2981 1288 
Q 2981 1506 2839 1625 
Q 2697 1744 2272 1838 
L 1806 1941 
Q 1106 2091 782 2419 
Q 459 2747 459 3303 
Q 459 4000 909 4375 
Q 1359 4750 2203 4750 
Q 2588 4750 2994 4692 
Q 3400 4634 3834 4519 
z
" transform="scale(0.015625)"/>
      <path id="DejaVuSans-Bold-74" d="M 1759 4494 
L 1759 3500 
L 2913 3500 
L 2913 2700 
L 1759 2700 
L 1759 1216 
Q 1759 972 1856 886 
Q 1953 800 2241 800 
L 2816 800 
L 2816 0 
L 1856 0 
Q 1194 0 917 276 
Q 641 553 641 1216 
L 641 2700 
L 84 2700 
L 84 3500 
L 641 3500 
L 641 4494 
L 1759 4494 
z
" transform="scale(0.015625)"/>
      <path id="DejaVuSans-Bold-72" d="M 3138 2547 
Q 2991 2616 2845 2648 
Q 2700 2681 2553 2681 
Q 2122 2681 1889 2404 
Q 1656 2128 1656 1613 
L 1656 0 
L 538 0 
L 538 3500 
L 1656 3500 
L 1656 2925 
Q 1872 3269 2151 3426 
Q 2431 3584 2822 3584 
Q 2878 3584 2943 3579 
Q 3009 3575 3134 3559 
L 3138 2547 
z
" transform="scale(0.015625)"/>
      <path id="DejaVuSans-Bold-6f" d="M 2203 2784 
Q 1831 2784 1636 2517 
Q 1441 2250 1441 1747 
Q 1441 1244 1636 976 
Q 1831 709 2203 709 
Q 2569 709 2762 976 
Q 2956 1244 2956 1747 
Q 2956 2250 2762 2517 
Q 2569 2784 2203 2784 
z
M 2203 3584 
Q 3106 3584 3614 3096 
Q 4122 2609 4122 1747 
Q 4122 884 3614 396 
Q 3106 -91 2203 -91 
Q 1297 -91 786 396 
Q 275 884 275 1747 
Q 275 2609 786 3096 
Q 1297 3584 2203 3584 
z
" transform="scale(0.015625)"/>
      <path id="DejaVuSans-Bold-6e" d="M 4056 2131 
L 4056 0 
L 2931 0 
L 2931 347 
L 2931 1631 
Q 2931 2084 2911 2256 
Q 2891 2428 2841 2509 
Q 2775 2619 2662 2680 
Q 2550 2741 2406 2741 
Q 2056 2741 1856 2470 
Q 1656 2200 1656 1722 
L 1656 0 
L 538 0 
L 538 3500 
L 1656 3500 
L 1656 2988 
Q 1909 3294 2193 3439 
Q 2478 3584 2822 3584 
Q 3428 3584 3742 3212 
Q 4056 2841 4056 2131 
z
" transform="scale(0.015625)"/>
      <path id="DejaVuSans-Bold-67" d="M 2919 594 
Q 2688 288 2409 144 
Q 2131 0 1766 0 
Q 1125 0 706 504 
Q 288 1009 288 1791 
Q 288 2575 706 3076 
Q 1125 3578 1766 3578 
Q 2131 3578 2409 3434 
Q 2688 3291 2919 2981 
L 2919 3500 
L 4044 3500 
L 4044 353 
Q 4044 -491 3511 -936 
Q 2978 -1381 1966 -1381 
Q 1638 -1381 1331 -1331 
Q 1025 -1281 716 -1178 
L 716 -306 
Q 1009 -475 1290 -558 
Q 1572 -641 1856 -641 
Q 2406 -641 2662 -400 
Q 2919 -159 2919 353 
L 2919 594 
z
M 2181 2772 
Q 1834 2772 1640 2515 
Q 1447 2259 1447 1791 
Q 1447 1309 1634 1061 
Q 1822 813 2181 813 
Q 2531 813 2725 1069 
Q 2919 1325 2919 1791 
Q 2919 2259 2725 2515 
Q 2531 2772 2181 2772 
z
" transform="scale(0.015625)"/>
      <path id="DejaVuSans-Bold-6c" d="M 538 4863 
L 1656 4863 
L 1656 0 
L 538 0 
L 538 4863 
z
" transform="scale(0.015625)"/>
      <path id="DejaVuSans-Bold-79" d="M 78 3500 
L 1197 3500 
L 2138 1125 
L 2938 3500 
L 4056 3500 
L 2584 -331 
Q 2363 -916 2067 -1148 
Q 1772 -1381 1288 -1381 
L 641 -1381 
L 641 -647 
L 991 -647 
Q 1275 -647 1404 -556 
Q 1534 -466 1606 -231 
L 1638 -134 
L 78 3500 
z
" transform="scale(0.015625)"/>
      <path id="DejaVuSans-Bold-20" transform="scale(0.015625)"/>
      <path id="DejaVuSans-Bold-70" d="M 1656 506 
L 1656 -1331 
L 538 -1331 
L 538 3500 
L 1656 3500 
L 1656 2988 
Q 1888 3294 2169 3439 
Q 2450 3584 2816 3584 
Q 3463 3584 3878 3070 
Q 4294 2556 4294 1747 
Q 4294 938 3878 423 
Q 3463 -91 2816 -91 
Q 2450 -91 2169 54 
Q 1888 200 1656 506 
z
M 2400 2772 
Q 2041 2772 1848 2508 
Q 1656 2244 1656 1747 
Q 1656 1250 1848 986 
Q 2041 722 2400 722 
Q 2759 722 2948 984 
Q 3138 1247 3138 1747 
Q 3138 2247 2948 2509 
Q 2759 2772 2400 2772 
z
" transform="scale(0.015625)"/>
      <path id="DejaVuSans-Bold-73" d="M 3272 3391 
L 3272 2541 
Q 2913 2691 2578 2766 
Q 2244 2841 1947 2841 
Q 1628 2841 1473 2761 
Q 1319 2681 1319 2516 
Q 1319 2381 1436 2309 
Q 1553 2238 1856 2203 
L 2053 2175 
Q 2913 2066 3209 1816 
Q 3506 1566 3506 1031 
Q 3506 472 3093 190 
Q 2681 -91 1863 -91 
Q 1516 -91 1145 -36 
Q 775 19 384 128 
L 384 978 
Q 719 816 1070 734 
Q 1422 653 1784 653 
Q 2113 653 2278 743 
Q 2444 834 2444 1013 
Q 2444 1163 2330 1236 
Q 2216 1309 1875 1350 
L 1678 1375 
Q 931 1469 631 1722 
Q 331 1975 331 2491 
Q 331 3047 712 3315 
Q 1094 3584 1881 3584 
Q 2191 3584 2531 3537 
Q 2872 3491 3272 3391 
z
" transform="scale(0.015625)"/>
      <path id="DejaVuSans-Bold-65" d="M 4031 1759 
L 4031 1441 
L 1416 1441 
Q 1456 1047 1700 850 
Q 1944 653 2381 653 
Q 2734 653 3104 758 
Q 3475 863 3866 1075 
L 3866 213 
Q 3469 63 3072 -14 
Q 2675 -91 2278 -91 
Q 1328 -91 801 392 
Q 275 875 275 1747 
Q 275 2603 792 3093 
Q 1309 3584 2216 3584 
Q 3041 3584 3536 3087 
Q 4031 2591 4031 1759 
z
M 2881 2131 
Q 2881 2450 2695 2645 
Q 2509 2841 2209 2841 
Q 1884 2841 1681 2658 
Q 1478 2475 1428 2131 
L 2881 2131 
z
" transform="scale(0.015625)"/>
      <path id="DejaVuSans-Bold-64" d="M 2919 2988 
L 2919 4863 
L 4044 4863 
L 4044 0 
L 2919 0 
L 2919 506 
Q 2688 197 2409 53 
Q 2131 -91 1766 -91 
Q 1119 -91 703 423 
Q 288 938 288 1747 
Q 288 2556 703 3070 
Q 1119 3584 1766 3584 
Q 2128 3584 2408 3439 
Q 2688 3294 2919 2988 
z
M 2181 722 
Q 2541 722 2730 984 
Q 2919 1247 2919 1747 
Q 2919 2247 2730 2509 
Q 2541 2772 2181 2772 
Q 1825 2772 1636 2509 
Q 1447 2247 1447 1747 
Q 1447 1247 1636 984 
Q 1825 722 2181 722 
z
" transform="scale(0.015625)"/>
     </defs>
     <use xlink:href="#DejaVuSans-Bold-53"/>
     <use xlink:href="#DejaVuSans-Bold-74" x="72.021484"/>
     <use xlink:href="#DejaVuSans-Bold-72" x="119.824219"/>
     <use xlink:href="#DejaVuSans-Bold-6f" x="169.140625"/>
     <use xlink:href="#DejaVuSans-Bold-6e" x="237.841797"/>
     <use xlink:href="#DejaVuSans-Bold-67" x="309.033203"/>
     <use xlink:href="#DejaVuSans-Bold-6c" x="380.615234"/>
     <use xlink:href="#DejaVuSans-Bold-79" x="414.892578"/>
     <use xlink:href="#DejaVuSans-Bold-20" x="480.078125"/>
     <use xlink:href="#DejaVuSans-Bold-6f" x="514.892578"/>
     <use xlink:href="#DejaVuSans-Bold-70" x="583.59375"/>
     <use xlink:href="#DejaVuSans-Bold-70" x="655.175781"/>
     <use xlink:href="#DejaVuSans-Bold-6f" x="726.757812"/>
     <use xlink:href="#DejaVuSans-Bold-73" x="795.458984"/>
     <use xlink:href="#DejaVuSans-Bold-65" x="854.980469"/>
     <use xlink:href="#DejaVuSans-Bold-64" x="922.802734"/>
    </g>
   </g>
   <g id="text_2">
    <g id="patch_7">
     <path d="M 318.820957 140.530461 
L 360.451582 140.530461 
Q 362.851582 140.530461 362.851582 138.130461 
L 362.851582 126.516711 
Q 362.851582 124.116711 360.451582 124.116711 
L 318.820957 124.116711 
Q 316.420957 124.116711 316.420957 126.516711 
L 316.420957 138.130461 
Q 316.420957 140.530461 318.820957 140.530461 
z
" style="opacity: 0.5; stroke: #000000; stroke-linejoin: miter"/>
    </g>
    <!-- 10.5% -->
    <g style="fill: #ffffff" transform="translate(318.820957 135.634836) scale(0.12 -0.12)">
     <defs>
      <path id="DejaVuSans-Bold-31" d="M 750 831 
L 1813 831 
L 1813 3847 
L 722 3622 
L 722 4441 
L 1806 4666 
L 2950 4666 
L 2950 831 
L 4013 831 
L 4013 0 
L 750 0 
L 750 831 
z
" transform="scale(0.015625)"/>
      <path id="DejaVuSans-Bold-30" d="M 2944 2338 
Q 2944 3213 2780 3570 
Q 2616 3928 2228 3928 
Q 1841 3928 1675 3570 
Q 1509 3213 1509 2338 
Q 1509 1453 1675 1090 
Q 1841 728 2228 728 
Q 2613 728 2778 1090 
Q 2944 1453 2944 2338 
z
M 4147 2328 
Q 4147 1169 3647 539 
Q 3147 -91 2228 -91 
Q 1306 -91 806 539 
Q 306 1169 306 2328 
Q 306 3491 806 4120 
Q 1306 4750 2228 4750 
Q 3147 4750 3647 4120 
Q 4147 3491 4147 2328 
z
" transform="scale(0.015625)"/>
      <path id="DejaVuSans-Bold-2e" d="M 653 1209 
L 1778 1209 
L 1778 0 
L 653 0 
L 653 1209 
z
" transform="scale(0.015625)"/>
      <path id="DejaVuSans-Bold-35" d="M 678 4666 
L 3669 4666 
L 3669 3781 
L 1638 3781 
L 1638 3059 
Q 1775 3097 1914 3117 
Q 2053 3138 2203 3138 
Q 3056 3138 3531 2711 
Q 4006 2284 4006 1522 
Q 4006 766 3489 337 
Q 2972 -91 2053 -91 
Q 1656 -91 1267 -14 
Q 878 63 494 219 
L 494 1166 
Q 875 947 1217 837 
Q 1559 728 1863 728 
Q 2300 728 2551 942 
Q 2803 1156 2803 1522 
Q 2803 1891 2551 2103 
Q 2300 2316 1863 2316 
Q 1603 2316 1309 2248 
Q 1016 2181 678 2041 
L 678 4666 
z
" transform="scale(0.015625)"/>
      <path id="DejaVuSans-Bold-25" d="M 4959 1925 
Q 4738 1925 4616 1733 
Q 4494 1541 4494 1184 
Q 4494 825 4614 633 
Q 4734 441 4959 441 
Q 5184 441 5303 633 
Q 5422 825 5422 1184 
Q 5422 1541 5301 1733 
Q 5181 1925 4959 1925 
z
M 4959 2450 
Q 5541 2450 5875 2112 
Q 6209 1775 6209 1184 
Q 6209 594 5875 251 
Q 5541 -91 4959 -91 
Q 4378 -91 4042 251 
Q 3706 594 3706 1184 
Q 3706 1772 4042 2111 
Q 4378 2450 4959 2450 
z
M 2094 -91 
L 1403 -91 
L 4319 4750 
L 5013 4750 
L 2094 -91 
z
M 1453 4750 
Q 2034 4750 2367 4411 
Q 2700 4072 2700 3481 
Q 2700 2891 2367 2550 
Q 2034 2209 1453 2209 
Q 872 2209 539 2550 
Q 206 2891 206 3481 
Q 206 4072 539 4411 
Q 872 4750 1453 4750 
z
M 1453 4225 
Q 1228 4225 1106 4031 
Q 984 3838 984 3481 
Q 984 3122 1106 2926 
Q 1228 2731 1453 2731 
Q 1678 2731 1798 2926 
Q 1919 3122 1919 3481 
Q 1919 3838 1797 4031 
Q 1675 4225 1453 4225 
z
" transform="scale(0.015625)"/>
     </defs>
     <use xlink:href="#DejaVuSans-Bold-31"/>
     <use xlink:href="#DejaVuSans-Bold-30" x="69.580078"/>
     <use xlink:href="#DejaVuSans-Bold-2e" x="139.160156"/>
     <use xlink:href="#DejaVuSans-Bold-35" x="177.148438"/>
     <use xlink:href="#DejaVuSans-Bold-25" x="246.728516"/>
    </g>
   </g>
   <g id="text_3">
    <g id="patch_8">
     <path d="M 177.510338 125.174319 
L 237.005963 125.174319 
Q 239.405963 125.174319 239.405963 122.774319 
L 239.405963 111.160569 
Q 239.405963 108.760569 237.005963 108.760569 
L 177.510338 108.760569 
Q 175.110338 108.760569 175.110338 111.160569 
L 175.110338 122.774319 
Q 175.110338 125.174319 177.510338 125.174319 
z
" style="fill: #e4b7e5; opacity: 0.5; stroke: #e4b7e5; stroke-linejoin: miter"/>
    </g>
    <!-- Opposed -->
    <g style="fill: #ffffff" transform="translate(177.510338 120.278694) scale(0.12 -0.12)">
     <defs>
      <path id="DejaVuSans-Bold-4f" d="M 2719 3878 
Q 2169 3878 1866 3472 
Q 1563 3066 1563 2328 
Q 1563 1594 1866 1187 
Q 2169 781 2719 781 
Q 3272 781 3575 1187 
Q 3878 1594 3878 2328 
Q 3878 3066 3575 3472 
Q 3272 3878 2719 3878 
z
M 2719 4750 
Q 3844 4750 4481 4106 
Q 5119 3463 5119 2328 
Q 5119 1197 4481 553 
Q 3844 -91 2719 -91 
Q 1597 -91 958 553 
Q 319 1197 319 2328 
Q 319 3463 958 4106 
Q 1597 4750 2719 4750 
z
" transform="scale(0.015625)"/>
     </defs>
     <use xlink:href="#DejaVuSans-Bold-4f"/>
     <use xlink:href="#DejaVuSans-Bold-70" x="85.009766"/>
     <use xlink:href="#DejaVuSans-Bold-70" x="156.591797"/>
     <use xlink:href="#DejaVuSans-Bold-6f" x="228.173828"/>
     <use xlink:href="#DejaVuSans-Bold-73" x="296.875"/>
     <use xlink:href="#DejaVuSans-Bold-65" x="356.396484"/>
     <use xlink:href="#DejaVuSans-Bold-64" x="424.21875"/>
    </g>
   </g>
   <g id="text_4">
    <g id="patch_9">
     <path d="M 280.362609 171.170951 
L 313.643859 171.170951 
Q 316.043859 171.170951 316.043859 168.770951 
L 316.043859 157.157201 
Q 316.043859 154.757201 313.643859 154.757201 
L 280.362609 154.757201 
Q 277.962609 154.757201 277.962609 157.157201 
L 277.962609 168.770951 
Q 277.962609 171.170951 280.362609 171.170951 
z
" style="opacity: 0.5; stroke: #000000; stroke-linejoin: miter"/>
    </g>
    <!-- 8.2% -->
    <g style="fill: #ffffff" transform="translate(280.362609 166.275326) scale(0.12 -0.12)">
     <defs>
      <path id="DejaVuSans-Bold-38" d="M 2228 2088 
Q 1891 2088 1709 1903 
Q 1528 1719 1528 1375 
Q 1528 1031 1709 848 
Q 1891 666 2228 666 
Q 2563 666 2741 848 
Q 2919 1031 2919 1375 
Q 2919 1722 2741 1905 
Q 2563 2088 2228 2088 
z
M 1350 2484 
Q 925 2613 709 2878 
Q 494 3144 494 3541 
Q 494 4131 934 4440 
Q 1375 4750 2228 4750 
Q 3075 4750 3515 4442 
Q 3956 4134 3956 3541 
Q 3956 3144 3739 2878 
Q 3522 2613 3097 2484 
Q 3572 2353 3814 2058 
Q 4056 1763 4056 1313 
Q 4056 619 3595 264 
Q 3134 -91 2228 -91 
Q 1319 -91 855 264 
Q 391 619 391 1313 
Q 391 1763 633 2058 
Q 875 2353 1350 2484 
z
M 1631 3419 
Q 1631 3141 1786 2991 
Q 1941 2841 2228 2841 
Q 2509 2841 2662 2991 
Q 2816 3141 2816 3419 
Q 2816 3697 2662 3845 
Q 2509 3994 2228 3994 
Q 1941 3994 1786 3844 
Q 1631 3694 1631 3419 
z
" transform="scale(0.015625)"/>
      <path id="DejaVuSans-Bold-32" d="M 1844 884 
L 3897 884 
L 3897 0 
L 506 0 
L 506 884 
L 2209 2388 
Q 2438 2594 2547 2791 
Q 2656 2988 2656 3200 
Q 2656 3528 2436 3728 
Q 2216 3928 1850 3928 
Q 1569 3928 1234 3808 
Q 900 3688 519 3450 
L 519 4475 
Q 925 4609 1322 4679 
Q 1719 4750 2100 4750 
Q 2938 4750 3402 4381 
Q 3866 4013 3866 3353 
Q 3866 2972 3669 2642 
Q 3472 2313 2841 1759 
L 1844 884 
z
" transform="scale(0.015625)"/>
     </defs>
     <use xlink:href="#DejaVuSans-Bold-38"/>
     <use xlink:href="#DejaVuSans-Bold-2e" x="69.580078"/>
     <use xlink:href="#DejaVuSans-Bold-32" x="107.568359"/>
     <use xlink:href="#DejaVuSans-Bold-25" x="177.148438"/>
    </g>
   </g>
   <g id="text_5">
    <g id="patch_10">
     <path d="M 160.613238 324.819062 
L 234.949488 324.819062 
Q 237.349488 324.819062 237.349488 322.419062 
L 237.349488 310.805312 
Q 237.349488 308.405312 234.949488 308.405312 
L 160.613238 308.405312 
Q 158.213238 308.405312 158.213238 310.805312 
L 158.213238 322.419062 
Q 158.213238 324.819062 160.613238 324.819062 
z
" style="fill: #58a4b0; opacity: 0.5; stroke: #58a4b0; stroke-linejoin: miter"/>
    </g>
    <!-- Supportive -->
    <g style="fill: #ffffff" transform="translate(160.613238 319.923437) scale(0.12 -0.12)">
     <defs>
      <path id="DejaVuSans-Bold-75" d="M 500 1363 
L 500 3500 
L 1625 3500 
L 1625 3150 
Q 1625 2866 1622 2436 
Q 1619 2006 1619 1863 
Q 1619 1441 1641 1255 
Q 1663 1069 1716 984 
Q 1784 875 1895 815 
Q 2006 756 2150 756 
Q 2500 756 2700 1025 
Q 2900 1294 2900 1772 
L 2900 3500 
L 4019 3500 
L 4019 0 
L 2900 0 
L 2900 506 
Q 2647 200 2364 54 
Q 2081 -91 1741 -91 
Q 1134 -91 817 281 
Q 500 653 500 1363 
z
" transform="scale(0.015625)"/>
      <path id="DejaVuSans-Bold-69" d="M 538 3500 
L 1656 3500 
L 1656 0 
L 538 0 
L 538 3500 
z
M 538 4863 
L 1656 4863 
L 1656 3950 
L 538 3950 
L 538 4863 
z
" transform="scale(0.015625)"/>
      <path id="DejaVuSans-Bold-76" d="M 97 3500 
L 1216 3500 
L 2088 1081 
L 2956 3500 
L 4078 3500 
L 2700 0 
L 1472 0 
L 97 3500 
z
" transform="scale(0.015625)"/>
     </defs>
     <use xlink:href="#DejaVuSans-Bold-53"/>
     <use xlink:href="#DejaVuSans-Bold-75" x="72.021484"/>
     <use xlink:href="#DejaVuSans-Bold-70" x="143.212891"/>
     <use xlink:href="#DejaVuSans-Bold-70" x="214.794922"/>
     <use xlink:href="#DejaVuSans-Bold-6f" x="286.376953"/>
     <use xlink:href="#DejaVuSans-Bold-72" x="355.078125"/>
     <use xlink:href="#DejaVuSans-Bold-74" x="404.394531"/>
     <use xlink:href="#DejaVuSans-Bold-69" x="452.197266"/>
     <use xlink:href="#DejaVuSans-Bold-76" x="486.474609"/>
     <use xlink:href="#DejaVuSans-Bold-65" x="551.660156"/>
    </g>
   </g>
   <g id="text_6">
    <g id="patch_11">
     <path d="M 275.066207 280.068084 
L 316.696832 280.068084 
Q 319.096832 280.068084 319.096832 277.668084 
L 319.096832 266.054334 
Q 319.096832 263.654334 316.696832 263.654334 
L 275.066207 263.654334 
Q 272.666207 263.654334 272.666207 266.054334 
L 272.666207 277.668084 
Q 272.666207 280.068084 275.066207 280.068084 
z
" style="opacity: 0.5; stroke: #000000; stroke-linejoin: miter"/>
    </g>
    <!-- 32.8% -->
    <g style="fill: #ffffff" transform="translate(275.066207 275.172459) scale(0.12 -0.12)">
     <defs>
      <path id="DejaVuSans-Bold-33" d="M 2981 2516 
Q 3453 2394 3698 2092 
Q 3944 1791 3944 1325 
Q 3944 631 3412 270 
Q 2881 -91 1863 -91 
Q 1503 -91 1142 -33 
Q 781 25 428 141 
L 428 1069 
Q 766 900 1098 814 
Q 1431 728 1753 728 
Q 2231 728 2486 893 
Q 2741 1059 2741 1369 
Q 2741 1688 2480 1852 
Q 2219 2016 1709 2016 
L 1228 2016 
L 1228 2791 
L 1734 2791 
Q 2188 2791 2409 2933 
Q 2631 3075 2631 3366 
Q 2631 3634 2415 3781 
Q 2200 3928 1806 3928 
Q 1516 3928 1219 3862 
Q 922 3797 628 3669 
L 628 4550 
Q 984 4650 1334 4700 
Q 1684 4750 2022 4750 
Q 2931 4750 3382 4451 
Q 3834 4153 3834 3553 
Q 3834 3144 3618 2883 
Q 3403 2622 2981 2516 
z
" transform="scale(0.015625)"/>
     </defs>
     <use xlink:href="#DejaVuSans-Bold-33"/>
     <use xlink:href="#DejaVuSans-Bold-32" x="69.580078"/>
     <use xlink:href="#DejaVuSans-Bold-2e" x="139.160156"/>
     <use xlink:href="#DejaVuSans-Bold-38" x="177.148438"/>
     <use xlink:href="#DejaVuSans-Bold-25" x="246.728516"/>
    </g>
   </g>
   <g id="text_7">
    <g id="patch_12">
     <path d="M 535.141362 218.707344 
L 642.661362 218.707344 
Q 645.061362 218.707344 645.061362 216.307344 
L 645.061362 204.599844 
Q 645.061362 202.199844 642.661362 202.199844 
L 535.141362 202.199844 
Q 532.741362 202.199844 532.741362 204.599844 
L 532.741362 216.307344 
Q 532.741362 218.707344 535.141362 218.707344 
z
" style="fill: #484d6d; opacity: 0.5; stroke: #484d6d; stroke-linejoin: miter"/>
    </g>
    <!-- Very supportive -->
    <g style="fill: #ffffff" transform="translate(535.141362 213.717969) scale(0.12 -0.12)">
     <defs>
      <path id="DejaVuSans-Bold-56" d="M 31 4666 
L 1241 4666 
L 2478 1222 
L 3713 4666 
L 4922 4666 
L 3194 0 
L 1759 0 
L 31 4666 
z
" transform="scale(0.015625)"/>
     </defs>
     <use xlink:href="#DejaVuSans-Bold-56"/>
     <use xlink:href="#DejaVuSans-Bold-65" x="71.892578"/>
     <use xlink:href="#DejaVuSans-Bold-72" x="139.714844"/>
     <use xlink:href="#DejaVuSans-Bold-79" x="189.03125"/>
     <use xlink:href="#DejaVuSans-Bold-20" x="254.216797"/>
     <use xlink:href="#DejaVuSans-Bold-73" x="289.03125"/>
     <use xlink:href="#DejaVuSans-Bold-75" x="348.552734"/>
     <use xlink:href="#DejaVuSans-Bold-70" x="419.744141"/>
     <use xlink:href="#DejaVuSans-Bold-70" x="491.326172"/>
     <use xlink:href="#DejaVuSans-Bold-6f" x="562.908203"/>
     <use xlink:href="#DejaVuSans-Bold-72" x="631.609375"/>
     <use xlink:href="#DejaVuSans-Bold-74" x="680.925781"/>
     <use xlink:href="#DejaVuSans-Bold-69" x="728.728516"/>
     <use xlink:href="#DejaVuSans-Bold-76" x="763.005859"/>
     <use xlink:href="#DejaVuSans-Bold-65" x="828.191406"/>
    </g>
   </g>
   <g id="text_8">
    <g id="patch_13">
     <path d="M 438.807229 222.163396 
L 480.437854 222.163396 
Q 482.837854 222.163396 482.837854 219.763396 
L 482.837854 208.149646 
Q 482.837854 205.749646 480.437854 205.749646 
L 438.807229 205.749646 
Q 436.407229 205.749646 436.407229 208.149646 
L 436.407229 219.763396 
Q 436.407229 222.163396 438.807229 222.163396 
z
" style="opacity: 0.5; stroke: #000000; stroke-linejoin: miter"/>
    </g>
    <!-- 48.5% -->
    <g style="fill: #ffffff" transform="translate(438.807229 217.267771) scale(0.12 -0.12)">
     <defs>
      <path id="DejaVuSans-Bold-34" d="M 2356 3675 
L 1038 1722 
L 2356 1722 
L 2356 3675 
z
M 2156 4666 
L 3494 4666 
L 3494 1722 
L 4159 1722 
L 4159 850 
L 3494 850 
L 3494 0 
L 2356 0 
L 2356 850 
L 288 850 
L 288 1881 
L 2156 4666 
z
" transform="scale(0.015625)"/>
     </defs>
     <use xlink:href="#DejaVuSans-Bold-34"/>
     <use xlink:href="#DejaVuSans-Bold-38" x="69.580078"/>
     <use xlink:href="#DejaVuSans-Bold-2e" x="139.160156"/>
     <use xlink:href="#DejaVuSans-Bold-35" x="177.148438"/>
     <use xlink:href="#DejaVuSans-Bold-25" x="246.728516"/>
    </g>
   </g>
   <g id="text_9">
    <!-- What is your opinion on the introduction of the Deutschlandticket under the full solidarity model at  -->
    <g transform="translate(69.871875 32.402625) scale(0.12 -0.12)">
     <defs>
      <path id="DejaVuSans-57" d="M 213 4666 
L 850 4666 
L 1831 722 
L 2809 4666 
L 3519 4666 
L 4500 722 
L 5478 4666 
L 6119 4666 
L 4947 0 
L 4153 0 
L 3169 4050 
L 2175 0 
L 1381 0 
L 213 4666 
z
" transform="scale(0.015625)"/>
      <path id="DejaVuSans-68" d="M 3513 2113 
L 3513 0 
L 2938 0 
L 2938 2094 
Q 2938 2591 2744 2837 
Q 2550 3084 2163 3084 
Q 1697 3084 1428 2787 
Q 1159 2491 1159 1978 
L 1159 0 
L 581 0 
L 581 4863 
L 1159 4863 
L 1159 2956 
Q 1366 3272 1645 3428 
Q 1925 3584 2291 3584 
Q 2894 3584 3203 3211 
Q 3513 2838 3513 2113 
z
" transform="scale(0.015625)"/>
      <path id="DejaVuSans-61" d="M 2194 1759 
Q 1497 1759 1228 1600 
Q 959 1441 959 1056 
Q 959 750 1161 570 
Q 1363 391 1709 391 
Q 2188 391 2477 730 
Q 2766 1069 2766 1631 
L 2766 1759 
L 2194 1759 
z
M 3341 1997 
L 3341 0 
L 2766 0 
L 2766 531 
Q 2569 213 2275 61 
Q 1981 -91 1556 -91 
Q 1019 -91 701 211 
Q 384 513 384 1019 
Q 384 1609 779 1909 
Q 1175 2209 1959 2209 
L 2766 2209 
L 2766 2266 
Q 2766 2663 2505 2880 
Q 2244 3097 1772 3097 
Q 1472 3097 1187 3025 
Q 903 2953 641 2809 
L 641 3341 
Q 956 3463 1253 3523 
Q 1550 3584 1831 3584 
Q 2591 3584 2966 3190 
Q 3341 2797 3341 1997 
z
" transform="scale(0.015625)"/>
      <path id="DejaVuSans-74" d="M 1172 4494 
L 1172 3500 
L 2356 3500 
L 2356 3053 
L 1172 3053 
L 1172 1153 
Q 1172 725 1289 603 
Q 1406 481 1766 481 
L 2356 481 
L 2356 0 
L 1766 0 
Q 1100 0 847 248 
Q 594 497 594 1153 
L 594 3053 
L 172 3053 
L 172 3500 
L 594 3500 
L 594 4494 
L 1172 4494 
z
" transform="scale(0.015625)"/>
      <path id="DejaVuSans-20" transform="scale(0.015625)"/>
      <path id="DejaVuSans-69" d="M 603 3500 
L 1178 3500 
L 1178 0 
L 603 0 
L 603 3500 
z
M 603 4863 
L 1178 4863 
L 1178 4134 
L 603 4134 
L 603 4863 
z
" transform="scale(0.015625)"/>
      <path id="DejaVuSans-73" d="M 2834 3397 
L 2834 2853 
Q 2591 2978 2328 3040 
Q 2066 3103 1784 3103 
Q 1356 3103 1142 2972 
Q 928 2841 928 2578 
Q 928 2378 1081 2264 
Q 1234 2150 1697 2047 
L 1894 2003 
Q 2506 1872 2764 1633 
Q 3022 1394 3022 966 
Q 3022 478 2636 193 
Q 2250 -91 1575 -91 
Q 1294 -91 989 -36 
Q 684 19 347 128 
L 347 722 
Q 666 556 975 473 
Q 1284 391 1588 391 
Q 1994 391 2212 530 
Q 2431 669 2431 922 
Q 2431 1156 2273 1281 
Q 2116 1406 1581 1522 
L 1381 1569 
Q 847 1681 609 1914 
Q 372 2147 372 2553 
Q 372 3047 722 3315 
Q 1072 3584 1716 3584 
Q 2034 3584 2315 3537 
Q 2597 3491 2834 3397 
z
" transform="scale(0.015625)"/>
      <path id="DejaVuSans-79" d="M 2059 -325 
Q 1816 -950 1584 -1140 
Q 1353 -1331 966 -1331 
L 506 -1331 
L 506 -850 
L 844 -850 
Q 1081 -850 1212 -737 
Q 1344 -625 1503 -206 
L 1606 56 
L 191 3500 
L 800 3500 
L 1894 763 
L 2988 3500 
L 3597 3500 
L 2059 -325 
z
" transform="scale(0.015625)"/>
      <path id="DejaVuSans-6f" d="M 1959 3097 
Q 1497 3097 1228 2736 
Q 959 2375 959 1747 
Q 959 1119 1226 758 
Q 1494 397 1959 397 
Q 2419 397 2687 759 
Q 2956 1122 2956 1747 
Q 2956 2369 2687 2733 
Q 2419 3097 1959 3097 
z
M 1959 3584 
Q 2709 3584 3137 3096 
Q 3566 2609 3566 1747 
Q 3566 888 3137 398 
Q 2709 -91 1959 -91 
Q 1206 -91 779 398 
Q 353 888 353 1747 
Q 353 2609 779 3096 
Q 1206 3584 1959 3584 
z
" transform="scale(0.015625)"/>
      <path id="DejaVuSans-75" d="M 544 1381 
L 544 3500 
L 1119 3500 
L 1119 1403 
Q 1119 906 1312 657 
Q 1506 409 1894 409 
Q 2359 409 2629 706 
Q 2900 1003 2900 1516 
L 2900 3500 
L 3475 3500 
L 3475 0 
L 2900 0 
L 2900 538 
Q 2691 219 2414 64 
Q 2138 -91 1772 -91 
Q 1169 -91 856 284 
Q 544 659 544 1381 
z
M 1991 3584 
L 1991 3584 
z
" transform="scale(0.015625)"/>
      <path id="DejaVuSans-72" d="M 2631 2963 
Q 2534 3019 2420 3045 
Q 2306 3072 2169 3072 
Q 1681 3072 1420 2755 
Q 1159 2438 1159 1844 
L 1159 0 
L 581 0 
L 581 3500 
L 1159 3500 
L 1159 2956 
Q 1341 3275 1631 3429 
Q 1922 3584 2338 3584 
Q 2397 3584 2469 3576 
Q 2541 3569 2628 3553 
L 2631 2963 
z
" transform="scale(0.015625)"/>
      <path id="DejaVuSans-70" d="M 1159 525 
L 1159 -1331 
L 581 -1331 
L 581 3500 
L 1159 3500 
L 1159 2969 
Q 1341 3281 1617 3432 
Q 1894 3584 2278 3584 
Q 2916 3584 3314 3078 
Q 3713 2572 3713 1747 
Q 3713 922 3314 415 
Q 2916 -91 2278 -91 
Q 1894 -91 1617 61 
Q 1341 213 1159 525 
z
M 3116 1747 
Q 3116 2381 2855 2742 
Q 2594 3103 2138 3103 
Q 1681 3103 1420 2742 
Q 1159 2381 1159 1747 
Q 1159 1113 1420 752 
Q 1681 391 2138 391 
Q 2594 391 2855 752 
Q 3116 1113 3116 1747 
z
" transform="scale(0.015625)"/>
      <path id="DejaVuSans-6e" d="M 3513 2113 
L 3513 0 
L 2938 0 
L 2938 2094 
Q 2938 2591 2744 2837 
Q 2550 3084 2163 3084 
Q 1697 3084 1428 2787 
Q 1159 2491 1159 1978 
L 1159 0 
L 581 0 
L 581 3500 
L 1159 3500 
L 1159 2956 
Q 1366 3272 1645 3428 
Q 1925 3584 2291 3584 
Q 2894 3584 3203 3211 
Q 3513 2838 3513 2113 
z
" transform="scale(0.015625)"/>
      <path id="DejaVuSans-65" d="M 3597 1894 
L 3597 1613 
L 953 1613 
Q 991 1019 1311 708 
Q 1631 397 2203 397 
Q 2534 397 2845 478 
Q 3156 559 3463 722 
L 3463 178 
Q 3153 47 2828 -22 
Q 2503 -91 2169 -91 
Q 1331 -91 842 396 
Q 353 884 353 1716 
Q 353 2575 817 3079 
Q 1281 3584 2069 3584 
Q 2775 3584 3186 3129 
Q 3597 2675 3597 1894 
z
M 3022 2063 
Q 3016 2534 2758 2815 
Q 2500 3097 2075 3097 
Q 1594 3097 1305 2825 
Q 1016 2553 972 2059 
L 3022 2063 
z
" transform="scale(0.015625)"/>
      <path id="DejaVuSans-64" d="M 2906 2969 
L 2906 4863 
L 3481 4863 
L 3481 0 
L 2906 0 
L 2906 525 
Q 2725 213 2448 61 
Q 2172 -91 1784 -91 
Q 1150 -91 751 415 
Q 353 922 353 1747 
Q 353 2572 751 3078 
Q 1150 3584 1784 3584 
Q 2172 3584 2448 3432 
Q 2725 3281 2906 2969 
z
M 947 1747 
Q 947 1113 1208 752 
Q 1469 391 1925 391 
Q 2381 391 2643 752 
Q 2906 1113 2906 1747 
Q 2906 2381 2643 2742 
Q 2381 3103 1925 3103 
Q 1469 3103 1208 2742 
Q 947 2381 947 1747 
z
" transform="scale(0.015625)"/>
      <path id="DejaVuSans-63" d="M 3122 3366 
L 3122 2828 
Q 2878 2963 2633 3030 
Q 2388 3097 2138 3097 
Q 1578 3097 1268 2742 
Q 959 2388 959 1747 
Q 959 1106 1268 751 
Q 1578 397 2138 397 
Q 2388 397 2633 464 
Q 2878 531 3122 666 
L 3122 134 
Q 2881 22 2623 -34 
Q 2366 -91 2075 -91 
Q 1284 -91 818 406 
Q 353 903 353 1747 
Q 353 2603 823 3093 
Q 1294 3584 2113 3584 
Q 2378 3584 2631 3529 
Q 2884 3475 3122 3366 
z
" transform="scale(0.015625)"/>
      <path id="DejaVuSans-66" d="M 2375 4863 
L 2375 4384 
L 1825 4384 
Q 1516 4384 1395 4259 
Q 1275 4134 1275 3809 
L 1275 3500 
L 2222 3500 
L 2222 3053 
L 1275 3053 
L 1275 0 
L 697 0 
L 697 3053 
L 147 3053 
L 147 3500 
L 697 3500 
L 697 3744 
Q 697 4328 969 4595 
Q 1241 4863 1831 4863 
L 2375 4863 
z
" transform="scale(0.015625)"/>
      <path id="DejaVuSans-44" d="M 1259 4147 
L 1259 519 
L 2022 519 
Q 2988 519 3436 956 
Q 3884 1394 3884 2338 
Q 3884 3275 3436 3711 
Q 2988 4147 2022 4147 
L 1259 4147 
z
M 628 4666 
L 1925 4666 
Q 3281 4666 3915 4102 
Q 4550 3538 4550 2338 
Q 4550 1131 3912 565 
Q 3275 0 1925 0 
L 628 0 
L 628 4666 
z
" transform="scale(0.015625)"/>
      <path id="DejaVuSans-6c" d="M 603 4863 
L 1178 4863 
L 1178 0 
L 603 0 
L 603 4863 
z
" transform="scale(0.015625)"/>
      <path id="DejaVuSans-6b" d="M 581 4863 
L 1159 4863 
L 1159 1991 
L 2875 3500 
L 3609 3500 
L 1753 1863 
L 3688 0 
L 2938 0 
L 1159 1709 
L 1159 0 
L 581 0 
L 581 4863 
z
" transform="scale(0.015625)"/>
      <path id="DejaVuSans-6d" d="M 3328 2828 
Q 3544 3216 3844 3400 
Q 4144 3584 4550 3584 
Q 5097 3584 5394 3201 
Q 5691 2819 5691 2113 
L 5691 0 
L 5113 0 
L 5113 2094 
Q 5113 2597 4934 2840 
Q 4756 3084 4391 3084 
Q 3944 3084 3684 2787 
Q 3425 2491 3425 1978 
L 3425 0 
L 2847 0 
L 2847 2094 
Q 2847 2600 2669 2842 
Q 2491 3084 2119 3084 
Q 1678 3084 1418 2786 
Q 1159 2488 1159 1978 
L 1159 0 
L 581 0 
L 581 3500 
L 1159 3500 
L 1159 2956 
Q 1356 3278 1631 3431 
Q 1906 3584 2284 3584 
Q 2666 3584 2933 3390 
Q 3200 3197 3328 2828 
z
" transform="scale(0.015625)"/>
     </defs>
     <use xlink:href="#DejaVuSans-57"/>
     <use xlink:href="#DejaVuSans-68" x="98.876953"/>
     <use xlink:href="#DejaVuSans-61" x="162.255859"/>
     <use xlink:href="#DejaVuSans-74" x="223.535156"/>
     <use xlink:href="#DejaVuSans-20" x="262.744141"/>
     <use xlink:href="#DejaVuSans-69" x="294.53125"/>
     <use xlink:href="#DejaVuSans-73" x="322.314453"/>
     <use xlink:href="#DejaVuSans-20" x="374.414062"/>
     <use xlink:href="#DejaVuSans-79" x="406.201172"/>
     <use xlink:href="#DejaVuSans-6f" x="465.380859"/>
     <use xlink:href="#DejaVuSans-75" x="526.5625"/>
     <use xlink:href="#DejaVuSans-72" x="589.941406"/>
     <use xlink:href="#DejaVuSans-20" x="631.054688"/>
     <use xlink:href="#DejaVuSans-6f" x="662.841797"/>
     <use xlink:href="#DejaVuSans-70" x="724.023438"/>
     <use xlink:href="#DejaVuSans-69" x="787.5"/>
     <use xlink:href="#DejaVuSans-6e" x="815.283203"/>
     <use xlink:href="#DejaVuSans-69" x="878.662109"/>
     <use xlink:href="#DejaVuSans-6f" x="906.445312"/>
     <use xlink:href="#DejaVuSans-6e" x="967.626953"/>
     <use xlink:href="#DejaVuSans-20" x="1031.005859"/>
     <use xlink:href="#DejaVuSans-6f" x="1062.792969"/>
     <use xlink:href="#DejaVuSans-6e" x="1123.974609"/>
     <use xlink:href="#DejaVuSans-20" x="1187.353516"/>
     <use xlink:href="#DejaVuSans-74" x="1219.140625"/>
     <use xlink:href="#DejaVuSans-68" x="1258.349609"/>
     <use xlink:href="#DejaVuSans-65" x="1321.728516"/>
     <use xlink:href="#DejaVuSans-20" x="1383.251953"/>
     <use xlink:href="#DejaVuSans-69" x="1415.039062"/>
     <use xlink:href="#DejaVuSans-6e" x="1442.822266"/>
     <use xlink:href="#DejaVuSans-74" x="1506.201172"/>
     <use xlink:href="#DejaVuSans-72" x="1545.410156"/>
     <use xlink:href="#DejaVuSans-6f" x="1584.273438"/>
     <use xlink:href="#DejaVuSans-64" x="1645.455078"/>
     <use xlink:href="#DejaVuSans-75" x="1708.931641"/>
     <use xlink:href="#DejaVuSans-63" x="1772.310547"/>
     <use xlink:href="#DejaVuSans-74" x="1827.291016"/>
     <use xlink:href="#DejaVuSans-69" x="1866.5"/>
     <use xlink:href="#DejaVuSans-6f" x="1894.283203"/>
     <use xlink:href="#DejaVuSans-6e" x="1955.464844"/>
     <use xlink:href="#DejaVuSans-20" x="2018.84375"/>
     <use xlink:href="#DejaVuSans-6f" x="2050.630859"/>
     <use xlink:href="#DejaVuSans-66" x="2111.8125"/>
     <use xlink:href="#DejaVuSans-20" x="2147.017578"/>
     <use xlink:href="#DejaVuSans-74" x="2178.804688"/>
     <use xlink:href="#DejaVuSans-68" x="2218.013672"/>
     <use xlink:href="#DejaVuSans-65" x="2281.392578"/>
     <use xlink:href="#DejaVuSans-20" x="2342.916016"/>
     <use xlink:href="#DejaVuSans-44" x="2374.703125"/>
     <use xlink:href="#DejaVuSans-65" x="2451.705078"/>
     <use xlink:href="#DejaVuSans-75" x="2513.228516"/>
     <use xlink:href="#DejaVuSans-74" x="2576.607422"/>
     <use xlink:href="#DejaVuSans-73" x="2615.816406"/>
     <use xlink:href="#DejaVuSans-63" x="2667.916016"/>
     <use xlink:href="#DejaVuSans-68" x="2722.896484"/>
     <use xlink:href="#DejaVuSans-6c" x="2786.275391"/>
     <use xlink:href="#DejaVuSans-61" x="2814.058594"/>
     <use xlink:href="#DejaVuSans-6e" x="2875.337891"/>
     <use xlink:href="#DejaVuSans-64" x="2938.716797"/>
     <use xlink:href="#DejaVuSans-74" x="3002.193359"/>
     <use xlink:href="#DejaVuSans-69" x="3041.402344"/>
     <use xlink:href="#DejaVuSans-63" x="3069.185547"/>
     <use xlink:href="#DejaVuSans-6b" x="3124.166016"/>
     <use xlink:href="#DejaVuSans-65" x="3178.451172"/>
     <use xlink:href="#DejaVuSans-74" x="3239.974609"/>
     <use xlink:href="#DejaVuSans-20" x="3279.183594"/>
     <use xlink:href="#DejaVuSans-75" x="3310.970703"/>
     <use xlink:href="#DejaVuSans-6e" x="3374.349609"/>
     <use xlink:href="#DejaVuSans-64" x="3437.728516"/>
     <use xlink:href="#DejaVuSans-65" x="3501.205078"/>
     <use xlink:href="#DejaVuSans-72" x="3562.728516"/>
     <use xlink:href="#DejaVuSans-20" x="3603.841797"/>
     <use xlink:href="#DejaVuSans-74" x="3635.628906"/>
     <use xlink:href="#DejaVuSans-68" x="3674.837891"/>
     <use xlink:href="#DejaVuSans-65" x="3738.216797"/>
     <use xlink:href="#DejaVuSans-20" x="3799.740234"/>
     <use xlink:href="#DejaVuSans-66" x="3831.527344"/>
     <use xlink:href="#DejaVuSans-75" x="3866.732422"/>
     <use xlink:href="#DejaVuSans-6c" x="3930.111328"/>
     <use xlink:href="#DejaVuSans-6c" x="3957.894531"/>
     <use xlink:href="#DejaVuSans-20" x="3985.677734"/>
     <use xlink:href="#DejaVuSans-73" x="4017.464844"/>
     <use xlink:href="#DejaVuSans-6f" x="4069.564453"/>
     <use xlink:href="#DejaVuSans-6c" x="4130.746094"/>
     <use xlink:href="#DejaVuSans-69" x="4158.529297"/>
     <use xlink:href="#DejaVuSans-64" x="4186.3125"/>
     <use xlink:href="#DejaVuSans-61" x="4249.789062"/>
     <use xlink:href="#DejaVuSans-72" x="4311.068359"/>
     <use xlink:href="#DejaVuSans-69" x="4352.181641"/>
     <use xlink:href="#DejaVuSans-74" x="4379.964844"/>
     <use xlink:href="#DejaVuSans-79" x="4419.173828"/>
     <use xlink:href="#DejaVuSans-20" x="4478.353516"/>
     <use xlink:href="#DejaVuSans-6d" x="4510.140625"/>
     <use xlink:href="#DejaVuSans-6f" x="4607.552734"/>
     <use xlink:href="#DejaVuSans-64" x="4668.734375"/>
     <use xlink:href="#DejaVuSans-65" x="4732.210938"/>
     <use xlink:href="#DejaVuSans-6c" x="4793.734375"/>
     <use xlink:href="#DejaVuSans-20" x="4821.517578"/>
     <use xlink:href="#DejaVuSans-61" x="4853.304688"/>
     <use xlink:href="#DejaVuSans-74" x="4914.583984"/>
     <use xlink:href="#DejaVuSans-20" x="4953.792969"/>
    </g>
    <!-- Reutlingen University? -->
    <g transform="translate(301.456875 45.84) scale(0.12 -0.12)">
     <defs>
      <path id="DejaVuSans-52" d="M 2841 2188 
Q 3044 2119 3236 1894 
Q 3428 1669 3622 1275 
L 4263 0 
L 3584 0 
L 2988 1197 
Q 2756 1666 2539 1819 
Q 2322 1972 1947 1972 
L 1259 1972 
L 1259 0 
L 628 0 
L 628 4666 
L 2053 4666 
Q 2853 4666 3247 4331 
Q 3641 3997 3641 3322 
Q 3641 2881 3436 2590 
Q 3231 2300 2841 2188 
z
M 1259 4147 
L 1259 2491 
L 2053 2491 
Q 2509 2491 2742 2702 
Q 2975 2913 2975 3322 
Q 2975 3731 2742 3939 
Q 2509 4147 2053 4147 
L 1259 4147 
z
" transform="scale(0.015625)"/>
      <path id="DejaVuSans-67" d="M 2906 1791 
Q 2906 2416 2648 2759 
Q 2391 3103 1925 3103 
Q 1463 3103 1205 2759 
Q 947 2416 947 1791 
Q 947 1169 1205 825 
Q 1463 481 1925 481 
Q 2391 481 2648 825 
Q 2906 1169 2906 1791 
z
M 3481 434 
Q 3481 -459 3084 -895 
Q 2688 -1331 1869 -1331 
Q 1566 -1331 1297 -1286 
Q 1028 -1241 775 -1147 
L 775 -588 
Q 1028 -725 1275 -790 
Q 1522 -856 1778 -856 
Q 2344 -856 2625 -561 
Q 2906 -266 2906 331 
L 2906 616 
Q 2728 306 2450 153 
Q 2172 0 1784 0 
Q 1141 0 747 490 
Q 353 981 353 1791 
Q 353 2603 747 3093 
Q 1141 3584 1784 3584 
Q 2172 3584 2450 3431 
Q 2728 3278 2906 2969 
L 2906 3500 
L 3481 3500 
L 3481 434 
z
" transform="scale(0.015625)"/>
      <path id="DejaVuSans-55" d="M 556 4666 
L 1191 4666 
L 1191 1831 
Q 1191 1081 1462 751 
Q 1734 422 2344 422 
Q 2950 422 3222 751 
Q 3494 1081 3494 1831 
L 3494 4666 
L 4128 4666 
L 4128 1753 
Q 4128 841 3676 375 
Q 3225 -91 2344 -91 
Q 1459 -91 1007 375 
Q 556 841 556 1753 
L 556 4666 
z
" transform="scale(0.015625)"/>
      <path id="DejaVuSans-76" d="M 191 3500 
L 800 3500 
L 1894 563 
L 2988 3500 
L 3597 3500 
L 2284 0 
L 1503 0 
L 191 3500 
z
" transform="scale(0.015625)"/>
      <path id="DejaVuSans-3f" d="M 1222 794 
L 1856 794 
L 1856 0 
L 1222 0 
L 1222 794 
z
M 1838 1253 
L 1241 1253 
L 1241 1734 
Q 1241 2050 1328 2253 
Q 1416 2456 1697 2725 
L 1978 3003 
Q 2156 3169 2236 3316 
Q 2316 3463 2316 3616 
Q 2316 3894 2111 4066 
Q 1906 4238 1569 4238 
Q 1322 4238 1042 4128 
Q 763 4019 459 3809 
L 459 4397 
Q 753 4575 1054 4662 
Q 1356 4750 1678 4750 
Q 2253 4750 2601 4447 
Q 2950 4144 2950 3647 
Q 2950 3409 2837 3195 
Q 2725 2981 2444 2713 
L 2169 2444 
Q 2022 2297 1961 2214 
Q 1900 2131 1875 2053 
Q 1856 1988 1847 1894 
Q 1838 1800 1838 1638 
L 1838 1253 
z
" transform="scale(0.015625)"/>
     </defs>
     <use xlink:href="#DejaVuSans-52"/>
     <use xlink:href="#DejaVuSans-65" x="64.982422"/>
     <use xlink:href="#DejaVuSans-75" x="126.505859"/>
     <use xlink:href="#DejaVuSans-74" x="189.884766"/>
     <use xlink:href="#DejaVuSans-6c" x="229.09375"/>
     <use xlink:href="#DejaVuSans-69" x="256.876953"/>
     <use xlink:href="#DejaVuSans-6e" x="284.660156"/>
     <use xlink:href="#DejaVuSans-67" x="348.039062"/>
     <use xlink:href="#DejaVuSans-65" x="411.515625"/>
     <use xlink:href="#DejaVuSans-6e" x="473.039062"/>
     <use xlink:href="#DejaVuSans-20" x="536.417969"/>
     <use xlink:href="#DejaVuSans-55" x="568.205078"/>
     <use xlink:href="#DejaVuSans-6e" x="641.398438"/>
     <use xlink:href="#DejaVuSans-69" x="704.777344"/>
     <use xlink:href="#DejaVuSans-76" x="732.560547"/>
     <use xlink:href="#DejaVuSans-65" x="791.740234"/>
     <use xlink:href="#DejaVuSans-72" x="853.263672"/>
     <use xlink:href="#DejaVuSans-73" x="894.376953"/>
     <use xlink:href="#DejaVuSans-69" x="946.476562"/>
     <use xlink:href="#DejaVuSans-74" x="974.259766"/>
     <use xlink:href="#DejaVuSans-79" x="1013.46875"/>
     <use xlink:href="#DejaVuSans-3f" x="1072.648438"/>
    </g>
   </g>
  </g>
 </g>
</svg>
