<?xml version="1.0" encoding="UTF-8" standalone="no"?>
<!-- Created with Inkscape (http://www.inkscape.org/) -->

<svg
   width="43.391609mm"
   height="43.391621mm"
   viewBox="0 0 43.391609 43.391621"
   version="1.1"
   id="svg1"
   xmlns:inkscape="http://www.inkscape.org/namespaces/inkscape"
   xmlns:sodipodi="http://sodipodi.sourceforge.net/DTD/sodipodi-0.dtd"
   xmlns="http://www.w3.org/2000/svg"
   xmlns:svg="http://www.w3.org/2000/svg">
  <sodipodi:namedview
     id="namedview1"
     pagecolor="#ffffff"
     bordercolor="#000000"
     borderopacity="0.25"
     inkscape:showpageshadow="2"
     inkscape:pageopacity="0.0"
     inkscape:pagecheckerboard="0"
     inkscape:deskcolor="#d1d1d1"
     inkscape:document-units="mm"
     inkscape:zoom="0.74118967"
     inkscape:cx="396.6596"
     inkscape:cy="561.25984"
     inkscape:window-width="1920"
     inkscape:window-height="1045"
     inkscape:window-x="0"
     inkscape:window-y="0"
     inkscape:window-maximized="1"
     inkscape:current-layer="svg1" />
  <defs
     id="defs1" />
  <g
     inkscape:label="QR Code: https://hsrtdeutschlandticket.limesurvey.net/192761?lang=de"
     transform="matrix(0.264583,0,0,0.264583,8.2663281e-6,4.196167e-6)"
     id="g3">
    <rect
       x="0"
       y="0"
       width="164"
       height="164"
       style="fill:#ffffff;stroke:none"
       id="rect2" />
    <g
       style="fill:#000000;stroke:none"
       id="g2">
      <path
         d="m 16,16 m 2,2 c 1.10457,0 2,0.895431 2,2 0,1.10457 -0.895431,2 -2,2 -1.10457,0 -2,-0.895431 -2,-2 0,-1.10457 0.895431,-2 2,-2 z m 2,-2 m 2,2 c 1.10457,0 2,0.895431 2,2 0,1.10457 -0.895431,2 -2,2 -1.10457,0 -2,-0.895431 -2,-2 0,-1.10457 0.895431,-2 2,-2 z m 2,-2 m 2,2 c 1.10457,0 2,0.895431 2,2 0,1.10457 -0.895431,2 -2,2 -1.10457,0 -2,-0.895431 -2,-2 0,-1.10457 0.895431,-2 2,-2 z m 2,-2 m 2,2 c 1.10457,0 2,0.895431 2,2 0,1.10457 -0.895431,2 -2,2 -1.10457,0 -2,-0.895431 -2,-2 0,-1.10457 0.895431,-2 2,-2 z m 2,-2 m 2,2 c 1.10457,0 2,0.895431 2,2 0,1.10457 -0.895431,2 -2,2 -1.10457,0 -2,-0.895431 -2,-2 0,-1.10457 0.895431,-2 2,-2 z m 2,-2 m 2,2 c 1.10457,0 2,0.895431 2,2 0,1.10457 -0.895431,2 -2,2 -1.10457,0 -2,-0.895431 -2,-2 0,-1.10457 0.895431,-2 2,-2 z m 2,-2 m 2,2 c 1.10457,0 2,0.895431 2,2 0,1.10457 -0.895431,2 -2,2 -1.10457,0 -2,-0.895431 -2,-2 0,-1.10457 0.895431,-2 2,-2 z m 14,-2 m 2,2 c 1.10457,0 2,0.895431 2,2 0,1.10457 -0.895431,2 -2,2 -1.10457,0 -2,-0.895431 -2,-2 0,-1.10457 0.895431,-2 2,-2 z m 6,-2 m 2,2 c 1.10457,0 2,0.895431 2,2 0,1.10457 -0.895431,2 -2,2 -1.10457,0 -2,-0.895431 -2,-2 0,-1.10457 0.895431,-2 2,-2 z m 2,-2 m 2,2 c 1.10457,0 2,0.895431 2,2 0,1.10457 -0.895431,2 -2,2 -1.10457,0 -2,-0.895431 -2,-2 0,-1.10457 0.895431,-2 2,-2 z m 6,-2 m 2,2 c 1.10457,0 2,0.895431 2,2 0,1.10457 -0.895431,2 -2,2 -1.10457,0 -2,-0.895431 -2,-2 0,-1.10457 0.895431,-2 2,-2 z m 14,-2 m 2,2 c 1.10457,0 2,0.895431 2,2 0,1.10457 -0.895431,2 -2,2 -1.10457,0 -2,-0.895431 -2,-2 0,-1.10457 0.895431,-2 2,-2 z m 2,-2 m 2,2 c 1.10457,0 2,0.895431 2,2 0,1.10457 -0.895431,2 -2,2 -1.10457,0 -2,-0.895431 -2,-2 0,-1.10457 0.895431,-2 2,-2 z m 2,-2 m 2,2 c 1.10457,0 2,0.895431 2,2 0,1.10457 -0.89543,2 -2,2 -1.10457,0 -2,-0.895431 -2,-2 0,-1.10457 0.89543,-2 2,-2 z m 6,-2 m 2,2 c 1.10457,0 2,0.895431 2,2 0,1.10457 -0.89543,2 -2,2 -1.10457,0 -2,-0.895431 -2,-2 0,-1.10457 0.89543,-2 2,-2 z m 10,-2 m 2,2 c 1.10457,0 2,0.895431 2,2 0,1.10457 -0.89543,2 -2,2 -1.10457,0 -2,-0.895431 -2,-2 0,-1.10457 0.89543,-2 2,-2 z m 2,-2 m 2,2 c 1.10457,0 2,0.895431 2,2 0,1.10457 -0.89543,2 -2,2 -1.10457,0 -2,-0.895431 -2,-2 0,-1.10457 0.89543,-2 2,-2 z m 2,-2 m 2,2 c 1.10457,0 2,0.895431 2,2 0,1.10457 -0.89543,2 -2,2 -1.10457,0 -2,-0.895431 -2,-2 0,-1.10457 0.89543,-2 2,-2 z m 2,-2 m 2,2 c 1.10457,0 2,0.895431 2,2 0,1.10457 -0.89543,2 -2,2 -1.10457,0 -2,-0.895431 -2,-2 0,-1.10457 0.89543,-2 2,-2 z m 2,-2 m 2,2 c 1.10457,0 2,0.895431 2,2 0,1.10457 -0.89543,2 -2,2 -1.10457,0 -2,-0.895431 -2,-2 0,-1.10457 0.89543,-2 2,-2 z m 2,-2 m 2,2 c 1.10457,0 2,0.895431 2,2 0,1.10457 -0.89543,2 -2,2 -1.10457,0 -2,-0.895431 -2,-2 0,-1.10457 0.89543,-2 2,-2 z m 2,-2 m 2,2 c 1.10457,0 2,0.895431 2,2 0,1.10457 -0.89543,2 -2,2 -1.10457,0 -2,-0.895431 -2,-2 0,-1.10457 0.89543,-2 2,-2 z M 16,20 m 2,2 c 1.10457,0 2,0.895431 2,2 0,1.10457 -0.895431,2 -2,2 -1.10457,0 -2,-0.895431 -2,-2 0,-1.10457 0.895431,-2 2,-2 z m 22,-2 m 2,2 c 1.10457,0 2,0.895431 2,2 0,1.10457 -0.895431,2 -2,2 -1.10457,0 -2,-0.895431 -2,-2 0,-1.10457 0.895431,-2 2,-2 z m 6,-2 m 2,2 c 1.10457,0 2,0.895431 2,2 0,1.10457 -0.895431,2 -2,2 -1.10457,0 -2,-0.895431 -2,-2 0,-1.10457 0.895431,-2 2,-2 z m 6,-2 m 2,2 c 1.10457,0 2,0.895431 2,2 0,1.10457 -0.895431,2 -2,2 -1.10457,0 -2,-0.895431 -2,-2 0,-1.10457 0.895431,-2 2,-2 z m 10,-2 m 2,2 c 1.10457,0 2,0.895431 2,2 0,1.10457 -0.895431,2 -2,2 -1.10457,0 -2,-0.895431 -2,-2 0,-1.10457 0.895431,-2 2,-2 z m 2,-2 m 2,2 c 1.10457,0 2,0.895431 2,2 0,1.10457 -0.895431,2 -2,2 -1.10457,0 -2,-0.895431 -2,-2 0,-1.10457 0.895431,-2 2,-2 z m 2,-2 m 2,2 c 1.10457,0 2,0.895431 2,2 0,1.10457 -0.895431,2 -2,2 -1.10457,0 -2,-0.895431 -2,-2 0,-1.10457 0.895431,-2 2,-2 z m 2,-2 m 2,2 c 1.10457,0 2,0.895431 2,2 0,1.10457 -0.895431,2 -2,2 -1.10457,0 -2,-0.895431 -2,-2 0,-1.10457 0.895431,-2 2,-2 z m 14,-2 m 2,2 c 1.10457,0 2,0.895431 2,2 0,1.10457 -0.895431,2 -2,2 -1.10457,0 -2,-0.895431 -2,-2 0,-1.10457 0.895431,-2 2,-2 z m 2,-2 m 2,2 c 1.10457,0 2,0.895431 2,2 0,1.10457 -0.89543,2 -2,2 -1.10457,0 -2,-0.895431 -2,-2 0,-1.10457 0.89543,-2 2,-2 z m 2,-2 m 2,2 c 1.10457,0 2,0.895431 2,2 0,1.10457 -0.89543,2 -2,2 -1.10457,0 -2,-0.895431 -2,-2 0,-1.10457 0.89543,-2 2,-2 z m 14,-2 m 2,2 c 1.10457,0 2,0.895431 2,2 0,1.10457 -0.89543,2 -2,2 -1.10457,0 -2,-0.895431 -2,-2 0,-1.10457 0.89543,-2 2,-2 z m 22,-2 m 2,2 c 1.10457,0 2,0.895431 2,2 0,1.10457 -0.89543,2 -2,2 -1.10457,0 -2,-0.895431 -2,-2 0,-1.10457 0.89543,-2 2,-2 z M 16,24 m 2,2 c 1.10457,0 2,0.895431 2,2 0,1.10457 -0.895431,2 -2,2 -1.10457,0 -2,-0.895431 -2,-2 0,-1.10457 0.895431,-2 2,-2 z m 6,-2 m 2,2 c 1.10457,0 2,0.895431 2,2 0,1.10457 -0.895431,2 -2,2 -1.10457,0 -2,-0.895431 -2,-2 0,-1.10457 0.895431,-2 2,-2 z m 2,-2 m 2,2 c 1.10457,0 2,0.895431 2,2 0,1.10457 -0.895431,2 -2,2 -1.10457,0 -2,-0.895431 -2,-2 0,-1.10457 0.895431,-2 2,-2 z m 2,-2 m 2,2 c 1.10457,0 2,0.895431 2,2 0,1.10457 -0.895431,2 -2,2 -1.10457,0 -2,-0.895431 -2,-2 0,-1.10457 0.895431,-2 2,-2 z m 6,-2 m 2,2 c 1.10457,0 2,0.895431 2,2 0,1.10457 -0.895431,2 -2,2 -1.10457,0 -2,-0.895431 -2,-2 0,-1.10457 0.895431,-2 2,-2 z m 22,-2 m 2,2 c 1.10457,0 2,0.895431 2,2 0,1.10457 -0.895431,2 -2,2 -1.10457,0 -2,-0.895431 -2,-2 0,-1.10457 0.895431,-2 2,-2 z m 2,-2 m 2,2 c 1.10457,0 2,0.895431 2,2 0,1.10457 -0.895431,2 -2,2 -1.10457,0 -2,-0.895431 -2,-2 0,-1.10457 0.895431,-2 2,-2 z m 6,-2 m 2,2 c 1.10457,0 2,0.895431 2,2 0,1.10457 -0.895431,2 -2,2 -1.10457,0 -2,-0.895431 -2,-2 0,-1.10457 0.895431,-2 2,-2 z m 2,-2 m 2,2 c 1.10457,0 2,0.895431 2,2 0,1.10457 -0.895431,2 -2,2 -1.10457,0 -2,-0.895431 -2,-2 0,-1.10457 0.895431,-2 2,-2 z m 6,-2 m 2,2 c 1.10457,0 2,0.895431 2,2 0,1.10457 -0.895431,2 -2,2 -1.10457,0 -2,-0.895431 -2,-2 0,-1.10457 0.895431,-2 2,-2 z m 6,-2 m 2,2 c 1.10457,0 2,0.895431 2,2 0,1.10457 -0.895431,2 -2,2 -1.10457,0 -2,-0.895431 -2,-2 0,-1.10457 0.895431,-2 2,-2 z m 2,-2 m 2,2 c 1.10457,0 2,0.895431 2,2 0,1.10457 -0.89543,2 -2,2 -1.10457,0 -2,-0.895431 -2,-2 0,-1.10457 0.89543,-2 2,-2 z m 2,-2 m 2,2 c 1.10457,0 2,0.895431 2,2 0,1.10457 -0.89543,2 -2,2 -1.10457,0 -2,-0.895431 -2,-2 0,-1.10457 0.89543,-2 2,-2 z m 2,-2 m 2,2 c 1.10457,0 2,0.895431 2,2 0,1.10457 -0.89543,2 -2,2 -1.10457,0 -2,-0.895431 -2,-2 0,-1.10457 0.89543,-2 2,-2 z m 2,-2 m 2,2 c 1.10457,0 2,0.895431 2,2 0,1.10457 -0.89543,2 -2,2 -1.10457,0 -2,-0.895431 -2,-2 0,-1.10457 0.89543,-2 2,-2 z m 6,-2 m 2,2 c 1.10457,0 2,0.895431 2,2 0,1.10457 -0.89543,2 -2,2 -1.10457,0 -2,-0.895431 -2,-2 0,-1.10457 0.89543,-2 2,-2 z m 6,-2 m 2,2 c 1.10457,0 2,0.895431 2,2 0,1.10457 -0.89543,2 -2,2 -1.10457,0 -2,-0.895431 -2,-2 0,-1.10457 0.89543,-2 2,-2 z m 2,-2 m 2,2 c 1.10457,0 2,0.895431 2,2 0,1.10457 -0.89543,2 -2,2 -1.10457,0 -2,-0.895431 -2,-2 0,-1.10457 0.89543,-2 2,-2 z m 2,-2 m 2,2 c 1.10457,0 2,0.895431 2,2 0,1.10457 -0.89543,2 -2,2 -1.10457,0 -2,-0.895431 -2,-2 0,-1.10457 0.89543,-2 2,-2 z m 6,-2 m 2,2 c 1.10457,0 2,0.895431 2,2 0,1.10457 -0.89543,2 -2,2 -1.10457,0 -2,-0.895431 -2,-2 0,-1.10457 0.89543,-2 2,-2 z M 16,28 m 2,2 c 1.10457,0 2,0.895431 2,2 0,1.10457 -0.895431,2 -2,2 -1.10457,0 -2,-0.895431 -2,-2 0,-1.10457 0.895431,-2 2,-2 z m 6,-2 m 2,2 c 1.10457,0 2,0.895431 2,2 0,1.10457 -0.895431,2 -2,2 -1.10457,0 -2,-0.895431 -2,-2 0,-1.10457 0.895431,-2 2,-2 z m 2,-2 m 2,2 c 1.10457,0 2,0.895431 2,2 0,1.10457 -0.895431,2 -2,2 -1.10457,0 -2,-0.895431 -2,-2 0,-1.10457 0.895431,-2 2,-2 z m 2,-2 m 2,2 c 1.10457,0 2,0.895431 2,2 0,1.10457 -0.895431,2 -2,2 -1.10457,0 -2,-0.895431 -2,-2 0,-1.10457 0.895431,-2 2,-2 z m 6,-2 m 2,2 c 1.10457,0 2,0.895431 2,2 0,1.10457 -0.895431,2 -2,2 -1.10457,0 -2,-0.895431 -2,-2 0,-1.10457 0.895431,-2 2,-2 z m 6,-2 m 2,2 c 1.10457,0 2,0.895431 2,2 0,1.10457 -0.895431,2 -2,2 -1.10457,0 -2,-0.895431 -2,-2 0,-1.10457 0.895431,-2 2,-2 z m 2,-2 m 2,2 c 1.10457,0 2,0.895431 2,2 0,1.10457 -0.895431,2 -2,2 -1.10457,0 -2,-0.895431 -2,-2 0,-1.10457 0.895431,-2 2,-2 z m 2,-2 m 2,2 c 1.10457,0 2,0.895431 2,2 0,1.10457 -0.895431,2 -2,2 -1.10457,0 -2,-0.895431 -2,-2 0,-1.10457 0.895431,-2 2,-2 z m 6,-2 m 2,2 c 1.10457,0 2,0.895431 2,2 0,1.10457 -0.895431,2 -2,2 -1.10457,0 -2,-0.895431 -2,-2 0,-1.10457 0.895431,-2 2,-2 z m 6,-2 m 2,2 c 1.10457,0 2,0.895431 2,2 0,1.10457 -0.895431,2 -2,2 -1.10457,0 -2,-0.895431 -2,-2 0,-1.10457 0.895431,-2 2,-2 z m 2,-2 m 2,2 c 1.10457,0 2,0.895431 2,2 0,1.10457 -0.895431,2 -2,2 -1.10457,0 -2,-0.895431 -2,-2 0,-1.10457 0.895431,-2 2,-2 z m 6,-2 m 2,2 c 1.10457,0 2,0.895431 2,2 0,1.10457 -0.895431,2 -2,2 -1.10457,0 -2,-0.895431 -2,-2 0,-1.10457 0.895431,-2 2,-2 z m 2,-2 m 2,2 c 1.10457,0 2,0.895431 2,2 0,1.10457 -0.895431,2 -2,2 -1.10457,0 -2,-0.895431 -2,-2 0,-1.10457 0.895431,-2 2,-2 z m 14,-2 m 2,2 c 1.10457,0 2,0.895431 2,2 0,1.10457 -0.89543,2 -2,2 -1.10457,0 -2,-0.895431 -2,-2 0,-1.10457 0.89543,-2 2,-2 z m 2,-2 m 2,2 c 1.10457,0 2,0.895431 2,2 0,1.10457 -0.89543,2 -2,2 -1.10457,0 -2,-0.895431 -2,-2 0,-1.10457 0.89543,-2 2,-2 z m 2,-2 m 2,2 c 1.10457,0 2,0.895431 2,2 0,1.10457 -0.89543,2 -2,2 -1.10457,0 -2,-0.895431 -2,-2 0,-1.10457 0.89543,-2 2,-2 z m 6,-2 m 2,2 c 1.10457,0 2,0.895431 2,2 0,1.10457 -0.89543,2 -2,2 -1.10457,0 -2,-0.895431 -2,-2 0,-1.10457 0.89543,-2 2,-2 z m 6,-2 m 2,2 c 1.10457,0 2,0.895431 2,2 0,1.10457 -0.89543,2 -2,2 -1.10457,0 -2,-0.895431 -2,-2 0,-1.10457 0.89543,-2 2,-2 z m 2,-2 m 2,2 c 1.10457,0 2,0.895431 2,2 0,1.10457 -0.89543,2 -2,2 -1.10457,0 -2,-0.895431 -2,-2 0,-1.10457 0.89543,-2 2,-2 z m 2,-2 m 2,2 c 1.10457,0 2,0.895431 2,2 0,1.10457 -0.89543,2 -2,2 -1.10457,0 -2,-0.895431 -2,-2 0,-1.10457 0.89543,-2 2,-2 z m 6,-2 m 2,2 c 1.10457,0 2,0.895431 2,2 0,1.10457 -0.89543,2 -2,2 -1.10457,0 -2,-0.895431 -2,-2 0,-1.10457 0.89543,-2 2,-2 z M 16,32 m 2,2 c 1.10457,0 2,0.895431 2,2 0,1.10457 -0.895431,2 -2,2 -1.10457,0 -2,-0.895431 -2,-2 0,-1.10457 0.895431,-2 2,-2 z m 6,-2 m 2,2 c 1.10457,0 2,0.895431 2,2 0,1.10457 -0.895431,2 -2,2 -1.10457,0 -2,-0.895431 -2,-2 0,-1.10457 0.895431,-2 2,-2 z m 2,-2 m 2,2 c 1.10457,0 2,0.895431 2,2 0,1.10457 -0.895431,2 -2,2 -1.10457,0 -2,-0.895431 -2,-2 0,-1.10457 0.895431,-2 2,-2 z m 2,-2 m 2,2 c 1.10457,0 2,0.895431 2,2 0,1.10457 -0.895431,2 -2,2 -1.10457,0 -2,-0.895431 -2,-2 0,-1.10457 0.895431,-2 2,-2 z m 6,-2 m 2,2 c 1.10457,0 2,0.895431 2,2 0,1.10457 -0.895431,2 -2,2 -1.10457,0 -2,-0.895431 -2,-2 0,-1.10457 0.895431,-2 2,-2 z m 10,-2 m 2,2 c 1.10457,0 2,0.895431 2,2 0,1.10457 -0.895431,2 -2,2 -1.10457,0 -2,-0.895431 -2,-2 0,-1.10457 0.895431,-2 2,-2 z m 26,-2 m 2,2 c 1.10457,0 2,0.895431 2,2 0,1.10457 -0.895431,2 -2,2 -1.10457,0 -2,-0.895431 -2,-2 0,-1.10457 0.895431,-2 2,-2 z m 2,-2 m 2,2 c 1.10457,0 2,0.895431 2,2 0,1.10457 -0.895431,2 -2,2 -1.10457,0 -2,-0.895431 -2,-2 0,-1.10457 0.895431,-2 2,-2 z m 2,-2 m 2,2 c 1.10457,0 2,0.895431 2,2 0,1.10457 -0.895431,2 -2,2 -1.10457,0 -2,-0.895431 -2,-2 0,-1.10457 0.895431,-2 2,-2 z m 2,-2 m 2,2 c 1.10457,0 2,0.895431 2,2 0,1.10457 -0.895431,2 -2,2 -1.10457,0 -2,-0.895431 -2,-2 0,-1.10457 0.895431,-2 2,-2 z m 2,-2 m 2,2 c 1.10457,0 2,0.895431 2,2 0,1.10457 -0.895431,2 -2,2 -1.10457,0 -2,-0.895431 -2,-2 0,-1.10457 0.895431,-2 2,-2 z m 2,-2 m 2,2 c 1.10457,0 2,0.895431 2,2 0,1.10457 -0.89543,2 -2,2 -1.10457,0 -2,-0.895431 -2,-2 0,-1.10457 0.89543,-2 2,-2 z m 2,-2 m 2,2 c 1.10457,0 2,0.895431 2,2 0,1.10457 -0.89543,2 -2,2 -1.10457,0 -2,-0.895431 -2,-2 0,-1.10457 0.89543,-2 2,-2 z m 2,-2 m 2,2 c 1.10457,0 2,0.895431 2,2 0,1.10457 -0.89543,2 -2,2 -1.10457,0 -2,-0.895431 -2,-2 0,-1.10457 0.89543,-2 2,-2 z m 10,-2 m 2,2 c 1.10457,0 2,0.895431 2,2 0,1.10457 -0.89543,2 -2,2 -1.10457,0 -2,-0.895431 -2,-2 0,-1.10457 0.89543,-2 2,-2 z m 6,-2 m 2,2 c 1.10457,0 2,0.895431 2,2 0,1.10457 -0.89543,2 -2,2 -1.10457,0 -2,-0.895431 -2,-2 0,-1.10457 0.89543,-2 2,-2 z m 2,-2 m 2,2 c 1.10457,0 2,0.895431 2,2 0,1.10457 -0.89543,2 -2,2 -1.10457,0 -2,-0.895431 -2,-2 0,-1.10457 0.89543,-2 2,-2 z m 2,-2 m 2,2 c 1.10457,0 2,0.895431 2,2 0,1.10457 -0.89543,2 -2,2 -1.10457,0 -2,-0.895431 -2,-2 0,-1.10457 0.89543,-2 2,-2 z m 6,-2 m 2,2 c 1.10457,0 2,0.895431 2,2 0,1.10457 -0.89543,2 -2,2 -1.10457,0 -2,-0.895431 -2,-2 0,-1.10457 0.89543,-2 2,-2 z M 16,36 m 2,2 c 1.10457,0 2,0.895431 2,2 0,1.10457 -0.895431,2 -2,2 -1.10457,0 -2,-0.895431 -2,-2 0,-1.10457 0.895431,-2 2,-2 z m 22,-2 m 2,2 c 1.10457,0 2,0.895431 2,2 0,1.10457 -0.895431,2 -2,2 -1.10457,0 -2,-0.895431 -2,-2 0,-1.10457 0.895431,-2 2,-2 z m 6,-2 m 2,2 c 1.10457,0 2,0.895431 2,2 0,1.10457 -0.895431,2 -2,2 -1.10457,0 -2,-0.895431 -2,-2 0,-1.10457 0.895431,-2 2,-2 z m 2,-2 m 2,2 c 1.10457,0 2,0.895431 2,2 0,1.10457 -0.895431,2 -2,2 -1.10457,0 -2,-0.895431 -2,-2 0,-1.10457 0.895431,-2 2,-2 z m 6,-2 m 2,2 c 1.10457,0 2,0.895431 2,2 0,1.10457 -0.895431,2 -2,2 -1.10457,0 -2,-0.895431 -2,-2 0,-1.10457 0.895431,-2 2,-2 z m 2,-2 m 2,2 c 1.10457,0 2,0.895431 2,2 0,1.10457 -0.895431,2 -2,2 -1.10457,0 -2,-0.895431 -2,-2 0,-1.10457 0.895431,-2 2,-2 z m 10,-2 m 2,2 c 1.10457,0 2,0.895431 2,2 0,1.10457 -0.895431,2 -2,2 -1.10457,0 -2,-0.895431 -2,-2 0,-1.10457 0.895431,-2 2,-2 z m 6,-2 m 2,2 c 1.10457,0 2,0.895431 2,2 0,1.10457 -0.895431,2 -2,2 -1.10457,0 -2,-0.895431 -2,-2 0,-1.10457 0.895431,-2 2,-2 z m 14,-2 m 2,2 c 1.10457,0 2,0.895431 2,2 0,1.10457 -0.89543,2 -2,2 -1.10457,0 -2,-0.895431 -2,-2 0,-1.10457 0.89543,-2 2,-2 z m 2,-2 m 2,2 c 1.10457,0 2,0.895431 2,2 0,1.10457 -0.89543,2 -2,2 -1.10457,0 -2,-0.895431 -2,-2 0,-1.10457 0.89543,-2 2,-2 z m 14,-2 m 2,2 c 1.10457,0 2,0.895431 2,2 0,1.10457 -0.89543,2 -2,2 -1.10457,0 -2,-0.895431 -2,-2 0,-1.10457 0.89543,-2 2,-2 z m 22,-2 m 2,2 c 1.10457,0 2,0.895431 2,2 0,1.10457 -0.89543,2 -2,2 -1.10457,0 -2,-0.895431 -2,-2 0,-1.10457 0.89543,-2 2,-2 z M 16,40 m 2,2 c 1.10457,0 2,0.895431 2,2 0,1.10457 -0.895431,2 -2,2 -1.10457,0 -2,-0.895431 -2,-2 0,-1.10457 0.895431,-2 2,-2 z m 2,-2 m 2,2 c 1.10457,0 2,0.895431 2,2 0,1.10457 -0.895431,2 -2,2 -1.10457,0 -2,-0.895431 -2,-2 0,-1.10457 0.895431,-2 2,-2 z m 2,-2 m 2,2 c 1.10457,0 2,0.895431 2,2 0,1.10457 -0.895431,2 -2,2 -1.10457,0 -2,-0.895431 -2,-2 0,-1.10457 0.895431,-2 2,-2 z m 2,-2 m 2,2 c 1.10457,0 2,0.895431 2,2 0,1.10457 -0.895431,2 -2,2 -1.10457,0 -2,-0.895431 -2,-2 0,-1.10457 0.895431,-2 2,-2 z m 2,-2 m 2,2 c 1.10457,0 2,0.895431 2,2 0,1.10457 -0.895431,2 -2,2 -1.10457,0 -2,-0.895431 -2,-2 0,-1.10457 0.895431,-2 2,-2 z m 2,-2 m 2,2 c 1.10457,0 2,0.895431 2,2 0,1.10457 -0.895431,2 -2,2 -1.10457,0 -2,-0.895431 -2,-2 0,-1.10457 0.895431,-2 2,-2 z m 2,-2 m 2,2 c 1.10457,0 2,0.895431 2,2 0,1.10457 -0.895431,2 -2,2 -1.10457,0 -2,-0.895431 -2,-2 0,-1.10457 0.895431,-2 2,-2 z m 6,-2 m 2,2 c 1.10457,0 2,0.895431 2,2 0,1.10457 -0.895431,2 -2,2 -1.10457,0 -2,-0.895431 -2,-2 0,-1.10457 0.895431,-2 2,-2 z m 6,-2 m 2,2 c 1.10457,0 2,0.895431 2,2 0,1.10457 -0.895431,2 -2,2 -1.10457,0 -2,-0.895431 -2,-2 0,-1.10457 0.895431,-2 2,-2 z m 6,-2 m 2,2 c 1.10457,0 2,0.895431 2,2 0,1.10457 -0.895431,2 -2,2 -1.10457,0 -2,-0.895431 -2,-2 0,-1.10457 0.895431,-2 2,-2 z m 6,-2 m 2,2 c 1.10457,0 2,0.895431 2,2 0,1.10457 -0.895431,2 -2,2 -1.10457,0 -2,-0.895431 -2,-2 0,-1.10457 0.895431,-2 2,-2 z m 6,-2 m 2,2 c 1.10457,0 2,0.895431 2,2 0,1.10457 -0.895431,2 -2,2 -1.10457,0 -2,-0.895431 -2,-2 0,-1.10457 0.895431,-2 2,-2 z m 6,-2 m 2,2 c 1.10457,0 2,0.895431 2,2 0,1.10457 -0.895431,2 -2,2 -1.10457,0 -2,-0.895431 -2,-2 0,-1.10457 0.895431,-2 2,-2 z m 6,-2 m 2,2 c 1.10457,0 2,0.895431 2,2 0,1.10457 -0.895431,2 -2,2 -1.10457,0 -2,-0.895431 -2,-2 0,-1.10457 0.895431,-2 2,-2 z m 6,-2 m 2,2 c 1.10457,0 2,0.895431 2,2 0,1.10457 -0.89543,2 -2,2 -1.10457,0 -2,-0.895431 -2,-2 0,-1.10457 0.89543,-2 2,-2 z m 6,-2 m 2,2 c 1.10457,0 2,0.895431 2,2 0,1.10457 -0.89543,2 -2,2 -1.10457,0 -2,-0.895431 -2,-2 0,-1.10457 0.89543,-2 2,-2 z m 6,-2 m 2,2 c 1.10457,0 2,0.895431 2,2 0,1.10457 -0.89543,2 -2,2 -1.10457,0 -2,-0.895431 -2,-2 0,-1.10457 0.89543,-2 2,-2 z m 2,-2 m 2,2 c 1.10457,0 2,0.895431 2,2 0,1.10457 -0.89543,2 -2,2 -1.10457,0 -2,-0.895431 -2,-2 0,-1.10457 0.89543,-2 2,-2 z m 2,-2 m 2,2 c 1.10457,0 2,0.895431 2,2 0,1.10457 -0.89543,2 -2,2 -1.10457,0 -2,-0.895431 -2,-2 0,-1.10457 0.89543,-2 2,-2 z m 2,-2 m 2,2 c 1.10457,0 2,0.895431 2,2 0,1.10457 -0.89543,2 -2,2 -1.10457,0 -2,-0.895431 -2,-2 0,-1.10457 0.89543,-2 2,-2 z m 2,-2 m 2,2 c 1.10457,0 2,0.895431 2,2 0,1.10457 -0.89543,2 -2,2 -1.10457,0 -2,-0.895431 -2,-2 0,-1.10457 0.89543,-2 2,-2 z m 2,-2 m 2,2 c 1.10457,0 2,0.895431 2,2 0,1.10457 -0.89543,2 -2,2 -1.10457,0 -2,-0.895431 -2,-2 0,-1.10457 0.89543,-2 2,-2 z m 2,-2 m 2,2 c 1.10457,0 2,0.895431 2,2 0,1.10457 -0.89543,2 -2,2 -1.10457,0 -2,-0.895431 -2,-2 0,-1.10457 0.89543,-2 2,-2 z m -94,2 m 2,2 c 1.10457,0 2,0.895431 2,2 0,1.10457 -0.895431,2 -2,2 -1.10457,0 -2,-0.895431 -2,-2 0,-1.10457 0.895431,-2 2,-2 z m 2,-2 m 2,2 c 1.10457,0 2,0.895431 2,2 0,1.10457 -0.895431,2 -2,2 -1.10457,0 -2,-0.895431 -2,-2 0,-1.10457 0.895431,-2 2,-2 z m 2,-2 m 2,2 c 1.10457,0 2,0.895431 2,2 0,1.10457 -0.895431,2 -2,2 -1.10457,0 -2,-0.895431 -2,-2 0,-1.10457 0.895431,-2 2,-2 z m 10,-2 m 2,2 c 1.10457,0 2,0.895431 2,2 0,1.10457 -0.895431,2 -2,2 -1.10457,0 -2,-0.895431 -2,-2 0,-1.10457 0.895431,-2 2,-2 z m 2,-2 m 2,2 c 1.10457,0 2,0.895431 2,2 0,1.10457 -0.895431,2 -2,2 -1.10457,0 -2,-0.895431 -2,-2 0,-1.10457 0.895431,-2 2,-2 z m 2,-2 m 2,2 c 1.10457,0 2,0.895431 2,2 0,1.10457 -0.895431,2 -2,2 -1.10457,0 -2,-0.895431 -2,-2 0,-1.10457 0.895431,-2 2,-2 z m 10,-2 m 2,2 c 1.10457,0 2,0.895431 2,2 0,1.10457 -0.895431,2 -2,2 -1.10457,0 -2,-0.895431 -2,-2 0,-1.10457 0.895431,-2 2,-2 z m 2,-2 m 2,2 c 1.10457,0 2,0.895431 2,2 0,1.10457 -0.895431,2 -2,2 -1.10457,0 -2,-0.895431 -2,-2 0,-1.10457 0.895431,-2 2,-2 z m 2,-2 m 2,2 c 1.10457,0 2,0.895431 2,2 0,1.10457 -0.89543,2 -2,2 -1.10457,0 -2,-0.895431 -2,-2 0,-1.10457 0.89543,-2 2,-2 z m 6,-2 m 2,2 c 1.10457,0 2,0.895431 2,2 0,1.10457 -0.89543,2 -2,2 -1.10457,0 -2,-0.895431 -2,-2 0,-1.10457 0.89543,-2 2,-2 z m 2,-2 m 2,2 c 1.10457,0 2,0.895431 2,2 0,1.10457 -0.89543,2 -2,2 -1.10457,0 -2,-0.895431 -2,-2 0,-1.10457 0.89543,-2 2,-2 z m -98,2 m 2,2 c 1.10457,0 2,0.895431 2,2 0,1.10457 -0.895431,2 -2,2 -1.10457,0 -2,-0.895431 -2,-2 0,-1.10457 0.895431,-2 2,-2 z m 2,-2 m 2,2 c 1.10457,0 2,0.895431 2,2 0,1.10457 -0.895431,2 -2,2 -1.10457,0 -2,-0.895431 -2,-2 0,-1.10457 0.895431,-2 2,-2 z m 2,-2 m 2,2 c 1.10457,0 2,0.895431 2,2 0,1.10457 -0.895431,2 -2,2 -1.10457,0 -2,-0.895431 -2,-2 0,-1.10457 0.895431,-2 2,-2 z m 2,-2 m 2,2 c 1.10457,0 2,0.895431 2,2 0,1.10457 -0.895431,2 -2,2 -1.10457,0 -2,-0.895431 -2,-2 0,-1.10457 0.895431,-2 2,-2 z m 2,-2 m 2,2 c 1.10457,0 2,0.895431 2,2 0,1.10457 -0.895431,2 -2,2 -1.10457,0 -2,-0.895431 -2,-2 0,-1.10457 0.895431,-2 2,-2 z m 6,-2 m 2,2 c 1.10457,0 2,0.895431 2,2 0,1.10457 -0.895431,2 -2,2 -1.10457,0 -2,-0.895431 -2,-2 0,-1.10457 0.895431,-2 2,-2 z m 2,-2 m 2,2 c 1.10457,0 2,0.895431 2,2 0,1.10457 -0.895431,2 -2,2 -1.10457,0 -2,-0.895431 -2,-2 0,-1.10457 0.895431,-2 2,-2 z m 2,-2 m 2,2 c 1.10457,0 2,0.895431 2,2 0,1.10457 -0.895431,2 -2,2 -1.10457,0 -2,-0.895431 -2,-2 0,-1.10457 0.895431,-2 2,-2 z m 2,-2 m 2,2 c 1.10457,0 2,0.895431 2,2 0,1.10457 -0.895431,2 -2,2 -1.10457,0 -2,-0.895431 -2,-2 0,-1.10457 0.895431,-2 2,-2 z m 6,-2 m 2,2 c 1.10457,0 2,0.895431 2,2 0,1.10457 -0.895431,2 -2,2 -1.10457,0 -2,-0.895431 -2,-2 0,-1.10457 0.895431,-2 2,-2 z m 14,-2 m 2,2 c 1.10457,0 2,0.895431 2,2 0,1.10457 -0.895431,2 -2,2 -1.10457,0 -2,-0.895431 -2,-2 0,-1.10457 0.895431,-2 2,-2 z m 6,-2 m 2,2 c 1.10457,0 2,0.895431 2,2 0,1.10457 -0.895431,2 -2,2 -1.10457,0 -2,-0.895431 -2,-2 0,-1.10457 0.895431,-2 2,-2 z m 2,-2 m 2,2 c 1.10457,0 2,0.895431 2,2 0,1.10457 -0.895431,2 -2,2 -1.10457,0 -2,-0.895431 -2,-2 0,-1.10457 0.895431,-2 2,-2 z m 2,-2 m 2,2 c 1.10457,0 2,0.895431 2,2 0,1.10457 -0.895431,2 -2,2 -1.10457,0 -2,-0.895431 -2,-2 0,-1.10457 0.895431,-2 2,-2 z m 18,-2 m 2,2 c 1.10457,0 2,0.895431 2,2 0,1.10457 -0.89543,2 -2,2 -1.10457,0 -2,-0.895431 -2,-2 0,-1.10457 0.89543,-2 2,-2 z m 2,-2 m 2,2 c 1.10457,0 2,0.895431 2,2 0,1.10457 -0.89543,2 -2,2 -1.10457,0 -2,-0.895431 -2,-2 0,-1.10457 0.89543,-2 2,-2 z m 6,-2 m 2,2 c 1.10457,0 2,0.895431 2,2 0,1.10457 -0.89543,2 -2,2 -1.10457,0 -2,-0.895431 -2,-2 0,-1.10457 0.89543,-2 2,-2 z m 6,-2 m 2,2 c 1.10457,0 2,0.895431 2,2 0,1.10457 -0.89543,2 -2,2 -1.10457,0 -2,-0.895431 -2,-2 0,-1.10457 0.89543,-2 2,-2 z m 6,-2 m 2,2 c 1.10457,0 2,0.895431 2,2 0,1.10457 -0.89543,2 -2,2 -1.10457,0 -2,-0.895431 -2,-2 0,-1.10457 0.89543,-2 2,-2 z M 20,52 m 2,2 c 1.10457,0 2,0.895431 2,2 0,1.10457 -0.895431,2 -2,2 -1.10457,0 -2,-0.895431 -2,-2 0,-1.10457 0.895431,-2 2,-2 z m 2,-2 m 2,2 c 1.10457,0 2,0.895431 2,2 0,1.10457 -0.895431,2 -2,2 -1.10457,0 -2,-0.895431 -2,-2 0,-1.10457 0.895431,-2 2,-2 z m 2,-2 m 2,2 c 1.10457,0 2,0.895431 2,2 0,1.10457 -0.895431,2 -2,2 -1.10457,0 -2,-0.895431 -2,-2 0,-1.10457 0.895431,-2 2,-2 z m 6,-2 m 2,2 c 1.10457,0 2,0.895431 2,2 0,1.10457 -0.895431,2 -2,2 -1.10457,0 -2,-0.895431 -2,-2 0,-1.10457 0.895431,-2 2,-2 z m 10,-2 m 2,2 c 1.10457,0 2,0.895431 2,2 0,1.10457 -0.895431,2 -2,2 -1.10457,0 -2,-0.895431 -2,-2 0,-1.10457 0.895431,-2 2,-2 z m 6,-2 m 2,2 c 1.10457,0 2,0.895431 2,2 0,1.10457 -0.895431,2 -2,2 -1.10457,0 -2,-0.895431 -2,-2 0,-1.10457 0.895431,-2 2,-2 z m 6,-2 m 2,2 c 1.10457,0 2,0.895431 2,2 0,1.10457 -0.895431,2 -2,2 -1.10457,0 -2,-0.895431 -2,-2 0,-1.10457 0.895431,-2 2,-2 z m 2,-2 m 2,2 c 1.10457,0 2,0.895431 2,2 0,1.10457 -0.895431,2 -2,2 -1.10457,0 -2,-0.895431 -2,-2 0,-1.10457 0.895431,-2 2,-2 z m 2,-2 m 2,2 c 1.10457,0 2,0.895431 2,2 0,1.10457 -0.895431,2 -2,2 -1.10457,0 -2,-0.895431 -2,-2 0,-1.10457 0.895431,-2 2,-2 z m 6,-2 m 2,2 c 1.10457,0 2,0.895431 2,2 0,1.10457 -0.895431,2 -2,2 -1.10457,0 -2,-0.895431 -2,-2 0,-1.10457 0.895431,-2 2,-2 z m 10,-2 m 2,2 c 1.10457,0 2,0.895431 2,2 0,1.10457 -0.895431,2 -2,2 -1.10457,0 -2,-0.895431 -2,-2 0,-1.10457 0.895431,-2 2,-2 z m 2,-2 m 2,2 c 1.10457,0 2,0.895431 2,2 0,1.10457 -0.895431,2 -2,2 -1.10457,0 -2,-0.895431 -2,-2 0,-1.10457 0.895431,-2 2,-2 z m 10,-2 m 2,2 c 1.10457,0 2,0.895431 2,2 0,1.10457 -0.89543,2 -2,2 -1.10457,0 -2,-0.895431 -2,-2 0,-1.10457 0.89543,-2 2,-2 z m 6,-2 m 2,2 c 1.10457,0 2,0.895431 2,2 0,1.10457 -0.89543,2 -2,2 -1.10457,0 -2,-0.895431 -2,-2 0,-1.10457 0.89543,-2 2,-2 z m 2,-2 m 2,2 c 1.10457,0 2,0.895431 2,2 0,1.10457 -0.89543,2 -2,2 -1.10457,0 -2,-0.895431 -2,-2 0,-1.10457 0.89543,-2 2,-2 z m 14,-2 m 2,2 c 1.10457,0 2,0.895431 2,2 0,1.10457 -0.89543,2 -2,2 -1.10457,0 -2,-0.895431 -2,-2 0,-1.10457 0.89543,-2 2,-2 z m 2,-2 m 2,2 c 1.10457,0 2,0.895431 2,2 0,1.10457 -0.89543,2 -2,2 -1.10457,0 -2,-0.895431 -2,-2 0,-1.10457 0.89543,-2 2,-2 z m 2,-2 m 2,2 c 1.10457,0 2,0.895431 2,2 0,1.10457 -0.89543,2 -2,2 -1.10457,0 -2,-0.895431 -2,-2 0,-1.10457 0.89543,-2 2,-2 z M 28,56 m 2,2 c 1.10457,0 2,0.895431 2,2 0,1.10457 -0.895431,2 -2,2 -1.10457,0 -2,-0.895431 -2,-2 0,-1.10457 0.895431,-2 2,-2 z m 6,-2 m 2,2 c 1.10457,0 2,0.895431 2,2 0,1.10457 -0.895431,2 -2,2 -1.10457,0 -2,-0.895431 -2,-2 0,-1.10457 0.895431,-2 2,-2 z m 2,-2 m 2,2 c 1.10457,0 2,0.895431 2,2 0,1.10457 -0.895431,2 -2,2 -1.10457,0 -2,-0.895431 -2,-2 0,-1.10457 0.895431,-2 2,-2 z m 2,-2 m 2,2 c 1.10457,0 2,0.895431 2,2 0,1.10457 -0.895431,2 -2,2 -1.10457,0 -2,-0.895431 -2,-2 0,-1.10457 0.895431,-2 2,-2 z m 2,-2 m 2,2 c 1.10457,0 2,0.895431 2,2 0,1.10457 -0.895431,2 -2,2 -1.10457,0 -2,-0.895431 -2,-2 0,-1.10457 0.895431,-2 2,-2 z m 6,-2 m 2,2 c 1.10457,0 2,0.895431 2,2 0,1.10457 -0.895431,2 -2,2 -1.10457,0 -2,-0.895431 -2,-2 0,-1.10457 0.895431,-2 2,-2 z m 10,-2 m 2,2 c 1.10457,0 2,0.895431 2,2 0,1.10457 -0.895431,2 -2,2 -1.10457,0 -2,-0.895431 -2,-2 0,-1.10457 0.895431,-2 2,-2 z m 2,-2 m 2,2 c 1.10457,0 2,0.895431 2,2 0,1.10457 -0.895431,2 -2,2 -1.10457,0 -2,-0.895431 -2,-2 0,-1.10457 0.895431,-2 2,-2 z m 2,-2 m 2,2 c 1.10457,0 2,0.895431 2,2 0,1.10457 -0.895431,2 -2,2 -1.10457,0 -2,-0.895431 -2,-2 0,-1.10457 0.895431,-2 2,-2 z m 2,-2 m 2,2 c 1.10457,0 2,0.895431 2,2 0,1.10457 -0.895431,2 -2,2 -1.10457,0 -2,-0.895431 -2,-2 0,-1.10457 0.895431,-2 2,-2 z m 6,-2 m 2,2 c 1.10457,0 2,0.895431 2,2 0,1.10457 -0.895431,2 -2,2 -1.10457,0 -2,-0.895431 -2,-2 0,-1.10457 0.895431,-2 2,-2 z m 14,-2 m 2,2 c 1.10457,0 2,0.895431 2,2 0,1.10457 -0.89543,2 -2,2 -1.10457,0 -2,-0.895431 -2,-2 0,-1.10457 0.89543,-2 2,-2 z m 10,-2 m 2,2 c 1.10457,0 2,0.895431 2,2 0,1.10457 -0.89543,2 -2,2 -1.10457,0 -2,-0.895431 -2,-2 0,-1.10457 0.89543,-2 2,-2 z m 14,-2 m 2,2 c 1.10457,0 2,0.895431 2,2 0,1.10457 -0.89543,2 -2,2 -1.10457,0 -2,-0.895431 -2,-2 0,-1.10457 0.89543,-2 2,-2 z m 6,-2 m 2,2 c 1.10457,0 2,0.895431 2,2 0,1.10457 -0.89543,2 -2,2 -1.10457,0 -2,-0.895431 -2,-2 0,-1.10457 0.89543,-2 2,-2 z M 16,60 m 2,2 c 1.10457,0 2,0.895431 2,2 0,1.10457 -0.895431,2 -2,2 -1.10457,0 -2,-0.895431 -2,-2 0,-1.10457 0.895431,-2 2,-2 z m 2,-2 m 2,2 c 1.10457,0 2,0.895431 2,2 0,1.10457 -0.895431,2 -2,2 -1.10457,0 -2,-0.895431 -2,-2 0,-1.10457 0.895431,-2 2,-2 z m 2,-2 m 2,2 c 1.10457,0 2,0.895431 2,2 0,1.10457 -0.895431,2 -2,2 -1.10457,0 -2,-0.895431 -2,-2 0,-1.10457 0.895431,-2 2,-2 z m 18,-2 m 2,2 c 1.10457,0 2,0.895431 2,2 0,1.10457 -0.895431,2 -2,2 -1.10457,0 -2,-0.895431 -2,-2 0,-1.10457 0.895431,-2 2,-2 z m 2,-2 m 2,2 c 1.10457,0 2,0.895431 2,2 0,1.10457 -0.895431,2 -2,2 -1.10457,0 -2,-0.895431 -2,-2 0,-1.10457 0.895431,-2 2,-2 z m 14,-2 m 2,2 c 1.10457,0 2,0.895431 2,2 0,1.10457 -0.895431,2 -2,2 -1.10457,0 -2,-0.895431 -2,-2 0,-1.10457 0.895431,-2 2,-2 z m 2,-2 m 2,2 c 1.10457,0 2,0.895431 2,2 0,1.10457 -0.895431,2 -2,2 -1.10457,0 -2,-0.895431 -2,-2 0,-1.10457 0.895431,-2 2,-2 z m 6,-2 m 2,2 c 1.10457,0 2,0.895431 2,2 0,1.10457 -0.895431,2 -2,2 -1.10457,0 -2,-0.895431 -2,-2 0,-1.10457 0.895431,-2 2,-2 z m 2,-2 m 2,2 c 1.10457,0 2,0.895431 2,2 0,1.10457 -0.895431,2 -2,2 -1.10457,0 -2,-0.895431 -2,-2 0,-1.10457 0.895431,-2 2,-2 z m 10,-2 m 2,2 c 1.10457,0 2,0.895431 2,2 0,1.10457 -0.895431,2 -2,2 -1.10457,0 -2,-0.895431 -2,-2 0,-1.10457 0.895431,-2 2,-2 z m 2,-2 m 2,2 c 1.10457,0 2,0.895431 2,2 0,1.10457 -0.895431,2 -2,2 -1.10457,0 -2,-0.895431 -2,-2 0,-1.10457 0.895431,-2 2,-2 z m 2,-2 m 2,2 c 1.10457,0 2,0.895431 2,2 0,1.10457 -0.89543,2 -2,2 -1.10457,0 -2,-0.895431 -2,-2 0,-1.10457 0.89543,-2 2,-2 z m 10,-2 m 2,2 c 1.10457,0 2,0.895431 2,2 0,1.10457 -0.89543,2 -2,2 -1.10457,0 -2,-0.895431 -2,-2 0,-1.10457 0.89543,-2 2,-2 z m 22,-2 m 2,2 c 1.10457,0 2,0.895431 2,2 0,1.10457 -0.89543,2 -2,2 -1.10457,0 -2,-0.895431 -2,-2 0,-1.10457 0.89543,-2 2,-2 z M 16,64 m 2,2 c 1.10457,0 2,0.895431 2,2 0,1.10457 -0.895431,2 -2,2 -1.10457,0 -2,-0.895431 -2,-2 0,-1.10457 0.895431,-2 2,-2 z m 18,-2 m 2,2 c 1.10457,0 2,0.895431 2,2 0,1.10457 -0.895431,2 -2,2 -1.10457,0 -2,-0.895431 -2,-2 0,-1.10457 0.895431,-2 2,-2 z m 2,-2 m 2,2 c 1.10457,0 2,0.895431 2,2 0,1.10457 -0.895431,2 -2,2 -1.10457,0 -2,-0.895431 -2,-2 0,-1.10457 0.895431,-2 2,-2 z m 2,-2 m 2,2 c 1.10457,0 2,0.895431 2,2 0,1.10457 -0.895431,2 -2,2 -1.10457,0 -2,-0.895431 -2,-2 0,-1.10457 0.895431,-2 2,-2 z m 2,-2 m 2,2 c 1.10457,0 2,0.895431 2,2 0,1.10457 -0.895431,2 -2,2 -1.10457,0 -2,-0.895431 -2,-2 0,-1.10457 0.895431,-2 2,-2 z m 2,-2 m 2,2 c 1.10457,0 2,0.895431 2,2 0,1.10457 -0.895431,2 -2,2 -1.10457,0 -2,-0.895431 -2,-2 0,-1.10457 0.895431,-2 2,-2 z m 2,-2 m 2,2 c 1.10457,0 2,0.895431 2,2 0,1.10457 -0.895431,2 -2,2 -1.10457,0 -2,-0.895431 -2,-2 0,-1.10457 0.895431,-2 2,-2 z m 6,-2 m 2,2 c 1.10457,0 2,0.895431 2,2 0,1.10457 -0.895431,2 -2,2 -1.10457,0 -2,-0.895431 -2,-2 0,-1.10457 0.895431,-2 2,-2 z m 6,-2 m 2,2 c 1.10457,0 2,0.895431 2,2 0,1.10457 -0.895431,2 -2,2 -1.10457,0 -2,-0.895431 -2,-2 0,-1.10457 0.895431,-2 2,-2 z m 6,-2 m 2,2 c 1.10457,0 2,0.895431 2,2 0,1.10457 -0.895431,2 -2,2 -1.10457,0 -2,-0.895431 -2,-2 0,-1.10457 0.895431,-2 2,-2 z m 2,-2 m 2,2 c 1.10457,0 2,0.895431 2,2 0,1.10457 -0.895431,2 -2,2 -1.10457,0 -2,-0.895431 -2,-2 0,-1.10457 0.895431,-2 2,-2 z m 2,-2 m 2,2 c 1.10457,0 2,0.895431 2,2 0,1.10457 -0.895431,2 -2,2 -1.10457,0 -2,-0.895431 -2,-2 0,-1.10457 0.895431,-2 2,-2 z m 2,-2 m 2,2 c 1.10457,0 2,0.895431 2,2 0,1.10457 -0.895431,2 -2,2 -1.10457,0 -2,-0.895431 -2,-2 0,-1.10457 0.895431,-2 2,-2 z m 10,-2 m 2,2 c 1.10457,0 2,0.895431 2,2 0,1.10457 -0.89543,2 -2,2 -1.10457,0 -2,-0.895431 -2,-2 0,-1.10457 0.89543,-2 2,-2 z m 2,-2 m 2,2 c 1.10457,0 2,0.895431 2,2 0,1.10457 -0.89543,2 -2,2 -1.10457,0 -2,-0.895431 -2,-2 0,-1.10457 0.89543,-2 2,-2 z m 2,-2 m 2,2 c 1.10457,0 2,0.895431 2,2 0,1.10457 -0.89543,2 -2,2 -1.10457,0 -2,-0.895431 -2,-2 0,-1.10457 0.89543,-2 2,-2 z m 2,-2 m 2,2 c 1.10457,0 2,0.895431 2,2 0,1.10457 -0.89543,2 -2,2 -1.10457,0 -2,-0.895431 -2,-2 0,-1.10457 0.89543,-2 2,-2 z m 10,-2 m 2,2 c 1.10457,0 2,0.895431 2,2 0,1.10457 -0.89543,2 -2,2 -1.10457,0 -2,-0.895431 -2,-2 0,-1.10457 0.89543,-2 2,-2 z m 2,-2 m 2,2 c 1.10457,0 2,0.895431 2,2 0,1.10457 -0.89543,2 -2,2 -1.10457,0 -2,-0.895431 -2,-2 0,-1.10457 0.89543,-2 2,-2 z M 20,68 m 2,2 c 1.10457,0 2,0.895431 2,2 0,1.10457 -0.895431,2 -2,2 -1.10457,0 -2,-0.895431 -2,-2 0,-1.10457 0.895431,-2 2,-2 z m 6,-2 m 2,2 c 1.10457,0 2,0.895431 2,2 0,1.10457 -0.895431,2 -2,2 -1.10457,0 -2,-0.895431 -2,-2 0,-1.10457 0.895431,-2 2,-2 z m 2,-2 m 2,2 c 1.10457,0 2,0.895431 2,2 0,1.10457 -0.895431,2 -2,2 -1.10457,0 -2,-0.895431 -2,-2 0,-1.10457 0.895431,-2 2,-2 z m 2,-2 m 2,2 c 1.10457,0 2,0.895431 2,2 0,1.10457 -0.895431,2 -2,2 -1.10457,0 -2,-0.895431 -2,-2 0,-1.10457 0.895431,-2 2,-2 z m 46,-2 m 2,2 c 1.10457,0 2,0.895431 2,2 0,1.10457 -0.895431,2 -2,2 -1.10457,0 -2,-0.895431 -2,-2 0,-1.10457 0.895431,-2 2,-2 z m 6,-2 m 2,2 c 1.10457,0 2,0.895431 2,2 0,1.10457 -0.895431,2 -2,2 -1.10457,0 -2,-0.895431 -2,-2 0,-1.10457 0.895431,-2 2,-2 z m 14,-2 m 2,2 c 1.10457,0 2,0.895431 2,2 0,1.10457 -0.89543,2 -2,2 -1.10457,0 -2,-0.895431 -2,-2 0,-1.10457 0.89543,-2 2,-2 z m 6,-2 m 2,2 c 1.10457,0 2,0.895431 2,2 0,1.10457 -0.89543,2 -2,2 -1.10457,0 -2,-0.895431 -2,-2 0,-1.10457 0.89543,-2 2,-2 z m 2,-2 m 2,2 c 1.10457,0 2,0.895431 2,2 0,1.10457 -0.89543,2 -2,2 -1.10457,0 -2,-0.895431 -2,-2 0,-1.10457 0.89543,-2 2,-2 z m 18,-2 m 2,2 c 1.10457,0 2,0.895431 2,2 0,1.10457 -0.89543,2 -2,2 -1.10457,0 -2,-0.895431 -2,-2 0,-1.10457 0.89543,-2 2,-2 z m 2,-2 m 2,2 c 1.10457,0 2,0.895431 2,2 0,1.10457 -0.89543,2 -2,2 -1.10457,0 -2,-0.895431 -2,-2 0,-1.10457 0.89543,-2 2,-2 z M 20,72 m 2,2 c 1.10457,0 2,0.895431 2,2 0,1.10457 -0.895431,2 -2,2 -1.10457,0 -2,-0.895431 -2,-2 0,-1.10457 0.895431,-2 2,-2 z m 2,-2 m 2,2 c 1.10457,0 2,0.895431 2,2 0,1.10457 -0.895431,2 -2,2 -1.10457,0 -2,-0.895431 -2,-2 0,-1.10457 0.895431,-2 2,-2 z m 6,-2 m 2,2 c 1.10457,0 2,0.895431 2,2 0,1.10457 -0.895431,2 -2,2 -1.10457,0 -2,-0.895431 -2,-2 0,-1.10457 0.895431,-2 2,-2 z m 2,-2 m 2,2 c 1.10457,0 2,0.895431 2,2 0,1.10457 -0.895431,2 -2,2 -1.10457,0 -2,-0.895431 -2,-2 0,-1.10457 0.895431,-2 2,-2 z m 2,-2 m 2,2 c 1.10457,0 2,0.895431 2,2 0,1.10457 -0.895431,2 -2,2 -1.10457,0 -2,-0.895431 -2,-2 0,-1.10457 0.895431,-2 2,-2 z m 2,-2 m 2,2 c 1.10457,0 2,0.895431 2,2 0,1.10457 -0.895431,2 -2,2 -1.10457,0 -2,-0.895431 -2,-2 0,-1.10457 0.895431,-2 2,-2 z m 10,-2 m 2,2 c 1.10457,0 2,0.895431 2,2 0,1.10457 -0.895431,2 -2,2 -1.10457,0 -2,-0.895431 -2,-2 0,-1.10457 0.895431,-2 2,-2 z m 2,-2 m 2,2 c 1.10457,0 2,0.895431 2,2 0,1.10457 -0.895431,2 -2,2 -1.10457,0 -2,-0.895431 -2,-2 0,-1.10457 0.895431,-2 2,-2 z m 2,-2 m 2,2 c 1.10457,0 2,0.895431 2,2 0,1.10457 -0.895431,2 -2,2 -1.10457,0 -2,-0.895431 -2,-2 0,-1.10457 0.895431,-2 2,-2 z m 10,-2 m 2,2 c 1.10457,0 2,0.895431 2,2 0,1.10457 -0.895431,2 -2,2 -1.10457,0 -2,-0.895431 -2,-2 0,-1.10457 0.895431,-2 2,-2 z m 2,-2 m 2,2 c 1.10457,0 2,0.895431 2,2 0,1.10457 -0.895431,2 -2,2 -1.10457,0 -2,-0.895431 -2,-2 0,-1.10457 0.895431,-2 2,-2 z m 6,-2 m 2,2 c 1.10457,0 2,0.895431 2,2 0,1.10457 -0.895431,2 -2,2 -1.10457,0 -2,-0.895431 -2,-2 0,-1.10457 0.895431,-2 2,-2 z m 6,-2 m 2,2 c 1.10457,0 2,0.895431 2,2 0,1.10457 -0.895431,2 -2,2 -1.10457,0 -2,-0.895431 -2,-2 0,-1.10457 0.895431,-2 2,-2 z m 2,-2 m 2,2 c 1.10457,0 2,0.895431 2,2 0,1.10457 -0.89543,2 -2,2 -1.10457,0 -2,-0.895431 -2,-2 0,-1.10457 0.89543,-2 2,-2 z m 2,-2 m 2,2 c 1.10457,0 2,0.895431 2,2 0,1.10457 -0.89543,2 -2,2 -1.10457,0 -2,-0.895431 -2,-2 0,-1.10457 0.89543,-2 2,-2 z m 6,-2 m 2,2 c 1.10457,0 2,0.895431 2,2 0,1.10457 -0.89543,2 -2,2 -1.10457,0 -2,-0.895431 -2,-2 0,-1.10457 0.89543,-2 2,-2 z m 26,-2 m 2,2 c 1.10457,0 2,0.895431 2,2 0,1.10457 -0.89543,2 -2,2 -1.10457,0 -2,-0.895431 -2,-2 0,-1.10457 0.89543,-2 2,-2 z M 20,76 m 2,2 c 1.10457,0 2,0.895431 2,2 0,1.10457 -0.895431,2 -2,2 -1.10457,0 -2,-0.895431 -2,-2 0,-1.10457 0.895431,-2 2,-2 z m 2,-2 m 2,2 c 1.10457,0 2,0.895431 2,2 0,1.10457 -0.895431,2 -2,2 -1.10457,0 -2,-0.895431 -2,-2 0,-1.10457 0.895431,-2 2,-2 z m 2,-2 m 2,2 c 1.10457,0 2,0.895431 2,2 0,1.10457 -0.895431,2 -2,2 -1.10457,0 -2,-0.895431 -2,-2 0,-1.10457 0.895431,-2 2,-2 z m 6,-2 m 2,2 c 1.10457,0 2,0.895431 2,2 0,1.10457 -0.895431,2 -2,2 -1.10457,0 -2,-0.895431 -2,-2 0,-1.10457 0.895431,-2 2,-2 z m 6,-2 m 2,2 c 1.10457,0 2,0.895431 2,2 0,1.10457 -0.895431,2 -2,2 -1.10457,0 -2,-0.895431 -2,-2 0,-1.10457 0.895431,-2 2,-2 z m 10,-2 m 2,2 c 1.10457,0 2,0.895431 2,2 0,1.10457 -0.895431,2 -2,2 -1.10457,0 -2,-0.895431 -2,-2 0,-1.10457 0.895431,-2 2,-2 z m 2,-2 m 2,2 c 1.10457,0 2,0.895431 2,2 0,1.10457 -0.895431,2 -2,2 -1.10457,0 -2,-0.895431 -2,-2 0,-1.10457 0.895431,-2 2,-2 z m 10,-2 m 2,2 c 1.10457,0 2,0.895431 2,2 0,1.10457 -0.895431,2 -2,2 -1.10457,0 -2,-0.895431 -2,-2 0,-1.10457 0.895431,-2 2,-2 z m 6,-2 m 2,2 c 1.10457,0 2,0.895431 2,2 0,1.10457 -0.895431,2 -2,2 -1.10457,0 -2,-0.895431 -2,-2 0,-1.10457 0.895431,-2 2,-2 z m 18,-2 m 2,2 c 1.10457,0 2,0.895431 2,2 0,1.10457 -0.89543,2 -2,2 -1.10457,0 -2,-0.895431 -2,-2 0,-1.10457 0.89543,-2 2,-2 z m 14,-2 m 2,2 c 1.10457,0 2,0.895431 2,2 0,1.10457 -0.89543,2 -2,2 -1.10457,0 -2,-0.895431 -2,-2 0,-1.10457 0.89543,-2 2,-2 z m 2,-2 m 2,2 c 1.10457,0 2,0.895431 2,2 0,1.10457 -0.89543,2 -2,2 -1.10457,0 -2,-0.895431 -2,-2 0,-1.10457 0.89543,-2 2,-2 z m 14,-2 m 2,2 c 1.10457,0 2,0.895431 2,2 0,1.10457 -0.89543,2 -2,2 -1.10457,0 -2,-0.895431 -2,-2 0,-1.10457 0.89543,-2 2,-2 z M 24,80 m 2,2 c 1.10457,0 2,0.895431 2,2 0,1.10457 -0.895431,2 -2,2 -1.10457,0 -2,-0.895431 -2,-2 0,-1.10457 0.895431,-2 2,-2 z m 6,-2 m 2,2 c 1.10457,0 2,0.895431 2,2 0,1.10457 -0.895431,2 -2,2 -1.10457,0 -2,-0.895431 -2,-2 0,-1.10457 0.895431,-2 2,-2 z m 2,-2 m 2,2 c 1.10457,0 2,0.895431 2,2 0,1.10457 -0.895431,2 -2,2 -1.10457,0 -2,-0.895431 -2,-2 0,-1.10457 0.895431,-2 2,-2 z m 2,-2 m 2,2 c 1.10457,0 2,0.895431 2,2 0,1.10457 -0.895431,2 -2,2 -1.10457,0 -2,-0.895431 -2,-2 0,-1.10457 0.895431,-2 2,-2 z m 2,-2 m 2,2 c 1.10457,0 2,0.895431 2,2 0,1.10457 -0.895431,2 -2,2 -1.10457,0 -2,-0.895431 -2,-2 0,-1.10457 0.895431,-2 2,-2 z m 10,-2 m 2,2 c 1.10457,0 2,0.895431 2,2 0,1.10457 -0.895431,2 -2,2 -1.10457,0 -2,-0.895431 -2,-2 0,-1.10457 0.895431,-2 2,-2 z m 2,-2 m 2,2 c 1.10457,0 2,0.895431 2,2 0,1.10457 -0.895431,2 -2,2 -1.10457,0 -2,-0.895431 -2,-2 0,-1.10457 0.895431,-2 2,-2 z m 14,-2 m 2,2 c 1.10457,0 2,0.895431 2,2 0,1.10457 -0.895431,2 -2,2 -1.10457,0 -2,-0.895431 -2,-2 0,-1.10457 0.895431,-2 2,-2 z m 6,-2 m 2,2 c 1.10457,0 2,0.895431 2,2 0,1.10457 -0.895431,2 -2,2 -1.10457,0 -2,-0.895431 -2,-2 0,-1.10457 0.895431,-2 2,-2 z m 2,-2 m 2,2 c 1.10457,0 2,0.895431 2,2 0,1.10457 -0.895431,2 -2,2 -1.10457,0 -2,-0.895431 -2,-2 0,-1.10457 0.895431,-2 2,-2 z m 2,-2 m 2,2 c 1.10457,0 2,0.895431 2,2 0,1.10457 -0.895431,2 -2,2 -1.10457,0 -2,-0.895431 -2,-2 0,-1.10457 0.895431,-2 2,-2 z m 2,-2 m 2,2 c 1.10457,0 2,0.895431 2,2 0,1.10457 -0.895431,2 -2,2 -1.10457,0 -2,-0.895431 -2,-2 0,-1.10457 0.895431,-2 2,-2 z m 6,-2 m 2,2 c 1.10457,0 2,0.895431 2,2 0,1.10457 -0.89543,2 -2,2 -1.10457,0 -2,-0.895431 -2,-2 0,-1.10457 0.89543,-2 2,-2 z m 10,-2 m 2,2 c 1.10457,0 2,0.895431 2,2 0,1.10457 -0.89543,2 -2,2 -1.10457,0 -2,-0.895431 -2,-2 0,-1.10457 0.89543,-2 2,-2 z m 6,-2 m 2,2 c 1.10457,0 2,0.895431 2,2 0,1.10457 -0.89543,2 -2,2 -1.10457,0 -2,-0.895431 -2,-2 0,-1.10457 0.89543,-2 2,-2 z m 2,-2 m 2,2 c 1.10457,0 2,0.895431 2,2 0,1.10457 -0.89543,2 -2,2 -1.10457,0 -2,-0.895431 -2,-2 0,-1.10457 0.89543,-2 2,-2 z m 10,-2 m 2,2 c 1.10457,0 2,0.895431 2,2 0,1.10457 -0.89543,2 -2,2 -1.10457,0 -2,-0.895431 -2,-2 0,-1.10457 0.89543,-2 2,-2 z M 24,84 m 2,2 c 1.10457,0 2,0.895431 2,2 0,1.10457 -0.895431,2 -2,2 -1.10457,0 -2,-0.895431 -2,-2 0,-1.10457 0.895431,-2 2,-2 z m 2,-2 m 2,2 c 1.10457,0 2,0.895431 2,2 0,1.10457 -0.895431,2 -2,2 -1.10457,0 -2,-0.895431 -2,-2 0,-1.10457 0.895431,-2 2,-2 z m 14,-2 m 2,2 c 1.10457,0 2,0.895431 2,2 0,1.10457 -0.895431,2 -2,2 -1.10457,0 -2,-0.895431 -2,-2 0,-1.10457 0.895431,-2 2,-2 z m 6,-2 m 2,2 c 1.10457,0 2,0.895431 2,2 0,1.10457 -0.895431,2 -2,2 -1.10457,0 -2,-0.895431 -2,-2 0,-1.10457 0.895431,-2 2,-2 z m 2,-2 m 2,2 c 1.10457,0 2,0.895431 2,2 0,1.10457 -0.895431,2 -2,2 -1.10457,0 -2,-0.895431 -2,-2 0,-1.10457 0.895431,-2 2,-2 z m 6,-2 m 2,2 c 1.10457,0 2,0.895431 2,2 0,1.10457 -0.895431,2 -2,2 -1.10457,0 -2,-0.895431 -2,-2 0,-1.10457 0.895431,-2 2,-2 z m 2,-2 m 2,2 c 1.10457,0 2,0.895431 2,2 0,1.10457 -0.895431,2 -2,2 -1.10457,0 -2,-0.895431 -2,-2 0,-1.10457 0.895431,-2 2,-2 z m 2,-2 m 2,2 c 1.10457,0 2,0.895431 2,2 0,1.10457 -0.895431,2 -2,2 -1.10457,0 -2,-0.895431 -2,-2 0,-1.10457 0.895431,-2 2,-2 z m 6,-2 m 2,2 c 1.10457,0 2,0.895431 2,2 0,1.10457 -0.895431,2 -2,2 -1.10457,0 -2,-0.895431 -2,-2 0,-1.10457 0.895431,-2 2,-2 z m 10,-2 m 2,2 c 1.10457,0 2,0.895431 2,2 0,1.10457 -0.895431,2 -2,2 -1.10457,0 -2,-0.895431 -2,-2 0,-1.10457 0.895431,-2 2,-2 z m 2,-2 m 2,2 c 1.10457,0 2,0.895431 2,2 0,1.10457 -0.895431,2 -2,2 -1.10457,0 -2,-0.895431 -2,-2 0,-1.10457 0.895431,-2 2,-2 z m 10,-2 m 2,2 c 1.10457,0 2,0.895431 2,2 0,1.10457 -0.89543,2 -2,2 -1.10457,0 -2,-0.895431 -2,-2 0,-1.10457 0.89543,-2 2,-2 z m 10,-2 m 2,2 c 1.10457,0 2,0.895431 2,2 0,1.10457 -0.89543,2 -2,2 -1.10457,0 -2,-0.895431 -2,-2 0,-1.10457 0.89543,-2 2,-2 z m 10,-2 m 2,2 c 1.10457,0 2,0.895431 2,2 0,1.10457 -0.89543,2 -2,2 -1.10457,0 -2,-0.895431 -2,-2 0,-1.10457 0.89543,-2 2,-2 z m 6,-2 m 2,2 c 1.10457,0 2,0.895431 2,2 0,1.10457 -0.89543,2 -2,2 -1.10457,0 -2,-0.895431 -2,-2 0,-1.10457 0.89543,-2 2,-2 z m 2,-2 m 2,2 c 1.10457,0 2,0.895431 2,2 0,1.10457 -0.89543,2 -2,2 -1.10457,0 -2,-0.895431 -2,-2 0,-1.10457 0.89543,-2 2,-2 z M 20,88 m 2,2 c 1.10457,0 2,0.895431 2,2 0,1.10457 -0.895431,2 -2,2 -1.10457,0 -2,-0.895431 -2,-2 0,-1.10457 0.895431,-2 2,-2 z m 6,-2 m 2,2 c 1.10457,0 2,0.895431 2,2 0,1.10457 -0.895431,2 -2,2 -1.10457,0 -2,-0.895431 -2,-2 0,-1.10457 0.895431,-2 2,-2 z m 10,-2 m 2,2 c 1.10457,0 2,0.895431 2,2 0,1.10457 -0.895431,2 -2,2 -1.10457,0 -2,-0.895431 -2,-2 0,-1.10457 0.895431,-2 2,-2 z m 6,-2 m 2,2 c 1.10457,0 2,0.895431 2,2 0,1.10457 -0.895431,2 -2,2 -1.10457,0 -2,-0.895431 -2,-2 0,-1.10457 0.895431,-2 2,-2 z m 18,-2 m 2,2 c 1.10457,0 2,0.895431 2,2 0,1.10457 -0.895431,2 -2,2 -1.10457,0 -2,-0.895431 -2,-2 0,-1.10457 0.895431,-2 2,-2 z m 2,-2 m 2,2 c 1.10457,0 2,0.895431 2,2 0,1.10457 -0.895431,2 -2,2 -1.10457,0 -2,-0.895431 -2,-2 0,-1.10457 0.895431,-2 2,-2 z m 2,-2 m 2,2 c 1.10457,0 2,0.895431 2,2 0,1.10457 -0.895431,2 -2,2 -1.10457,0 -2,-0.895431 -2,-2 0,-1.10457 0.895431,-2 2,-2 z m 6,-2 m 2,2 c 1.10457,0 2,0.895431 2,2 0,1.10457 -0.895431,2 -2,2 -1.10457,0 -2,-0.895431 -2,-2 0,-1.10457 0.895431,-2 2,-2 z m 2,-2 m 2,2 c 1.10457,0 2,0.895431 2,2 0,1.10457 -0.895431,2 -2,2 -1.10457,0 -2,-0.895431 -2,-2 0,-1.10457 0.895431,-2 2,-2 z m 6,-2 m 2,2 c 1.10457,0 2,0.895431 2,2 0,1.10457 -0.895431,2 -2,2 -1.10457,0 -2,-0.895431 -2,-2 0,-1.10457 0.895431,-2 2,-2 z m 2,-2 m 2,2 c 1.10457,0 2,0.895431 2,2 0,1.10457 -0.89543,2 -2,2 -1.10457,0 -2,-0.895431 -2,-2 0,-1.10457 0.89543,-2 2,-2 z m 10,-2 m 2,2 c 1.10457,0 2,0.895431 2,2 0,1.10457 -0.89543,2 -2,2 -1.10457,0 -2,-0.895431 -2,-2 0,-1.10457 0.89543,-2 2,-2 z m 10,-2 m 2,2 c 1.10457,0 2,0.895431 2,2 0,1.10457 -0.89543,2 -2,2 -1.10457,0 -2,-0.895431 -2,-2 0,-1.10457 0.89543,-2 2,-2 z m 6,-2 m 2,2 c 1.10457,0 2,0.895431 2,2 0,1.10457 -0.89543,2 -2,2 -1.10457,0 -2,-0.895431 -2,-2 0,-1.10457 0.89543,-2 2,-2 z m 6,-2 m 2,2 c 1.10457,0 2,0.895431 2,2 0,1.10457 -0.89543,2 -2,2 -1.10457,0 -2,-0.895431 -2,-2 0,-1.10457 0.89543,-2 2,-2 z M 16,92 m 2,2 c 1.10457,0 2,0.895431 2,2 0,1.10457 -0.895431,2 -2,2 -1.10457,0 -2,-0.895431 -2,-2 0,-1.10457 0.895431,-2 2,-2 z m 6,-2 m 2,2 c 1.10457,0 2,0.895431 2,2 0,1.10457 -0.895431,2 -2,2 -1.10457,0 -2,-0.895431 -2,-2 0,-1.10457 0.895431,-2 2,-2 z m 10,-2 m 2,2 c 1.10457,0 2,0.895431 2,2 0,1.10457 -0.895431,2 -2,2 -1.10457,0 -2,-0.895431 -2,-2 0,-1.10457 0.895431,-2 2,-2 z m 6,-2 m 2,2 c 1.10457,0 2,0.895431 2,2 0,1.10457 -0.895431,2 -2,2 -1.10457,0 -2,-0.895431 -2,-2 0,-1.10457 0.895431,-2 2,-2 z m 2,-2 m 2,2 c 1.10457,0 2,0.895431 2,2 0,1.10457 -0.895431,2 -2,2 -1.10457,0 -2,-0.895431 -2,-2 0,-1.10457 0.895431,-2 2,-2 z m 2,-2 m 2,2 c 1.10457,0 2,0.895431 2,2 0,1.10457 -0.895431,2 -2,2 -1.10457,0 -2,-0.895431 -2,-2 0,-1.10457 0.895431,-2 2,-2 z m 2,-2 m 2,2 c 1.10457,0 2,0.895431 2,2 0,1.10457 -0.895431,2 -2,2 -1.10457,0 -2,-0.895431 -2,-2 0,-1.10457 0.895431,-2 2,-2 z m 6,-2 m 2,2 c 1.10457,0 2,0.895431 2,2 0,1.10457 -0.895431,2 -2,2 -1.10457,0 -2,-0.895431 -2,-2 0,-1.10457 0.895431,-2 2,-2 z m 2,-2 m 2,2 c 1.10457,0 2,0.895431 2,2 0,1.10457 -0.895431,2 -2,2 -1.10457,0 -2,-0.895431 -2,-2 0,-1.10457 0.895431,-2 2,-2 z m 10,-2 m 2,2 c 1.10457,0 2,0.895431 2,2 0,1.10457 -0.895431,2 -2,2 -1.10457,0 -2,-0.895431 -2,-2 0,-1.10457 0.895431,-2 2,-2 z m 6,-2 m 2,2 c 1.10457,0 2,0.895431 2,2 0,1.10457 -0.895431,2 -2,2 -1.10457,0 -2,-0.895431 -2,-2 0,-1.10457 0.895431,-2 2,-2 z m 6,-2 m 2,2 c 1.10457,0 2,0.895431 2,2 0,1.10457 -0.895431,2 -2,2 -1.10457,0 -2,-0.895431 -2,-2 0,-1.10457 0.895431,-2 2,-2 z m 2,-2 m 2,2 c 1.10457,0 2,0.895431 2,2 0,1.10457 -0.89543,2 -2,2 -1.10457,0 -2,-0.895431 -2,-2 0,-1.10457 0.89543,-2 2,-2 z m 2,-2 m 2,2 c 1.10457,0 2,0.895431 2,2 0,1.10457 -0.89543,2 -2,2 -1.10457,0 -2,-0.895431 -2,-2 0,-1.10457 0.89543,-2 2,-2 z m 10,-2 m 2,2 c 1.10457,0 2,0.895431 2,2 0,1.10457 -0.89543,2 -2,2 -1.10457,0 -2,-0.895431 -2,-2 0,-1.10457 0.89543,-2 2,-2 z m 2,-2 m 2,2 c 1.10457,0 2,0.895431 2,2 0,1.10457 -0.89543,2 -2,2 -1.10457,0 -2,-0.895431 -2,-2 0,-1.10457 0.89543,-2 2,-2 z m 14,-2 m 2,2 c 1.10457,0 2,0.895431 2,2 0,1.10457 -0.89543,2 -2,2 -1.10457,0 -2,-0.895431 -2,-2 0,-1.10457 0.89543,-2 2,-2 z M 20,96 m 2,2 c 1.10457,0 2,0.895431 2,2 0,1.10457 -0.895431,2 -2,2 -1.10457,0 -2,-0.89543 -2,-2 0,-1.10457 0.895431,-2 2,-2 z m 2,-2 m 2,2 c 1.10457,0 2,0.895431 2,2 0,1.10457 -0.895431,2 -2,2 -1.10457,0 -2,-0.89543 -2,-2 0,-1.10457 0.895431,-2 2,-2 z m 6,-2 m 2,2 c 1.10457,0 2,0.895431 2,2 0,1.10457 -0.895431,2 -2,2 -1.10457,0 -2,-0.89543 -2,-2 0,-1.10457 0.895431,-2 2,-2 z m 6,-2 m 2,2 c 1.10457,0 2,0.895431 2,2 0,1.10457 -0.895431,2 -2,2 -1.10457,0 -2,-0.89543 -2,-2 0,-1.10457 0.895431,-2 2,-2 z m 2,-2 m 2,2 c 1.10457,0 2,0.895431 2,2 0,1.10457 -0.895431,2 -2,2 -1.10457,0 -2,-0.89543 -2,-2 0,-1.10457 0.895431,-2 2,-2 z m 2,-2 m 2,2 c 1.10457,0 2,0.895431 2,2 0,1.10457 -0.895431,2 -2,2 -1.10457,0 -2,-0.89543 -2,-2 0,-1.10457 0.895431,-2 2,-2 z m 14,-2 m 2,2 c 1.10457,0 2,0.895431 2,2 0,1.10457 -0.895431,2 -2,2 -1.10457,0 -2,-0.89543 -2,-2 0,-1.10457 0.895431,-2 2,-2 z m 6,-2 m 2,2 c 1.10457,0 2,0.895431 2,2 0,1.10457 -0.895431,2 -2,2 -1.10457,0 -2,-0.89543 -2,-2 0,-1.10457 0.895431,-2 2,-2 z m 10,-2 m 2,2 c 1.10457,0 2,0.895431 2,2 0,1.10457 -0.895431,2 -2,2 -1.10457,0 -2,-0.89543 -2,-2 0,-1.10457 0.895431,-2 2,-2 z m 2,-2 m 2,2 c 1.10457,0 2,0.895431 2,2 0,1.10457 -0.895431,2 -2,2 -1.10457,0 -2,-0.89543 -2,-2 0,-1.10457 0.895431,-2 2,-2 z m 14,-2 m 2,2 c 1.10457,0 2,0.895431 2,2 0,1.10457 -0.89543,2 -2,2 -1.10457,0 -2,-0.89543 -2,-2 0,-1.10457 0.89543,-2 2,-2 z m 6,-2 m 2,2 c 1.10457,0 2,0.895431 2,2 0,1.10457 -0.89543,2 -2,2 -1.10457,0 -2,-0.89543 -2,-2 0,-1.10457 0.89543,-2 2,-2 z m 2,-2 m 2,2 c 1.10457,0 2,0.895431 2,2 0,1.10457 -0.89543,2 -2,2 -1.10457,0 -2,-0.89543 -2,-2 0,-1.10457 0.89543,-2 2,-2 z m 6,-2 m 2,2 c 1.10457,0 2,0.895431 2,2 0,1.10457 -0.89543,2 -2,2 -1.10457,0 -2,-0.89543 -2,-2 0,-1.10457 0.89543,-2 2,-2 z m 2,-2 m 2,2 c 1.10457,0 2,0.895431 2,2 0,1.10457 -0.89543,2 -2,2 -1.10457,0 -2,-0.89543 -2,-2 0,-1.10457 0.89543,-2 2,-2 z m 10,-2 m 2,2 c 1.10457,0 2,0.895431 2,2 0,1.10457 -0.89543,2 -2,2 -1.10457,0 -2,-0.89543 -2,-2 0,-1.10457 0.89543,-2 2,-2 z m -126,2 m 2,2 c 1.10457,0 2,0.89543 2,2 0,1.10457 -0.895431,2 -2,2 -1.10457,0 -2,-0.89543 -2,-2 0,-1.10457 0.895431,-2 2,-2 z m 10,-2 m 2,2 c 1.10457,0 2,0.89543 2,2 0,1.10457 -0.895431,2 -2,2 -1.10457,0 -2,-0.89543 -2,-2 0,-1.10457 0.895431,-2 2,-2 z m 2,-2 m 2,2 c 1.10457,0 2,0.89543 2,2 0,1.10457 -0.895431,2 -2,2 -1.10457,0 -2,-0.89543 -2,-2 0,-1.10457 0.895431,-2 2,-2 z m 2,-2 m 2,2 c 1.10457,0 2,0.89543 2,2 0,1.10457 -0.895431,2 -2,2 -1.10457,0 -2,-0.89543 -2,-2 0,-1.10457 0.895431,-2 2,-2 z m 14,-2 m 2,2 c 1.10457,0 2,0.89543 2,2 0,1.10457 -0.895431,2 -2,2 -1.10457,0 -2,-0.89543 -2,-2 0,-1.10457 0.895431,-2 2,-2 z m 26,-2 m 2,2 c 1.10457,0 2,0.89543 2,2 0,1.10457 -0.895431,2 -2,2 -1.10457,0 -2,-0.89543 -2,-2 0,-1.10457 0.895431,-2 2,-2 z m 10,-2 m 2,2 c 1.10457,0 2,0.89543 2,2 0,1.10457 -0.895431,2 -2,2 -1.10457,0 -2,-0.89543 -2,-2 0,-1.10457 0.895431,-2 2,-2 z m 2,-2 m 2,2 c 1.10457,0 2,0.89543 2,2 0,1.10457 -0.895431,2 -2,2 -1.10457,0 -2,-0.89543 -2,-2 0,-1.10457 0.895431,-2 2,-2 z m 10,-2 m 2,2 c 1.10457,0 2,0.89543 2,2 0,1.10457 -0.89543,2 -2,2 -1.10457,0 -2,-0.89543 -2,-2 0,-1.10457 0.89543,-2 2,-2 z m 10,-2 m 2,2 c 1.10457,0 2,0.89543 2,2 0,1.10457 -0.89543,2 -2,2 -1.10457,0 -2,-0.89543 -2,-2 0,-1.10457 0.89543,-2 2,-2 z m 10,-2 m 2,2 c 1.10457,0 2,0.89543 2,2 0,1.10457 -0.89543,2 -2,2 -1.10457,0 -2,-0.89543 -2,-2 0,-1.10457 0.89543,-2 2,-2 z m 6,-2 m 2,2 c 1.10457,0 2,0.89543 2,2 0,1.10457 -0.89543,2 -2,2 -1.10457,0 -2,-0.89543 -2,-2 0,-1.10457 0.89543,-2 2,-2 z m 2,-2 m 2,2 c 1.10457,0 2,0.89543 2,2 0,1.10457 -0.89543,2 -2,2 -1.10457,0 -2,-0.89543 -2,-2 0,-1.10457 0.89543,-2 2,-2 z m -130,2 m 2,2 c 1.10457,0 2,0.89543 2,2 0,1.10457 -0.895431,2 -2,2 -1.10457,0 -2,-0.89543 -2,-2 0,-1.10457 0.895431,-2 2,-2 z m 18,-2 m 2,2 c 1.10457,0 2,0.89543 2,2 0,1.10457 -0.895431,2 -2,2 -1.10457,0 -2,-0.89543 -2,-2 0,-1.10457 0.895431,-2 2,-2 z m 2,-2 m 2,2 c 1.10457,0 2,0.89543 2,2 0,1.10457 -0.895431,2 -2,2 -1.10457,0 -2,-0.89543 -2,-2 0,-1.10457 0.895431,-2 2,-2 z m 2,-2 m 2,2 c 1.10457,0 2,0.89543 2,2 0,1.10457 -0.895431,2 -2,2 -1.10457,0 -2,-0.89543 -2,-2 0,-1.10457 0.895431,-2 2,-2 z m 10,-2 m 2,2 c 1.10457,0 2,0.89543 2,2 0,1.10457 -0.895431,2 -2,2 -1.10457,0 -2,-0.89543 -2,-2 0,-1.10457 0.895431,-2 2,-2 z m 2,-2 m 2,2 c 1.10457,0 2,0.89543 2,2 0,1.10457 -0.895431,2 -2,2 -1.10457,0 -2,-0.89543 -2,-2 0,-1.10457 0.895431,-2 2,-2 z m 2,-2 m 2,2 c 1.10457,0 2,0.89543 2,2 0,1.10457 -0.895431,2 -2,2 -1.10457,0 -2,-0.89543 -2,-2 0,-1.10457 0.895431,-2 2,-2 z m 10,-2 m 2,2 c 1.10457,0 2,0.89543 2,2 0,1.10457 -0.895431,2 -2,2 -1.10457,0 -2,-0.89543 -2,-2 0,-1.10457 0.895431,-2 2,-2 z m 2,-2 m 2,2 c 1.10457,0 2,0.89543 2,2 0,1.10457 -0.895431,2 -2,2 -1.10457,0 -2,-0.89543 -2,-2 0,-1.10457 0.895431,-2 2,-2 z m 2,-2 m 2,2 c 1.10457,0 2,0.89543 2,2 0,1.10457 -0.895431,2 -2,2 -1.10457,0 -2,-0.89543 -2,-2 0,-1.10457 0.895431,-2 2,-2 z m 14,-2 m 2,2 c 1.10457,0 2,0.89543 2,2 0,1.10457 -0.89543,2 -2,2 -1.10457,0 -2,-0.89543 -2,-2 0,-1.10457 0.89543,-2 2,-2 z m 2,-2 m 2,2 c 1.10457,0 2,0.89543 2,2 0,1.10457 -0.89543,2 -2,2 -1.10457,0 -2,-0.89543 -2,-2 0,-1.10457 0.89543,-2 2,-2 z m 6,-2 m 2,2 c 1.10457,0 2,0.89543 2,2 0,1.10457 -0.89543,2 -2,2 -1.10457,0 -2,-0.89543 -2,-2 0,-1.10457 0.89543,-2 2,-2 z m 6,-2 m 2,2 c 1.10457,0 2,0.89543 2,2 0,1.10457 -0.89543,2 -2,2 -1.10457,0 -2,-0.89543 -2,-2 0,-1.10457 0.89543,-2 2,-2 z m 2,-2 m 2,2 c 1.10457,0 2,0.89543 2,2 0,1.10457 -0.89543,2 -2,2 -1.10457,0 -2,-0.89543 -2,-2 0,-1.10457 0.89543,-2 2,-2 z m 6,-2 m 2,2 c 1.10457,0 2,0.89543 2,2 0,1.10457 -0.89543,2 -2,2 -1.10457,0 -2,-0.89543 -2,-2 0,-1.10457 0.89543,-2 2,-2 z m 6,-2 m 2,2 c 1.10457,0 2,0.89543 2,2 0,1.10457 -0.89543,2 -2,2 -1.10457,0 -2,-0.89543 -2,-2 0,-1.10457 0.89543,-2 2,-2 z m -126,2 m 2,2 c 1.10457,0 2,0.89543 2,2 0,1.10457 -0.895431,2 -2,2 -1.10457,0 -2,-0.89543 -2,-2 0,-1.10457 0.895431,-2 2,-2 z m 6,-2 m 2,2 c 1.10457,0 2,0.89543 2,2 0,1.10457 -0.895431,2 -2,2 -1.10457,0 -2,-0.89543 -2,-2 0,-1.10457 0.895431,-2 2,-2 z m 2,-2 m 2,2 c 1.10457,0 2,0.89543 2,2 0,1.10457 -0.895431,2 -2,2 -1.10457,0 -2,-0.89543 -2,-2 0,-1.10457 0.895431,-2 2,-2 z m 6,-2 m 2,2 c 1.10457,0 2,0.89543 2,2 0,1.10457 -0.895431,2 -2,2 -1.10457,0 -2,-0.89543 -2,-2 0,-1.10457 0.895431,-2 2,-2 z m 6,-2 m 2,2 c 1.10457,0 2,0.89543 2,2 0,1.10457 -0.895431,2 -2,2 -1.10457,0 -2,-0.89543 -2,-2 0,-1.10457 0.895431,-2 2,-2 z m 2,-2 m 2,2 c 1.10457,0 2,0.89543 2,2 0,1.10457 -0.895431,2 -2,2 -1.10457,0 -2,-0.89543 -2,-2 0,-1.10457 0.895431,-2 2,-2 z m 2,-2 m 2,2 c 1.10457,0 2,0.89543 2,2 0,1.10457 -0.895431,2 -2,2 -1.10457,0 -2,-0.89543 -2,-2 0,-1.10457 0.895431,-2 2,-2 z m 6,-2 m 2,2 c 1.10457,0 2,0.89543 2,2 0,1.10457 -0.895431,2 -2,2 -1.10457,0 -2,-0.89543 -2,-2 0,-1.10457 0.895431,-2 2,-2 z m 10,-2 m 2,2 c 1.10457,0 2,0.89543 2,2 0,1.10457 -0.895431,2 -2,2 -1.10457,0 -2,-0.89543 -2,-2 0,-1.10457 0.895431,-2 2,-2 z m 2,-2 m 2,2 c 1.10457,0 2,0.89543 2,2 0,1.10457 -0.895431,2 -2,2 -1.10457,0 -2,-0.89543 -2,-2 0,-1.10457 0.895431,-2 2,-2 z m 14,-2 m 2,2 c 1.10457,0 2,0.89543 2,2 0,1.10457 -0.895431,2 -2,2 -1.10457,0 -2,-0.89543 -2,-2 0,-1.10457 0.895431,-2 2,-2 z m 2,-2 m 2,2 c 1.10457,0 2,0.89543 2,2 0,1.10457 -0.895431,2 -2,2 -1.10457,0 -2,-0.89543 -2,-2 0,-1.10457 0.895431,-2 2,-2 z m 2,-2 m 2,2 c 1.10457,0 2,0.89543 2,2 0,1.10457 -0.89543,2 -2,2 -1.10457,0 -2,-0.89543 -2,-2 0,-1.10457 0.89543,-2 2,-2 z m 2,-2 m 2,2 c 1.10457,0 2,0.89543 2,2 0,1.10457 -0.89543,2 -2,2 -1.10457,0 -2,-0.89543 -2,-2 0,-1.10457 0.89543,-2 2,-2 z m 2,-2 m 2,2 c 1.10457,0 2,0.89543 2,2 0,1.10457 -0.89543,2 -2,2 -1.10457,0 -2,-0.89543 -2,-2 0,-1.10457 0.89543,-2 2,-2 z m 22,-2 m 2,2 c 1.10457,0 2,0.89543 2,2 0,1.10457 -0.89543,2 -2,2 -1.10457,0 -2,-0.89543 -2,-2 0,-1.10457 0.89543,-2 2,-2 z m 2,-2 m 2,2 c 1.10457,0 2,0.89543 2,2 0,1.10457 -0.89543,2 -2,2 -1.10457,0 -2,-0.89543 -2,-2 0,-1.10457 0.89543,-2 2,-2 z m -122,2 m 2,2 c 1.10457,0 2,0.89543 2,2 0,1.10457 -0.895431,2 -2,2 -1.10457,0 -2,-0.89543 -2,-2 0,-1.10457 0.895431,-2 2,-2 z m 10,-2 m 2,2 c 1.10457,0 2,0.89543 2,2 0,1.10457 -0.895431,2 -2,2 -1.10457,0 -2,-0.89543 -2,-2 0,-1.10457 0.895431,-2 2,-2 z m 2,-2 m 2,2 c 1.10457,0 2,0.89543 2,2 0,1.10457 -0.895431,2 -2,2 -1.10457,0 -2,-0.89543 -2,-2 0,-1.10457 0.895431,-2 2,-2 z m 2,-2 m 2,2 c 1.10457,0 2,0.89543 2,2 0,1.10457 -0.895431,2 -2,2 -1.10457,0 -2,-0.89543 -2,-2 0,-1.10457 0.895431,-2 2,-2 z m 2,-2 m 2,2 c 1.10457,0 2,0.89543 2,2 0,1.10457 -0.895431,2 -2,2 -1.10457,0 -2,-0.89543 -2,-2 0,-1.10457 0.895431,-2 2,-2 z m 2,-2 m 2,2 c 1.10457,0 2,0.89543 2,2 0,1.10457 -0.895431,2 -2,2 -1.10457,0 -2,-0.89543 -2,-2 0,-1.10457 0.895431,-2 2,-2 z m 2,-2 m 2,2 c 1.10457,0 2,0.89543 2,2 0,1.10457 -0.895431,2 -2,2 -1.10457,0 -2,-0.89543 -2,-2 0,-1.10457 0.895431,-2 2,-2 z m 2,-2 m 2,2 c 1.10457,0 2,0.89543 2,2 0,1.10457 -0.895431,2 -2,2 -1.10457,0 -2,-0.89543 -2,-2 0,-1.10457 0.895431,-2 2,-2 z m 2,-2 m 2,2 c 1.10457,0 2,0.89543 2,2 0,1.10457 -0.895431,2 -2,2 -1.10457,0 -2,-0.89543 -2,-2 0,-1.10457 0.895431,-2 2,-2 z m 2,-2 m 2,2 c 1.10457,0 2,0.89543 2,2 0,1.10457 -0.895431,2 -2,2 -1.10457,0 -2,-0.89543 -2,-2 0,-1.10457 0.895431,-2 2,-2 z m 14,-2 m 2,2 c 1.10457,0 2,0.89543 2,2 0,1.10457 -0.895431,2 -2,2 -1.10457,0 -2,-0.89543 -2,-2 0,-1.10457 0.895431,-2 2,-2 z m 6,-2 m 2,2 c 1.10457,0 2,0.89543 2,2 0,1.10457 -0.895431,2 -2,2 -1.10457,0 -2,-0.89543 -2,-2 0,-1.10457 0.895431,-2 2,-2 z m 2,-2 m 2,2 c 1.10457,0 2,0.89543 2,2 0,1.10457 -0.895431,2 -2,2 -1.10457,0 -2,-0.89543 -2,-2 0,-1.10457 0.895431,-2 2,-2 z m 6,-2 m 2,2 c 1.10457,0 2,0.89543 2,2 0,1.10457 -0.895431,2 -2,2 -1.10457,0 -2,-0.89543 -2,-2 0,-1.10457 0.895431,-2 2,-2 z m 6,-2 m 2,2 c 1.10457,0 2,0.89543 2,2 0,1.10457 -0.89543,2 -2,2 -1.10457,0 -2,-0.89543 -2,-2 0,-1.10457 0.89543,-2 2,-2 z m 2,-2 m 2,2 c 1.10457,0 2,0.89543 2,2 0,1.10457 -0.89543,2 -2,2 -1.10457,0 -2,-0.89543 -2,-2 0,-1.10457 0.89543,-2 2,-2 z m 2,-2 m 2,2 c 1.10457,0 2,0.89543 2,2 0,1.10457 -0.89543,2 -2,2 -1.10457,0 -2,-0.89543 -2,-2 0,-1.10457 0.89543,-2 2,-2 z m 2,-2 m 2,2 c 1.10457,0 2,0.89543 2,2 0,1.10457 -0.89543,2 -2,2 -1.10457,0 -2,-0.89543 -2,-2 0,-1.10457 0.89543,-2 2,-2 z m 2,-2 m 2,2 c 1.10457,0 2,0.89543 2,2 0,1.10457 -0.89543,2 -2,2 -1.10457,0 -2,-0.89543 -2,-2 0,-1.10457 0.89543,-2 2,-2 z m 2,-2 m 2,2 c 1.10457,0 2,0.89543 2,2 0,1.10457 -0.89543,2 -2,2 -1.10457,0 -2,-0.89543 -2,-2 0,-1.10457 0.89543,-2 2,-2 z m 2,-2 m 2,2 c 1.10457,0 2,0.89543 2,2 0,1.10457 -0.89543,2 -2,2 -1.10457,0 -2,-0.89543 -2,-2 0,-1.10457 0.89543,-2 2,-2 z m 14,-2 m 2,2 c 1.10457,0 2,0.89543 2,2 0,1.10457 -0.89543,2 -2,2 -1.10457,0 -2,-0.89543 -2,-2 0,-1.10457 0.89543,-2 2,-2 z m -98,2 m 2,2 c 1.10457,0 2,0.89543 2,2 0,1.10457 -0.895431,2 -2,2 -1.10457,0 -2,-0.89543 -2,-2 0,-1.10457 0.895431,-2 2,-2 z m 2,-2 m 2,2 c 1.10457,0 2,0.89543 2,2 0,1.10457 -0.895431,2 -2,2 -1.10457,0 -2,-0.89543 -2,-2 0,-1.10457 0.895431,-2 2,-2 z m 10,-2 m 2,2 c 1.10457,0 2,0.89543 2,2 0,1.10457 -0.895431,2 -2,2 -1.10457,0 -2,-0.89543 -2,-2 0,-1.10457 0.895431,-2 2,-2 z m 2,-2 m 2,2 c 1.10457,0 2,0.89543 2,2 0,1.10457 -0.895431,2 -2,2 -1.10457,0 -2,-0.89543 -2,-2 0,-1.10457 0.895431,-2 2,-2 z m 2,-2 m 2,2 c 1.10457,0 2,0.89543 2,2 0,1.10457 -0.895431,2 -2,2 -1.10457,0 -2,-0.89543 -2,-2 0,-1.10457 0.895431,-2 2,-2 z m 6,-2 m 2,2 c 1.10457,0 2,0.89543 2,2 0,1.10457 -0.895431,2 -2,2 -1.10457,0 -2,-0.89543 -2,-2 0,-1.10457 0.895431,-2 2,-2 z m 10,-2 m 2,2 c 1.10457,0 2,0.89543 2,2 0,1.10457 -0.895431,2 -2,2 -1.10457,0 -2,-0.89543 -2,-2 0,-1.10457 0.895431,-2 2,-2 z m 2,-2 m 2,2 c 1.10457,0 2,0.89543 2,2 0,1.10457 -0.895431,2 -2,2 -1.10457,0 -2,-0.89543 -2,-2 0,-1.10457 0.895431,-2 2,-2 z m 2,-2 m 2,2 c 1.10457,0 2,0.89543 2,2 0,1.10457 -0.89543,2 -2,2 -1.10457,0 -2,-0.89543 -2,-2 0,-1.10457 0.89543,-2 2,-2 z m 10,-2 m 2,2 c 1.10457,0 2,0.89543 2,2 0,1.10457 -0.89543,2 -2,2 -1.10457,0 -2,-0.89543 -2,-2 0,-1.10457 0.89543,-2 2,-2 z m 14,-2 m 2,2 c 1.10457,0 2,0.89543 2,2 0,1.10457 -0.89543,2 -2,2 -1.10457,0 -2,-0.89543 -2,-2 0,-1.10457 0.89543,-2 2,-2 z m 14,-2 m 2,2 c 1.10457,0 2,0.89543 2,2 0,1.10457 -0.89543,2 -2,2 -1.10457,0 -2,-0.89543 -2,-2 0,-1.10457 0.89543,-2 2,-2 z m -130,2 m 2,2 c 1.10457,0 2,0.89543 2,2 0,1.10457 -0.895431,2 -2,2 -1.10457,0 -2,-0.89543 -2,-2 0,-1.10457 0.895431,-2 2,-2 z m 2,-2 m 2,2 c 1.10457,0 2,0.89543 2,2 0,1.10457 -0.895431,2 -2,2 -1.10457,0 -2,-0.89543 -2,-2 0,-1.10457 0.895431,-2 2,-2 z m 2,-2 m 2,2 c 1.10457,0 2,0.89543 2,2 0,1.10457 -0.895431,2 -2,2 -1.10457,0 -2,-0.89543 -2,-2 0,-1.10457 0.895431,-2 2,-2 z m 2,-2 m 2,2 c 1.10457,0 2,0.89543 2,2 0,1.10457 -0.895431,2 -2,2 -1.10457,0 -2,-0.89543 -2,-2 0,-1.10457 0.895431,-2 2,-2 z m 2,-2 m 2,2 c 1.10457,0 2,0.89543 2,2 0,1.10457 -0.895431,2 -2,2 -1.10457,0 -2,-0.89543 -2,-2 0,-1.10457 0.895431,-2 2,-2 z m 2,-2 m 2,2 c 1.10457,0 2,0.89543 2,2 0,1.10457 -0.895431,2 -2,2 -1.10457,0 -2,-0.89543 -2,-2 0,-1.10457 0.895431,-2 2,-2 z m 2,-2 m 2,2 c 1.10457,0 2,0.89543 2,2 0,1.10457 -0.895431,2 -2,2 -1.10457,0 -2,-0.89543 -2,-2 0,-1.10457 0.895431,-2 2,-2 z m 6,-2 m 2,2 c 1.10457,0 2,0.89543 2,2 0,1.10457 -0.895431,2 -2,2 -1.10457,0 -2,-0.89543 -2,-2 0,-1.10457 0.895431,-2 2,-2 z m 6,-2 m 2,2 c 1.10457,0 2,0.89543 2,2 0,1.10457 -0.895431,2 -2,2 -1.10457,0 -2,-0.89543 -2,-2 0,-1.10457 0.895431,-2 2,-2 z m 10,-2 m 2,2 c 1.10457,0 2,0.89543 2,2 0,1.10457 -0.895431,2 -2,2 -1.10457,0 -2,-0.89543 -2,-2 0,-1.10457 0.895431,-2 2,-2 z m 2,-2 m 2,2 c 1.10457,0 2,0.89543 2,2 0,1.10457 -0.895431,2 -2,2 -1.10457,0 -2,-0.89543 -2,-2 0,-1.10457 0.895431,-2 2,-2 z m 2,-2 m 2,2 c 1.10457,0 2,0.89543 2,2 0,1.10457 -0.895431,2 -2,2 -1.10457,0 -2,-0.89543 -2,-2 0,-1.10457 0.895431,-2 2,-2 z m 6,-2 m 2,2 c 1.10457,0 2,0.89543 2,2 0,1.10457 -0.895431,2 -2,2 -1.10457,0 -2,-0.89543 -2,-2 0,-1.10457 0.895431,-2 2,-2 z m 14,-2 m 2,2 c 1.10457,0 2,0.89543 2,2 0,1.10457 -0.89543,2 -2,2 -1.10457,0 -2,-0.89543 -2,-2 0,-1.10457 0.89543,-2 2,-2 z m 2,-2 m 2,2 c 1.10457,0 2,0.89543 2,2 0,1.10457 -0.89543,2 -2,2 -1.10457,0 -2,-0.89543 -2,-2 0,-1.10457 0.89543,-2 2,-2 z m 2,-2 m 2,2 c 1.10457,0 2,0.89543 2,2 0,1.10457 -0.89543,2 -2,2 -1.10457,0 -2,-0.89543 -2,-2 0,-1.10457 0.89543,-2 2,-2 z m 2,-2 m 2,2 c 1.10457,0 2,0.89543 2,2 0,1.10457 -0.89543,2 -2,2 -1.10457,0 -2,-0.89543 -2,-2 0,-1.10457 0.89543,-2 2,-2 z m 6,-2 m 2,2 c 1.10457,0 2,0.89543 2,2 0,1.10457 -0.89543,2 -2,2 -1.10457,0 -2,-0.89543 -2,-2 0,-1.10457 0.89543,-2 2,-2 z m 6,-2 m 2,2 c 1.10457,0 2,0.89543 2,2 0,1.10457 -0.89543,2 -2,2 -1.10457,0 -2,-0.89543 -2,-2 0,-1.10457 0.89543,-2 2,-2 z m 6,-2 m 2,2 c 1.10457,0 2,0.89543 2,2 0,1.10457 -0.89543,2 -2,2 -1.10457,0 -2,-0.89543 -2,-2 0,-1.10457 0.89543,-2 2,-2 z m 2,-2 m 2,2 c 1.10457,0 2,0.89543 2,2 0,1.10457 -0.89543,2 -2,2 -1.10457,0 -2,-0.89543 -2,-2 0,-1.10457 0.89543,-2 2,-2 z m -126,2 m 2,2 c 1.10457,0 2,0.89543 2,2 0,1.10457 -0.895431,2 -2,2 -1.10457,0 -2,-0.89543 -2,-2 0,-1.10457 0.895431,-2 2,-2 z m 22,-2 m 2,2 c 1.10457,0 2,0.89543 2,2 0,1.10457 -0.895431,2 -2,2 -1.10457,0 -2,-0.89543 -2,-2 0,-1.10457 0.895431,-2 2,-2 z m 14,-2 m 2,2 c 1.10457,0 2,0.89543 2,2 0,1.10457 -0.895431,2 -2,2 -1.10457,0 -2,-0.89543 -2,-2 0,-1.10457 0.895431,-2 2,-2 z m 6,-2 m 2,2 c 1.10457,0 2,0.89543 2,2 0,1.10457 -0.895431,2 -2,2 -1.10457,0 -2,-0.89543 -2,-2 0,-1.10457 0.895431,-2 2,-2 z m 2,-2 m 2,2 c 1.10457,0 2,0.89543 2,2 0,1.10457 -0.895431,2 -2,2 -1.10457,0 -2,-0.89543 -2,-2 0,-1.10457 0.895431,-2 2,-2 z m 6,-2 m 2,2 c 1.10457,0 2,0.89543 2,2 0,1.10457 -0.895431,2 -2,2 -1.10457,0 -2,-0.89543 -2,-2 0,-1.10457 0.895431,-2 2,-2 z m 2,-2 m 2,2 c 1.10457,0 2,0.89543 2,2 0,1.10457 -0.895431,2 -2,2 -1.10457,0 -2,-0.89543 -2,-2 0,-1.10457 0.895431,-2 2,-2 z m 6,-2 m 2,2 c 1.10457,0 2,0.89543 2,2 0,1.10457 -0.895431,2 -2,2 -1.10457,0 -2,-0.89543 -2,-2 0,-1.10457 0.895431,-2 2,-2 z m 2,-2 m 2,2 c 1.10457,0 2,0.89543 2,2 0,1.10457 -0.895431,2 -2,2 -1.10457,0 -2,-0.89543 -2,-2 0,-1.10457 0.895431,-2 2,-2 z m 6,-2 m 2,2 c 1.10457,0 2,0.89543 2,2 0,1.10457 -0.89543,2 -2,2 -1.10457,0 -2,-0.89543 -2,-2 0,-1.10457 0.89543,-2 2,-2 z m 2,-2 m 2,2 c 1.10457,0 2,0.89543 2,2 0,1.10457 -0.89543,2 -2,2 -1.10457,0 -2,-0.89543 -2,-2 0,-1.10457 0.89543,-2 2,-2 z m 2,-2 m 2,2 c 1.10457,0 2,0.89543 2,2 0,1.10457 -0.89543,2 -2,2 -1.10457,0 -2,-0.89543 -2,-2 0,-1.10457 0.89543,-2 2,-2 z m 2,-2 m 2,2 c 1.10457,0 2,0.89543 2,2 0,1.10457 -0.89543,2 -2,2 -1.10457,0 -2,-0.89543 -2,-2 0,-1.10457 0.89543,-2 2,-2 z m 14,-2 m 2,2 c 1.10457,0 2,0.89543 2,2 0,1.10457 -0.89543,2 -2,2 -1.10457,0 -2,-0.89543 -2,-2 0,-1.10457 0.89543,-2 2,-2 z m 2,-2 m 2,2 c 1.10457,0 2,0.89543 2,2 0,1.10457 -0.89543,2 -2,2 -1.10457,0 -2,-0.89543 -2,-2 0,-1.10457 0.89543,-2 2,-2 z m 2,-2 m 2,2 c 1.10457,0 2,0.89543 2,2 0,1.10457 -0.89543,2 -2,2 -1.10457,0 -2,-0.89543 -2,-2 0,-1.10457 0.89543,-2 2,-2 z m 2,-2 m 2,2 c 1.10457,0 2,0.89543 2,2 0,1.10457 -0.89543,2 -2,2 -1.10457,0 -2,-0.89543 -2,-2 0,-1.10457 0.89543,-2 2,-2 z m 2,-2 m 2,2 c 1.10457,0 2,0.89543 2,2 0,1.10457 -0.89543,2 -2,2 -1.10457,0 -2,-0.89543 -2,-2 0,-1.10457 0.89543,-2 2,-2 z m -130,2 m 2,2 c 1.10457,0 2,0.89543 2,2 0,1.10457 -0.895431,2 -2,2 -1.10457,0 -2,-0.89543 -2,-2 0,-1.10457 0.895431,-2 2,-2 z m 6,-2 m 2,2 c 1.10457,0 2,0.89543 2,2 0,1.10457 -0.895431,2 -2,2 -1.10457,0 -2,-0.89543 -2,-2 0,-1.10457 0.895431,-2 2,-2 z m 2,-2 m 2,2 c 1.10457,0 2,0.89543 2,2 0,1.10457 -0.895431,2 -2,2 -1.10457,0 -2,-0.89543 -2,-2 0,-1.10457 0.895431,-2 2,-2 z m 2,-2 m 2,2 c 1.10457,0 2,0.89543 2,2 0,1.10457 -0.895431,2 -2,2 -1.10457,0 -2,-0.89543 -2,-2 0,-1.10457 0.895431,-2 2,-2 z m 6,-2 m 2,2 c 1.10457,0 2,0.89543 2,2 0,1.10457 -0.895431,2 -2,2 -1.10457,0 -2,-0.89543 -2,-2 0,-1.10457 0.895431,-2 2,-2 z m 6,-2 m 2,2 c 1.10457,0 2,0.89543 2,2 0,1.10457 -0.895431,2 -2,2 -1.10457,0 -2,-0.89543 -2,-2 0,-1.10457 0.895431,-2 2,-2 z m 6,-2 m 2,2 c 1.10457,0 2,0.89543 2,2 0,1.10457 -0.895431,2 -2,2 -1.10457,0 -2,-0.89543 -2,-2 0,-1.10457 0.895431,-2 2,-2 z m 6,-2 m 2,2 c 1.10457,0 2,0.89543 2,2 0,1.10457 -0.895431,2 -2,2 -1.10457,0 -2,-0.89543 -2,-2 0,-1.10457 0.895431,-2 2,-2 z m 6,-2 m 2,2 c 1.10457,0 2,0.89543 2,2 0,1.10457 -0.895431,2 -2,2 -1.10457,0 -2,-0.89543 -2,-2 0,-1.10457 0.895431,-2 2,-2 z m 10,-2 m 2,2 c 1.10457,0 2,0.89543 2,2 0,1.10457 -0.895431,2 -2,2 -1.10457,0 -2,-0.89543 -2,-2 0,-1.10457 0.895431,-2 2,-2 z m 2,-2 m 2,2 c 1.10457,0 2,0.89543 2,2 0,1.10457 -0.895431,2 -2,2 -1.10457,0 -2,-0.89543 -2,-2 0,-1.10457 0.895431,-2 2,-2 z m 6,-2 m 2,2 c 1.10457,0 2,0.89543 2,2 0,1.10457 -0.895431,2 -2,2 -1.10457,0 -2,-0.89543 -2,-2 0,-1.10457 0.895431,-2 2,-2 z m 6,-2 m 2,2 c 1.10457,0 2,0.89543 2,2 0,1.10457 -0.89543,2 -2,2 -1.10457,0 -2,-0.89543 -2,-2 0,-1.10457 0.89543,-2 2,-2 z m 6,-2 m 2,2 c 1.10457,0 2,0.89543 2,2 0,1.10457 -0.89543,2 -2,2 -1.10457,0 -2,-0.89543 -2,-2 0,-1.10457 0.89543,-2 2,-2 z m 2,-2 m 2,2 c 1.10457,0 2,0.89543 2,2 0,1.10457 -0.89543,2 -2,2 -1.10457,0 -2,-0.89543 -2,-2 0,-1.10457 0.89543,-2 2,-2 z m 2,-2 m 2,2 c 1.10457,0 2,0.89543 2,2 0,1.10457 -0.89543,2 -2,2 -1.10457,0 -2,-0.89543 -2,-2 0,-1.10457 0.89543,-2 2,-2 z m 2,-2 m 2,2 c 1.10457,0 2,0.89543 2,2 0,1.10457 -0.89543,2 -2,2 -1.10457,0 -2,-0.89543 -2,-2 0,-1.10457 0.89543,-2 2,-2 z m 2,-2 m 2,2 c 1.10457,0 2,0.89543 2,2 0,1.10457 -0.89543,2 -2,2 -1.10457,0 -2,-0.89543 -2,-2 0,-1.10457 0.89543,-2 2,-2 z m 2,-2 m 2,2 c 1.10457,0 2,0.89543 2,2 0,1.10457 -0.89543,2 -2,2 -1.10457,0 -2,-0.89543 -2,-2 0,-1.10457 0.89543,-2 2,-2 z m 10,-2 m 2,2 c 1.10457,0 2,0.89543 2,2 0,1.10457 -0.89543,2 -2,2 -1.10457,0 -2,-0.89543 -2,-2 0,-1.10457 0.89543,-2 2,-2 z m -130,2 m 2,2 c 1.10457,0 2,0.89543 2,2 0,1.10457 -0.895431,2 -2,2 -1.10457,0 -2,-0.89543 -2,-2 0,-1.10457 0.895431,-2 2,-2 z m 6,-2 m 2,2 c 1.10457,0 2,0.89543 2,2 0,1.10457 -0.895431,2 -2,2 -1.10457,0 -2,-0.89543 -2,-2 0,-1.10457 0.895431,-2 2,-2 z m 2,-2 m 2,2 c 1.10457,0 2,0.89543 2,2 0,1.10457 -0.895431,2 -2,2 -1.10457,0 -2,-0.89543 -2,-2 0,-1.10457 0.895431,-2 2,-2 z m 2,-2 m 2,2 c 1.10457,0 2,0.89543 2,2 0,1.10457 -0.895431,2 -2,2 -1.10457,0 -2,-0.89543 -2,-2 0,-1.10457 0.895431,-2 2,-2 z m 6,-2 m 2,2 c 1.10457,0 2,0.89543 2,2 0,1.10457 -0.895431,2 -2,2 -1.10457,0 -2,-0.89543 -2,-2 0,-1.10457 0.895431,-2 2,-2 z m 6,-2 m 2,2 c 1.10457,0 2,0.89543 2,2 0,1.10457 -0.895431,2 -2,2 -1.10457,0 -2,-0.89543 -2,-2 0,-1.10457 0.895431,-2 2,-2 z m 2,-2 m 2,2 c 1.10457,0 2,0.89543 2,2 0,1.10457 -0.895431,2 -2,2 -1.10457,0 -2,-0.89543 -2,-2 0,-1.10457 0.895431,-2 2,-2 z m 2,-2 m 2,2 c 1.10457,0 2,0.89543 2,2 0,1.10457 -0.895431,2 -2,2 -1.10457,0 -2,-0.89543 -2,-2 0,-1.10457 0.895431,-2 2,-2 z m 22,-2 m 2,2 c 1.10457,0 2,0.89543 2,2 0,1.10457 -0.895431,2 -2,2 -1.10457,0 -2,-0.89543 -2,-2 0,-1.10457 0.895431,-2 2,-2 z m 10,-2 m 2,2 c 1.10457,0 2,0.89543 2,2 0,1.10457 -0.895431,2 -2,2 -1.10457,0 -2,-0.89543 -2,-2 0,-1.10457 0.895431,-2 2,-2 z m 2,-2 m 2,2 c 1.10457,0 2,0.89543 2,2 0,1.10457 -0.895431,2 -2,2 -1.10457,0 -2,-0.89543 -2,-2 0,-1.10457 0.895431,-2 2,-2 z m 2,-2 m 2,2 c 1.10457,0 2,0.89543 2,2 0,1.10457 -0.89543,2 -2,2 -1.10457,0 -2,-0.89543 -2,-2 0,-1.10457 0.89543,-2 2,-2 z m 2,-2 m 2,2 c 1.10457,0 2,0.89543 2,2 0,1.10457 -0.89543,2 -2,2 -1.10457,0 -2,-0.89543 -2,-2 0,-1.10457 0.89543,-2 2,-2 z m 2,-2 m 2,2 c 1.10457,0 2,0.89543 2,2 0,1.10457 -0.89543,2 -2,2 -1.10457,0 -2,-0.89543 -2,-2 0,-1.10457 0.89543,-2 2,-2 z m 2,-2 m 2,2 c 1.10457,0 2,0.89543 2,2 0,1.10457 -0.89543,2 -2,2 -1.10457,0 -2,-0.89543 -2,-2 0,-1.10457 0.89543,-2 2,-2 z m 2,-2 m 2,2 c 1.10457,0 2,0.89543 2,2 0,1.10457 -0.89543,2 -2,2 -1.10457,0 -2,-0.89543 -2,-2 0,-1.10457 0.89543,-2 2,-2 z m 10,-2 m 2,2 c 1.10457,0 2,0.89543 2,2 0,1.10457 -0.89543,2 -2,2 -1.10457,0 -2,-0.89543 -2,-2 0,-1.10457 0.89543,-2 2,-2 z m 6,-2 m 2,2 c 1.10457,0 2,0.89543 2,2 0,1.10457 -0.89543,2 -2,2 -1.10457,0 -2,-0.89543 -2,-2 0,-1.10457 0.89543,-2 2,-2 z m 2,-2 m 2,2 c 1.10457,0 2,0.89543 2,2 0,1.10457 -0.89543,2 -2,2 -1.10457,0 -2,-0.89543 -2,-2 0,-1.10457 0.89543,-2 2,-2 z m 2,-2 m 2,2 c 1.10457,0 2,0.89543 2,2 0,1.10457 -0.89543,2 -2,2 -1.10457,0 -2,-0.89543 -2,-2 0,-1.10457 0.89543,-2 2,-2 z m -130,2 m 2,2 c 1.10457,0 2,0.89543 2,2 0,1.10457 -0.895431,2 -2,2 -1.10457,0 -2,-0.89543 -2,-2 0,-1.10457 0.895431,-2 2,-2 z m 6,-2 m 2,2 c 1.10457,0 2,0.89543 2,2 0,1.10457 -0.895431,2 -2,2 -1.10457,0 -2,-0.89543 -2,-2 0,-1.10457 0.895431,-2 2,-2 z m 2,-2 m 2,2 c 1.10457,0 2,0.89543 2,2 0,1.10457 -0.895431,2 -2,2 -1.10457,0 -2,-0.89543 -2,-2 0,-1.10457 0.895431,-2 2,-2 z m 2,-2 m 2,2 c 1.10457,0 2,0.89543 2,2 0,1.10457 -0.895431,2 -2,2 -1.10457,0 -2,-0.89543 -2,-2 0,-1.10457 0.895431,-2 2,-2 z m 6,-2 m 2,2 c 1.10457,0 2,0.89543 2,2 0,1.10457 -0.895431,2 -2,2 -1.10457,0 -2,-0.89543 -2,-2 0,-1.10457 0.895431,-2 2,-2 z m 6,-2 m 2,2 c 1.10457,0 2,0.89543 2,2 0,1.10457 -0.895431,2 -2,2 -1.10457,0 -2,-0.89543 -2,-2 0,-1.10457 0.895431,-2 2,-2 z m 10,-2 m 2,2 c 1.10457,0 2,0.89543 2,2 0,1.10457 -0.895431,2 -2,2 -1.10457,0 -2,-0.89543 -2,-2 0,-1.10457 0.895431,-2 2,-2 z m 2,-2 m 2,2 c 1.10457,0 2,0.89543 2,2 0,1.10457 -0.895431,2 -2,2 -1.10457,0 -2,-0.89543 -2,-2 0,-1.10457 0.895431,-2 2,-2 z m 10,-2 m 2,2 c 1.10457,0 2,0.89543 2,2 0,1.10457 -0.895431,2 -2,2 -1.10457,0 -2,-0.89543 -2,-2 0,-1.10457 0.895431,-2 2,-2 z m 2,-2 m 2,2 c 1.10457,0 2,0.89543 2,2 0,1.10457 -0.895431,2 -2,2 -1.10457,0 -2,-0.89543 -2,-2 0,-1.10457 0.895431,-2 2,-2 z m 6,-2 m 2,2 c 1.10457,0 2,0.89543 2,2 0,1.10457 -0.895431,2 -2,2 -1.10457,0 -2,-0.89543 -2,-2 0,-1.10457 0.895431,-2 2,-2 z m 6,-2 m 2,2 c 1.10457,0 2,0.89543 2,2 0,1.10457 -0.895431,2 -2,2 -1.10457,0 -2,-0.89543 -2,-2 0,-1.10457 0.895431,-2 2,-2 z m 14,-2 m 2,2 c 1.10457,0 2,0.89543 2,2 0,1.10457 -0.89543,2 -2,2 -1.10457,0 -2,-0.89543 -2,-2 0,-1.10457 0.89543,-2 2,-2 z m 6,-2 m 2,2 c 1.10457,0 2,0.89543 2,2 0,1.10457 -0.89543,2 -2,2 -1.10457,0 -2,-0.89543 -2,-2 0,-1.10457 0.89543,-2 2,-2 z m 10,-2 m 2,2 c 1.10457,0 2,0.89543 2,2 0,1.10457 -0.89543,2 -2,2 -1.10457,0 -2,-0.89543 -2,-2 0,-1.10457 0.89543,-2 2,-2 z m -118,2 m 2,2 c 1.10457,0 2,0.89543 2,2 0,1.10457 -0.895431,2 -2,2 -1.10457,0 -2,-0.89543 -2,-2 0,-1.10457 0.895431,-2 2,-2 z m 22,-2 m 2,2 c 1.10457,0 2,0.89543 2,2 0,1.10457 -0.895431,2 -2,2 -1.10457,0 -2,-0.89543 -2,-2 0,-1.10457 0.895431,-2 2,-2 z m 6,-2 m 2,2 c 1.10457,0 2,0.89543 2,2 0,1.10457 -0.895431,2 -2,2 -1.10457,0 -2,-0.89543 -2,-2 0,-1.10457 0.895431,-2 2,-2 z m 6,-2 m 2,2 c 1.10457,0 2,0.89543 2,2 0,1.10457 -0.895431,2 -2,2 -1.10457,0 -2,-0.89543 -2,-2 0,-1.10457 0.895431,-2 2,-2 z m 2,-2 m 2,2 c 1.10457,0 2,0.89543 2,2 0,1.10457 -0.895431,2 -2,2 -1.10457,0 -2,-0.89543 -2,-2 0,-1.10457 0.895431,-2 2,-2 z m 10,-2 m 2,2 c 1.10457,0 2,0.89543 2,2 0,1.10457 -0.895431,2 -2,2 -1.10457,0 -2,-0.89543 -2,-2 0,-1.10457 0.895431,-2 2,-2 z m 6,-2 m 2,2 c 1.10457,0 2,0.89543 2,2 0,1.10457 -0.895431,2 -2,2 -1.10457,0 -2,-0.89543 -2,-2 0,-1.10457 0.895431,-2 2,-2 z m 14,-2 m 2,2 c 1.10457,0 2,0.89543 2,2 0,1.10457 -0.895431,2 -2,2 -1.10457,0 -2,-0.89543 -2,-2 0,-1.10457 0.895431,-2 2,-2 z m 2,-2 m 2,2 c 1.10457,0 2,0.89543 2,2 0,1.10457 -0.89543,2 -2,2 -1.10457,0 -2,-0.89543 -2,-2 0,-1.10457 0.89543,-2 2,-2 z m 2,-2 m 2,2 c 1.10457,0 2,0.89543 2,2 0,1.10457 -0.89543,2 -2,2 -1.10457,0 -2,-0.89543 -2,-2 0,-1.10457 0.89543,-2 2,-2 z m 10,-2 m 2,2 c 1.10457,0 2,0.89543 2,2 0,1.10457 -0.89543,2 -2,2 -1.10457,0 -2,-0.89543 -2,-2 0,-1.10457 0.89543,-2 2,-2 z m 2,-2 m 2,2 c 1.10457,0 2,0.89543 2,2 0,1.10457 -0.89543,2 -2,2 -1.10457,0 -2,-0.89543 -2,-2 0,-1.10457 0.89543,-2 2,-2 z m 2,-2 m 2,2 c 1.10457,0 2,0.89543 2,2 0,1.10457 -0.89543,2 -2,2 -1.10457,0 -2,-0.89543 -2,-2 0,-1.10457 0.89543,-2 2,-2 z m 2,-2 m 2,2 c 1.10457,0 2,0.89543 2,2 0,1.10457 -0.89543,2 -2,2 -1.10457,0 -2,-0.89543 -2,-2 0,-1.10457 0.89543,-2 2,-2 z m 2,-2 m 2,2 c 1.10457,0 2,0.89543 2,2 0,1.10457 -0.89543,2 -2,2 -1.10457,0 -2,-0.89543 -2,-2 0,-1.10457 0.89543,-2 2,-2 z m 2,-2 m 2,2 c 1.10457,0 2,0.89543 2,2 0,1.10457 -0.89543,2 -2,2 -1.10457,0 -2,-0.89543 -2,-2 0,-1.10457 0.89543,-2 2,-2 z m -122,2 m 2,2 c 1.10457,0 2,0.89543 2,2 0,1.10457 -0.895431,2 -2,2 -1.10457,0 -2,-0.89543 -2,-2 0,-1.10457 0.895431,-2 2,-2 z m 2,-2 m 2,2 c 1.10457,0 2,0.89543 2,2 0,1.10457 -0.895431,2 -2,2 -1.10457,0 -2,-0.89543 -2,-2 0,-1.10457 0.895431,-2 2,-2 z m 2,-2 m 2,2 c 1.10457,0 2,0.89543 2,2 0,1.10457 -0.895431,2 -2,2 -1.10457,0 -2,-0.89543 -2,-2 0,-1.10457 0.895431,-2 2,-2 z m 2,-2 m 2,2 c 1.10457,0 2,0.89543 2,2 0,1.10457 -0.895431,2 -2,2 -1.10457,0 -2,-0.89543 -2,-2 0,-1.10457 0.895431,-2 2,-2 z m 2,-2 m 2,2 c 1.10457,0 2,0.89543 2,2 0,1.10457 -0.895431,2 -2,2 -1.10457,0 -2,-0.89543 -2,-2 0,-1.10457 0.895431,-2 2,-2 z m 2,-2 m 2,2 c 1.10457,0 2,0.89543 2,2 0,1.10457 -0.895431,2 -2,2 -1.10457,0 -2,-0.89543 -2,-2 0,-1.10457 0.895431,-2 2,-2 z m 2,-2 m 2,2 c 1.10457,0 2,0.89543 2,2 0,1.10457 -0.895431,2 -2,2 -1.10457,0 -2,-0.89543 -2,-2 0,-1.10457 0.895431,-2 2,-2 z m 6,-2 m 2,2 c 1.10457,0 2,0.89543 2,2 0,1.10457 -0.895431,2 -2,2 -1.10457,0 -2,-0.89543 -2,-2 0,-1.10457 0.895431,-2 2,-2 z m 6,-2 m 2,2 c 1.10457,0 2,0.89543 2,2 0,1.10457 -0.895431,2 -2,2 -1.10457,0 -2,-0.89543 -2,-2 0,-1.10457 0.895431,-2 2,-2 z m 2,-2 m 2,2 c 1.10457,0 2,0.89543 2,2 0,1.10457 -0.895431,2 -2,2 -1.10457,0 -2,-0.89543 -2,-2 0,-1.10457 0.895431,-2 2,-2 z m 18,-2 m 2,2 c 1.10457,0 2,0.89543 2,2 0,1.10457 -0.895431,2 -2,2 -1.10457,0 -2,-0.89543 -2,-2 0,-1.10457 0.895431,-2 2,-2 z m 2,-2 m 2,2 c 1.10457,0 2,0.89543 2,2 0,1.10457 -0.895431,2 -2,2 -1.10457,0 -2,-0.89543 -2,-2 0,-1.10457 0.895431,-2 2,-2 z m 2,-2 m 2,2 c 1.10457,0 2,0.89543 2,2 0,1.10457 -0.895431,2 -2,2 -1.10457,0 -2,-0.89543 -2,-2 0,-1.10457 0.895431,-2 2,-2 z m 6,-2 m 2,2 c 1.10457,0 2,0.89543 2,2 0,1.10457 -0.895431,2 -2,2 -1.10457,0 -2,-0.89543 -2,-2 0,-1.10457 0.895431,-2 2,-2 z m 6,-2 m 2,2 c 1.10457,0 2,0.89543 2,2 0,1.10457 -0.89543,2 -2,2 -1.10457,0 -2,-0.89543 -2,-2 0,-1.10457 0.89543,-2 2,-2 z m 2,-2 m 2,2 c 1.10457,0 2,0.89543 2,2 0,1.10457 -0.89543,2 -2,2 -1.10457,0 -2,-0.89543 -2,-2 0,-1.10457 0.89543,-2 2,-2 z m 2,-2 m 2,2 c 1.10457,0 2,0.89543 2,2 0,1.10457 -0.89543,2 -2,2 -1.10457,0 -2,-0.89543 -2,-2 0,-1.10457 0.89543,-2 2,-2 z m 10,-2 m 2,2 c 1.10457,0 2,0.89543 2,2 0,1.10457 -0.89543,2 -2,2 -1.10457,0 -2,-0.89543 -2,-2 0,-1.10457 0.89543,-2 2,-2 z m 6,-2 m 2,2 c 1.10457,0 2,0.89543 2,2 0,1.10457 -0.89543,2 -2,2 -1.10457,0 -2,-0.89543 -2,-2 0,-1.10457 0.89543,-2 2,-2 z m 6,-2 m 2,2 c 1.10457,0 2,0.89543 2,2 0,1.10457 -0.89543,2 -2,2 -1.10457,0 -2,-0.89543 -2,-2 0,-1.10457 0.89543,-2 2,-2 z"
         id="path2" />
    </g>
  </g>
</svg>
